<?xml version="1.0" standalone="no"?>
<!DOCTYPE svg PUBLIC "-//W3C//DTD SVG 20010904//EN"
 "http://www.w3.org/TR/2001/REC-SVG-20010904/DTD/svg10.dtd">
<svg version="1.0" xmlns="http://www.w3.org/2000/svg"
 width="2440.666678pt" height="2373.091253pt" viewBox="0 0 2440.666678 2373.091253"
 preserveAspectRatio="xMidYMid meet">
<metadata>
Created by potrace 1.16, written by Peter Selinger 2001-2019
</metadata>
<g transform="translate(-129.078563,2592.648623) scale(0.100000,-0.100000)"
fill="#2b2018" stroke="none">
<path d="M11210 25924 c-14 -2 -41 -9 -60 -14 l-35 -9 -3 -162 c-2 -127 1
-172 13 -210 19 -57 82 -132 127 -149 39 -16 78 -48 78 -66 0 -23 83 -84 143
-106 68 -25 117 -61 117 -87 0 -22 -54 -73 -105 -99 -86 -45 -109 -92 -123
-249 -12 -131 -9 -166 33 -493 37 -292 61 -394 112 -494 17 -33 12 -124 -12
-215 -15 -59 -13 -67 38 -146 52 -82 84 -107 172 -135 22 -7 74 -30 116 -50
42 -21 91 -41 110 -45 19 -4 61 -20 94 -35 89 -42 167 -54 311 -47 170 7 211
28 269 139 28 54 63 84 108 94 56 12 124 52 159 94 l34 42 123 -25 c68 -14
127 -30 131 -37 8 -13 165 -70 194 -70 35 0 161 -68 194 -104 39 -43 60 -45
93 -10 30 33 127 80 193 94 97 20 154 58 210 137 96 136 149 208 175 236 34
37 24 52 -71 101 l-76 39 -122 -12 -123 -11 -46 29 c-25 16 -79 46 -119 66
-40 20 -76 42 -79 51 -3 9 12 39 36 72 23 31 53 80 66 109 13 28 54 103 90
167 36 63 65 126 65 139 0 26 -14 74 -37 125 -15 34 -65 72 -94 72 -17 0 -34
26 -21 33 4 3 36 8 72 11 59 6 68 5 85 -14 11 -12 18 -33 17 -48 -1 -15 7 -38
18 -52 17 -23 27 -25 107 -28 l88 -4 41 40 c23 21 45 49 49 61 3 11 10 21 15
21 4 0 31 30 58 68 28 37 67 83 86 101 20 19 36 45 36 57 0 11 -16 42 -36 68
-19 25 -52 86 -72 134 -42 100 -90 155 -151 173 -49 15 -86 51 -126 126 -20
39 -45 67 -75 88 -45 30 -45 30 -168 27 -75 -2 -140 -9 -165 -18 -49 -17 -101
-64 -127 -114 -25 -49 -48 -67 -111 -89 -107 -36 -141 -68 -185 -170 -15 -33
-30 -61 -34 -61 -7 0 -24 -38 -54 -118 -17 -45 -17 -50 9 -197 8 -44 20 -129
26 -190 13 -127 24 -234 34 -322 8 -63 8 -63 -18 -63 -16 0 -28 -7 -31 -18 -4
-10 -22 -25 -41 -32 -19 -8 -35 -17 -35 -22 0 -4 -10 -8 -23 -8 -13 0 -28 -5
-34 -11 -51 -51 -79 134 -93 616 -10 377 -21 445 -84 513 -41 45 -93 64 -261
93 -89 15 -108 25 -173 92 -61 64 -167 114 -297 141 -74 15 -145 53 -145 76 0
13 -39 52 -73 74 -34 21 -192 79 -263 95 -60 14 -99 45 -89 70 18 42 17 48
-15 60 -35 12 -199 22 -240 15z m816 -1026 c17 -13 45 -36 62 -53 18 -16 55
-41 84 -55 74 -35 103 -89 112 -201 22 -267 39 -432 52 -491 38 -181 46 -212
65 -260 11 -29 25 -57 30 -63 18 -19 9 -43 -18 -49 -43 -9 -165 -26 -190 -26
-38 0 -72 40 -88 105 -9 33 -26 87 -39 120 -14 34 -31 112 -40 177 -12 87 -24
135 -46 182 -58 121 -91 361 -71 510 18 132 30 146 87 104z"/>
<path d="M16318 25900 c-13 -8 -14 -15 -6 -38 8 -21 3 -70 -22 -217 -18 -104
-37 -217 -41 -250 -5 -33 -16 -82 -24 -110 -7 -27 -21 -108 -30 -180 -31 -264
-47 -327 -94 -380 -58 -66 -100 -194 -125 -385 -53 -402 -53 -402 -106 -461
-22 -24 -48 -64 -57 -89 -9 -25 -30 -65 -45 -89 -15 -24 -39 -78 -52 -120 -25
-75 -25 -77 -12 -192 20 -167 51 -217 166 -267 51 -22 78 -48 112 -108 27 -48
69 -86 119 -107 31 -13 46 -12 139 4 58 10 110 19 116 19 18 0 167 -101 221
-150 57 -52 111 -80 190 -100 63 -16 136 -6 237 35 62 25 73 26 167 19 l101
-7 13 -31 c7 -17 20 -67 30 -111 9 -44 29 -100 43 -124 34 -58 137 -135 172
-127 14 3 82 20 152 38 149 40 189 65 230 148 l28 55 -15 120 c-15 119 -15
121 12 239 26 116 28 120 67 148 79 57 113 133 141 313 19 126 43 183 95 228
70 60 216 332 249 464 30 116 29 125 -26 173 -74 65 -118 92 -202 120 -75 25
-76 26 -102 80 -31 65 -85 114 -148 134 -25 9 -131 27 -236 40 -104 14 -206
30 -225 35 -31 10 -42 8 -97 -19 -69 -34 -125 -91 -173 -176 -28 -51 -30 -60
-30 -163 l0 -109 -58 -50 c-33 -29 -74 -78 -95 -114 -36 -62 -41 -66 -115 -97
-106 -45 -209 -116 -254 -176 -36 -47 -74 -139 -98 -233 -15 -59 -37 -70 -163
-78 -95 -6 -109 -5 -127 11 -40 37 -16 135 53 211 77 86 117 206 137 413 22
229 43 305 113 408 62 91 99 246 127 528 18 182 31 210 159 358 57 67 98 159
111 249 6 40 20 100 31 132 11 32 18 65 15 73 -3 8 0 23 7 34 20 33 -7 39
-183 38 -223 0 -284 -13 -219 -46 13 -7 24 -18 24 -24 0 -37 -176 -52 -234
-21 -41 22 -42 34 -2 46 61 18 33 34 -73 42 -41 3 -78 0 -88 -6z m1230 -1660
c23 -10 66 -41 95 -68 28 -26 64 -53 80 -60 19 -8 35 -29 52 -68 14 -31 25
-64 25 -73 0 -31 -58 -111 -81 -111 -34 0 -132 -31 -161 -51 -14 -11 -35 -19
-45 -19 -30 0 -40 31 -74 220 -13 76 -30 113 -71 156 -45 48 -36 67 42 80 89
16 90 16 138 -6z m-28 -595 c11 -23 14 -67 14 -187 -1 -177 -7 -197 -71 -223
-57 -24 -102 -63 -139 -121 -18 -29 -38 -55 -43 -58 -5 -4 -22 4 -38 17 -44
35 -115 83 -150 101 -80 40 -82 149 -5 204 15 11 41 46 57 77 26 53 47 83 120
173 26 31 30 32 103 33 43 0 86 4 97 9 30 12 38 8 55 -25z"/>
<path d="M8907 24411 c-69 -67 -94 -103 -108 -156 -15 -56 -44 -92 -82 -104
-87 -29 -135 -124 -150 -294 -10 -107 -9 -129 12 -245 34 -188 64 -244 164
-314 26 -18 35 -47 78 -235 25 -113 62 -173 122 -201 24 -11 48 -26 54 -34 5
-7 16 -56 22 -108 7 -52 15 -103 17 -112 3 -9 -8 -31 -24 -49 l-29 -33 -45 29
c-30 19 -52 42 -63 68 -10 22 -31 46 -47 56 -93 50 -128 97 -142 187 -9 56
-57 128 -110 165 -46 33 -60 59 -130 245 -29 76 -68 125 -127 154 -37 19 -79
85 -79 123 0 62 -83 224 -136 266 -27 22 -35 23 -135 17 -228 -14 -381 -66
-466 -158 -57 -61 -80 -194 -54 -308 19 -82 15 -108 -21 -126 -19 -10 -44 -14
-65 -11 -48 8 -137 51 -181 87 -36 30 -38 30 -156 30 l-119 0 -40 -41 c-68
-72 -94 -117 -112 -190 -17 -68 -17 -75 0 -155 27 -127 70 -193 170 -259 69
-45 120 -71 208 -104 13 -4 28 -35 46 -91 15 -47 42 -115 59 -151 30 -62 50
-84 132 -148 32 -24 70 -88 70 -117 0 -9 12 -43 26 -75 21 -46 37 -66 79 -95
43 -29 57 -46 74 -90 47 -123 51 -217 12 -266 l-19 -23 -89 28 c-48 15 -106
33 -128 40 -43 13 -57 33 -91 131 -21 60 -64 110 -115 133 -33 14 -44 28 -73
87 -30 63 -116 174 -180 231 -34 30 -101 124 -130 180 -25 50 -45 74 -119 136
-21 18 -51 58 -67 89 -31 62 -77 108 -129 129 -26 11 -58 12 -156 4 -111 -8
-127 -12 -165 -38 -60 -41 -86 -94 -104 -207 -21 -127 -20 -156 5 -222 21 -59
63 -102 107 -112 39 -10 48 -20 84 -87 37 -68 74 -101 148 -131 51 -21 54 -24
81 -91 36 -87 52 -110 120 -161 31 -24 69 -66 89 -99 19 -31 52 -77 72 -103
21 -25 40 -59 44 -76 9 -42 22 -56 50 -56 35 0 144 -115 144 -152 0 -33 -51
-78 -89 -78 -37 0 -131 87 -131 121 0 39 -26 67 -70 74 -51 9 -138 86 -177
156 -18 33 -35 52 -52 56 -32 8 -163 125 -197 176 -14 21 -35 42 -48 47 -13 5
-44 35 -69 68 -54 72 -67 95 -67 121 0 41 -48 79 -153 120 -175 68 -185 70
-263 37 -37 -15 -90 -42 -118 -60 -28 -18 -67 -43 -87 -55 -20 -12 -49 -37
-64 -57 -19 -25 -55 -49 -120 -80 -80 -38 -98 -51 -125 -91 -17 -26 -37 -72
-45 -103 -38 -140 -70 -228 -96 -261 -35 -44 -81 -166 -73 -191 10 -33 62 -84
101 -100 21 -9 72 -28 113 -44 130 -49 126 -45 211 -212 43 -84 91 -168 108
-188 44 -50 57 -78 76 -174 18 -90 64 -224 90 -264 9 -13 33 -32 53 -41 46
-21 132 -103 132 -126 0 -9 -18 -33 -40 -53 -33 -30 -45 -35 -68 -30 -15 4
-31 10 -37 14 -5 5 -49 20 -97 35 -75 23 -91 32 -108 60 -12 19 -35 46 -53 62
-33 28 -53 38 -185 89 -56 21 -92 44 -145 92 -94 85 -148 118 -229 143 -66 20
-118 61 -118 92 0 22 -61 87 -106 113 -41 24 -49 26 -84 15 -53 -16 -143 -85
-168 -130 -22 -38 -27 -42 -127 -86 -36 -16 -84 -50 -125 -88 -99 -95 -94 -81
-77 -212 9 -62 24 -137 33 -167 46 -147 35 -131 105 -150 35 -9 79 -16 97 -17
17 -1 32 -5 32 -11 0 -6 -36 -10 -89 -10 -107 0 -397 -58 -479 -95 -29 -13
-74 -47 -102 -76 -43 -44 -50 -58 -50 -91 0 -22 -5 -70 -11 -108 -8 -51 -7
-74 1 -91 24 -45 126 -160 162 -184 21 -14 38 -31 38 -39 0 -7 -22 -25 -50
-40 -41 -22 -71 -29 -167 -38 -144 -13 -212 -31 -264 -72 -55 -44 -66 -62 -95
-168 -39 -138 -39 -140 -9 -215 48 -122 111 -203 190 -243 32 -16 59 -20 143
-20 83 0 110 -4 142 -20 21 -11 74 -29 117 -40 117 -32 131 -39 164 -87 17
-24 49 -57 71 -74 46 -32 161 -72 262 -90 70 -12 106 -40 106 -82 0 -32 65
-85 127 -103 64 -19 138 -79 128 -105 -3 -8 -20 -23 -37 -33 -30 -18 -35 -18
-161 0 -134 19 -177 36 -201 79 -33 60 -107 91 -301 125 -262 46 -329 67 -367
115 -9 11 -47 36 -84 54 -54 26 -74 31 -103 26 -20 -4 -47 -9 -61 -11 -58 -10
-147 -50 -180 -80 -109 -102 -124 -121 -154 -194 -32 -76 -40 -83 -116 -112
-50 -18 -110 -83 -146 -158 -44 -90 -95 -240 -89 -259 3 -9 18 -31 34 -48 76
-84 89 -118 107 -292 20 -199 45 -234 214 -301 58 -22 142 -66 187 -96 65 -44
100 -59 175 -79 52 -13 128 -26 169 -30 90 -8 218 -32 279 -52 29 -10 63 -35
100 -72 77 -80 135 -100 305 -108 l130 -5 50 33 c39 26 58 50 87 105 37 71 68
104 138 147 20 13 57 56 85 99 62 94 80 114 127 144 66 42 85 84 98 216 11
105 10 125 -6 185 -22 85 -36 114 -89 183 -50 64 -60 84 -85 154 -15 45 -16
57 -5 83 16 38 48 49 170 58 195 14 263 84 294 305 7 48 5 81 -5 128 -19 82
-80 222 -109 248 -21 20 -103 42 -266 72 -82 15 -196 74 -259 133 -57 54 -127
91 -194 103 -66 12 -149 60 -176 102 -14 21 -44 52 -67 68 -23 17 -69 54 -102
81 l-61 50 6 105 c6 117 11 126 83 150 52 17 74 6 124 -58 20 -26 51 -55 69
-64 55 -28 241 -105 270 -112 14 -3 45 -28 68 -55 49 -59 89 -86 162 -107 81
-24 159 -68 199 -110 20 -22 74 -70 119 -109 46 -38 105 -91 132 -117 27 -27
50 -48 52 -48 2 0 33 14 70 30 36 17 90 35 119 41 63 14 134 49 164 81 12 12
31 46 43 73 20 46 22 62 17 183 -9 221 -40 258 -267 316 -102 27 -139 40 -150
57 -42 60 -112 105 -200 129 -73 20 -136 56 -207 121 -74 67 -135 102 -217
123 -29 8 -67 21 -83 29 -30 16 -35 24 -78 124 -28 64 -59 100 -110 126 l-30
16 35 14 c19 8 74 27 121 42 l86 28 118 -39 c91 -30 121 -44 133 -64 41 -66
85 -96 196 -132 83 -27 151 -67 216 -128 67 -64 107 -84 201 -106 105 -23 154
-49 202 -106 23 -28 53 -56 67 -63 14 -7 79 -16 145 -20 l120 -6 50 33 c93 62
123 151 132 391 3 87 10 160 14 163 5 3 64 10 131 15 146 13 197 29 242 79 53
59 60 93 53 272 -8 198 -18 243 -60 257 -16 6 -101 11 -189 11 -185 0 -212 9
-265 84 -18 25 -57 62 -87 81 -29 19 -68 52 -85 74 l-32 40 12 108 c11 108 28
159 54 169 8 3 56 -2 108 -10 53 -9 99 -16 104 -15 32 6 45 -5 67 -54 33 -75
78 -122 151 -156 35 -17 66 -38 68 -48 3 -10 10 -39 17 -65 18 -70 61 -110
183 -172 169 -87 273 -95 417 -29 118 54 165 113 210 270 31 109 45 121 171
142 58 10 116 24 130 31 57 29 145 150 163 223 3 15 11 84 16 154 5 69 15 132
21 139 9 11 44 14 145 14 133 0 135 0 202 34 49 25 85 54 137 111 39 42 71 78
73 79 1 2 -3 50 -10 107 -11 99 -14 107 -59 174 -60 89 -78 106 -164 147 l-70
34 -27 79 c-40 114 -109 224 -163 258 -47 30 -88 90 -100 147 -17 81 -64 146
-132 186 -34 19 -46 44 -78 170 -19 78 -19 117 0 154 24 47 40 51 165 36 114
-13 114 -13 147 -51 19 -22 41 -61 51 -88 21 -61 63 -112 110 -136 53 -27 68
-48 87 -119 29 -114 79 -198 153 -261 43 -35 56 -55 92 -144 44 -105 77 -148
151 -192 22 -13 43 -39 59 -72 32 -67 54 -90 115 -120 48 -25 55 -26 176 -20
184 8 215 27 285 176 63 135 57 131 183 131 58 0 161 -5 227 -11 118 -12 123
-11 157 10 20 12 52 43 71 69 44 60 99 112 153 145 54 34 85 76 118 162 14 39
39 99 55 135 36 82 67 258 51 289 -15 28 -32 27 -62 -5 -31 -34 -61 -45 -134
-51 -56 -4 -178 -40 -235 -70 -32 -17 -74 -16 -108 1 -15 7 -60 22 -100 31
-108 26 -118 42 -127 197 -11 205 11 326 67 366 29 21 92 111 120 172 15 32
54 84 93 125 75 77 105 120 105 150 0 43 -59 166 -116 242 -55 73 -184 128
-405 173 -132 27 -201 47 -225 65 -34 26 -66 15 -127 -44z m364 -633 c34 -22
49 -38 49 -53 0 -26 -66 -95 -90 -95 -22 0 -101 103 -91 118 7 12 71 62 79 62
2 0 26 -14 53 -32z m-3453 -2480 c53 -102 55 -109 41 -134 -8 -15 -27 -36 -44
-46 -27 -18 -43 -19 -159 -13 -71 4 -138 10 -150 15 -35 14 -66 49 -66 77 0
38 79 152 110 159 70 15 117 28 140 40 53 29 68 17 128 -98z m-2317 -3908 c20
-6 80 -17 135 -25 179 -26 311 -53 343 -70 18 -9 52 -31 75 -49 57 -43 153
-81 246 -96 61 -10 79 -18 102 -42 15 -17 28 -39 28 -50 0 -34 -39 -88 -68
-94 -55 -12 -182 -56 -187 -65 -9 -13 -46 -11 -64 4 -37 31 -228 80 -396 102
-120 15 -177 41 -291 130 -60 47 -124 97 -141 111 -18 13 -33 29 -33 35 0 5
37 27 83 48 45 22 91 46 102 55 24 19 21 18 66 6z"/>
<path d="M20692 23658 c-27 -21 -53 -56 -73 -98 -86 -176 -109 -216 -131 -227
-12 -7 -68 -24 -123 -38 -143 -38 -183 -54 -210 -87 -38 -45 -48 -92 -52 -250
-5 -167 -2 -160 -101 -213 -60 -32 -102 -83 -121 -147 -11 -35 -70 -98 -93
-98 -28 0 -81 -56 -112 -119 -33 -64 -71 -106 -149 -161 -20 -14 -40 -35 -46
-47 -21 -45 -86 -104 -153 -140 -49 -25 -78 -49 -99 -79 -29 -42 -29 -44 -29
-179 0 -127 2 -139 25 -178 26 -45 37 -55 100 -90 51 -29 85 -79 85 -128 0
-70 22 -194 42 -242 26 -60 72 -100 146 -127 33 -12 81 -40 108 -62 26 -22 60
-45 74 -52 43 -22 143 -54 189 -60 86 -12 266 -47 288 -56 42 -18 51 -50 78
-270 28 -234 34 -257 79 -308 39 -45 81 -64 226 -107 67 -20 144 -50 171 -66
26 -17 84 -43 128 -59 101 -37 142 -64 169 -110 l21 -36 -20 -59 c-35 -107
-41 -175 -24 -285 17 -118 30 -147 87 -193 67 -55 137 -85 259 -112 83 -19
121 -32 147 -53 63 -50 72 -54 94 -48 13 3 37 18 54 34 30 26 33 34 48 153 9
69 16 166 16 216 0 50 3 99 6 108 10 24 83 70 135 84 66 18 125 61 162 116 28
42 40 51 97 70 115 38 227 107 260 160 27 43 103 98 137 98 14 0 37 -13 53
-29 25 -26 30 -41 40 -129 6 -55 15 -114 21 -130 24 -79 119 -136 261 -156 77
-11 93 -11 140 4 84 27 118 66 158 177 12 36 28 74 35 85 7 11 23 44 35 72
l22 52 -58 66 c-66 76 -109 104 -213 136 -47 15 -79 32 -88 46 -10 15 -19 87
-29 234 -14 198 -17 214 -41 251 -42 63 -90 85 -225 99 -97 11 -123 10 -158
-1 -54 -18 -116 -79 -131 -129 -14 -47 -41 -75 -101 -105 -42 -21 -57 -42 -96
-134 -15 -36 -64 -67 -130 -83 -74 -19 -117 -45 -164 -100 -37 -44 -63 -61
-178 -117 -146 -71 -198 -106 -219 -146 -8 -14 -34 -36 -59 -47 -43 -21 -46
-22 -99 -5 -44 14 -67 31 -126 92 -42 44 -86 102 -104 139 -30 58 -84 115
-110 115 -35 0 -103 94 -103 142 0 38 42 99 90 133 25 17 54 47 64 67 30 55
91 85 201 102 57 8 107 22 128 35 19 11 42 21 50 21 19 0 83 -34 104 -56 8 -7
18 -14 22 -14 5 0 11 -13 14 -30 10 -45 46 -58 190 -66 109 -6 128 -5 142 9
15 16 59 31 206 71 68 19 103 45 132 99 20 39 22 59 27 292 6 279 -1 335 -49
395 -15 19 -43 42 -62 51 -67 32 -107 55 -161 91 -66 44 -141 73 -263 100
l-90 20 -139 -21 c-156 -23 -198 -44 -211 -102 -4 -18 -25 -51 -47 -75 -39
-42 -68 -56 -140 -69 -42 -7 -52 -20 -63 -84 -5 -29 -19 -56 -42 -82 -29 -32
-42 -39 -74 -39 -62 0 -108 24 -109 56 0 6 14 27 30 45 17 19 47 58 67 87 20
28 39 52 43 52 12 0 50 37 50 48 0 5 19 27 43 48 48 43 75 85 102 158 14 35
29 55 59 75 96 62 119 117 124 300 4 158 -6 206 -57 261 -33 37 -105 69 -153
70 -20 0 -71 5 -112 11 -87 13 -224 -2 -265 -28 -22 -14 -25 -14 -38 3 -19 24
-11 82 23 190 24 76 28 83 77 115 49 32 85 74 132 151 16 25 54 51 165 109 80
43 163 93 185 112 47 40 49 64 20 187 -23 95 -26 101 -79 144 -61 51 -158 81
-331 106 -82 11 -158 23 -170 26 -15 4 -35 -5 -63 -28z m-111 -1355 c25 -27
57 -74 73 -105 l29 -58 -59 -62 c-34 -36 -72 -89 -89 -125 -22 -46 -37 -65
-59 -75 -40 -16 -103 -74 -123 -111 -8 -16 -21 -51 -29 -77 -13 -43 -20 -50
-74 -79 -67 -36 -102 -76 -125 -141 -17 -48 -50 -90 -71 -90 -26 0 -82 33 -93
54 -6 12 -20 50 -32 86 -12 36 -31 82 -42 103 l-21 37 30 33 c42 45 57 72 83
147 26 75 50 104 106 129 51 23 70 45 120 139 44 82 46 84 173 138 42 18 73
40 93 66 17 21 39 38 48 38 10 0 38 -21 62 -47z m215 -998 c9 -13 18 -41 21
-62 4 -33 1 -42 -32 -75 -20 -21 -42 -38 -49 -38 -27 0 -86 31 -96 50 -13 24
-10 29 49 97 52 59 81 67 107 28z m907 -77 l20 -27 -24 -92 c-35 -133 -66
-142 -103 -29 -32 97 -31 107 8 146 42 42 69 42 99 2z m-1168 -228 c9 -15 -14
-40 -36 -40 -19 0 -27 29 -12 43 10 11 41 8 48 -3z"/>
<path d="M5929 23431 c-79 -39 -139 -105 -139 -151 0 -86 146 -310 202 -310
29 0 105 81 117 125 28 99 35 174 22 212 -27 74 -99 144 -148 143 -10 -1 -34
-9 -54 -19z"/>
<path d="M16880 21321 c-92 -7 -117 -18 -185 -82 -69 -66 -91 -70 -365 -78
-219 -7 -251 -10 -302 -30 -56 -22 -178 -104 -178 -120 0 -5 -54 -54 -119
-110 -65 -56 -129 -115 -142 -132 -13 -17 -39 -47 -58 -67 -19 -21 -41 -49
-51 -65 -9 -15 -37 -49 -61 -75 -89 -96 -102 -127 -155 -372 -15 -69 -31 -130
-36 -136 -5 -6 -46 -26 -91 -43 -126 -47 -216 -112 -275 -196 -12 -18 -92
-107 -159 -178 -107 -113 -142 -219 -143 -423 0 -146 39 -240 128 -304 26 -19
65 -65 98 -116 81 -126 81 -127 55 -174 -12 -21 -35 -76 -51 -122 -17 -47 -40
-91 -53 -101 -98 -80 -121 -126 -147 -299 -18 -123 -22 -135 -49 -160 -19 -17
-50 -30 -88 -38 -32 -6 -82 -18 -111 -26 -58 -16 -83 -14 -342 28 -179 29
-410 35 -525 13 -268 -50 -355 -51 -610 -10 -49 8 -162 21 -250 29 -136 12
-174 12 -250 0 -50 -7 -128 -18 -175 -24 -47 -5 -114 -15 -150 -20 -36 -6
-209 -12 -385 -14 -258 -3 -332 -7 -380 -20 -60 -17 -139 -60 -178 -98 -20
-18 -30 -20 -107 -14 -100 8 -206 20 -312 36 -74 10 -79 10 -131 -14 -30 -14
-76 -30 -103 -35 -83 -16 -313 -23 -429 -13 -104 9 -119 8 -280 -24 -242 -47
-288 -66 -373 -159 -32 -34 -71 -60 -145 -95 -104 -49 -115 -58 -170 -145 -28
-44 -40 -53 -96 -73 -79 -28 -133 -66 -163 -114 -13 -21 -31 -40 -40 -43 -10
-4 -51 5 -90 18 -40 14 -84 28 -98 31 -14 3 -44 24 -66 46 -46 45 -154 130
-164 130 -11 0 -56 90 -75 150 -23 73 -58 139 -89 172 -36 38 -94 61 -222 87
l-111 24 -122 -26 c-180 -39 -218 -64 -281 -184 -21 -40 -52 -80 -86 -108 -82
-71 -93 -95 -103 -230 -9 -124 -6 -149 33 -215 20 -34 28 -42 89 -92 26 -21
33 -41 63 -178 42 -190 68 -247 137 -300 29 -22 65 -55 80 -75 29 -37 99 -78
154 -89 49 -11 108 -59 147 -120 20 -32 54 -67 78 -82 24 -15 68 -44 98 -63
75 -48 188 -163 232 -236 l36 -60 -8 -150 c-8 -144 -18 -247 -41 -439 -6 -49
-8 -114 -4 -145 11 -93 44 -282 60 -344 13 -50 13 -75 3 -174 -11 -108 -15
-120 -51 -177 -22 -34 -47 -65 -56 -70 -9 -5 -41 -34 -71 -66 -58 -60 -129
-118 -177 -144 -44 -23 -81 -63 -107 -114 -31 -60 -94 -121 -137 -132 -110
-28 -149 -44 -208 -84 -72 -49 -196 -109 -251 -121 -58 -12 -141 -56 -181 -95
-41 -39 -88 -56 -279 -100 -138 -32 -249 -100 -289 -177 -16 -30 -51 -182 -51
-219 0 -47 51 -114 119 -158 45 -28 72 -56 106 -107 56 -86 103 -111 262 -145
87 -18 144 -24 247 -24 195 0 436 28 520 60 36 13 70 -6 93 -55 14 -30 15 -51
7 -158 -11 -140 -26 -172 -95 -208 -47 -24 -119 -86 -119 -103 0 -23 -55 -64
-110 -81 -71 -23 -113 -55 -147 -113 -27 -45 -28 -52 -28 -187 0 -128 2 -144
24 -185 34 -65 79 -103 161 -133 29 -11 59 -33 81 -60 20 -23 59 -55 88 -70
47 -26 67 -30 194 -38 86 -6 190 -7 263 -1 147 10 211 37 276 114 27 33 51 51
78 58 59 16 126 84 153 155 17 44 32 66 58 82 94 60 114 89 168 253 27 82 39
103 87 155 75 80 90 112 135 297 43 173 59 213 88 223 52 16 104 144 122 298
13 121 20 142 58 183 24 25 40 32 88 38 111 13 346 76 396 107 58 35 116 52
264 78 216 39 283 67 353 151 32 38 53 53 89 64 26 8 66 23 88 35 42 21 103
76 103 91 0 5 33 37 73 71 93 81 105 96 136 182 23 63 32 75 80 108 62 43 87
77 103 137 7 29 22 53 48 75 l37 31 729 1 c744 2 844 6 1199 46 166 18 304 51
341 80 28 23 140 51 293 74 91 14 191 29 221 34 116 20 226 64 300 120 50 38
105 61 145 61 27 0 45 -11 92 -54 92 -85 150 -109 368 -151 26 -5 49 -46 65
-115 31 -133 115 -242 237 -304 18 -9 72 -27 121 -40 108 -29 136 -43 187 -95
21 -23 44 -41 50 -41 13 0 135 -124 184 -188 54 -69 159 -121 328 -162 24 -6
71 -31 105 -55 100 -71 169 -99 298 -119 58 -10 107 -58 126 -124 25 -85 49
-127 98 -168 25 -20 58 -58 75 -85 39 -60 85 -87 186 -109 200 -46 425 -53
613 -19 203 36 247 55 298 132 l26 40 -12 127 c-9 93 -18 139 -34 171 -26 51
-90 104 -145 119 -46 12 -79 45 -92 93 -17 63 -70 130 -126 160 -48 25 -56 36
-93 110 -31 64 -51 90 -88 117 -65 49 -98 86 -136 155 -85 155 -100 177 -138
210 -23 19 -45 35 -50 35 -15 0 -55 95 -67 160 -7 36 -23 92 -36 125 -13 33
-27 74 -32 90 -9 29 -25 41 -85 63 -14 6 -43 35 -63 66 -35 53 -36 56 -21 84
8 16 27 43 41 60 l26 31 75 -62 c41 -34 81 -76 89 -94 9 -21 22 -33 43 -38 16
-3 40 -18 53 -32 31 -33 83 -66 141 -87 57 -22 79 -46 103 -110 13 -36 42 -75
104 -139 155 -160 213 -189 423 -205 108 -8 142 -7 228 8 141 26 191 44 232
88 53 55 58 71 67 204 7 101 6 133 -9 194 -20 86 -69 172 -126 223 -53 46
-100 123 -115 186 -22 93 -59 171 -109 227 -48 54 -72 103 -104 218 -24 86
-68 145 -131 175 -51 24 -57 30 -88 99 -37 79 -70 111 -148 144 -35 15 -56 34
-83 74 -44 68 -80 88 -247 139 -128 39 -166 55 -234 99 -16 10 -36 19 -43 19
-8 1 -28 7 -45 15 -39 17 -183 52 -255 61 -62 8 -241 69 -261 89 -12 13 -10
21 17 61 29 44 89 216 110 320 6 28 13 161 16 296 5 287 7 292 103 376 69 60
121 148 152 263 12 40 25 78 29 82 16 16 256 66 277 58 11 -4 69 -17 129 -29
115 -23 145 -35 192 -74 58 -49 102 -66 216 -83 199 -29 484 3 568 64 14 10
39 28 55 40 17 12 90 44 164 71 141 53 180 79 209 141 13 27 33 43 90 71 93
46 107 60 148 142 30 58 41 71 77 86 71 31 100 74 146 218 26 83 53 146 76
178 28 40 39 71 56 156 20 102 20 111 5 224 -14 112 -17 120 -49 154 -41 43
-57 73 -98 185 -35 96 -67 132 -153 170 -44 19 -58 33 -93 89 -41 65 -43 66
-160 122 -117 55 -119 57 -244 186 l-125 130 -17 102 c-10 56 -17 105 -17 109
0 4 24 25 53 46 62 47 218 204 254 258 51 74 65 145 58 279 -4 66 -13 134 -20
151 -23 57 -82 103 -159 125 -39 11 -106 31 -149 44 -92 29 -106 30 -212 10
-293 -53 -333 -56 -481 -40 -162 19 -301 43 -329 57 -11 6 -37 26 -59 46 -21
19 -63 45 -93 58 -56 25 -79 27 -243 15z"/>
<path d="M23208 19440 c-26 -16 -52 -38 -57 -49 -19 -34 -81 -61 -201 -87
-187 -39 -263 -73 -330 -146 -35 -39 -83 -57 -289 -114 -91 -25 -144 -52 -196
-103 -27 -27 -72 -60 -100 -74 -62 -31 -219 -184 -241 -235 -9 -20 -25 -73
-36 -117 -21 -84 -73 -185 -96 -185 -7 0 -26 7 -42 15 -36 19 -100 40 -170 55
-67 15 -122 42 -176 86 -58 48 -89 45 -152 -11 -57 -51 -78 -102 -88 -212 -5
-58 -3 -75 14 -108 26 -52 67 -89 122 -113 61 -26 76 -47 85 -116 19 -158 87
-370 130 -406 21 -18 64 -103 100 -200 37 -101 63 -133 137 -169 71 -33 121
-78 158 -140 13 -22 42 -53 64 -69 38 -26 43 -27 175 -27 134 0 136 0 174 29
22 17 52 56 72 95 39 73 78 121 100 121 21 0 53 -35 61 -65 4 -15 -1 -81 -10
-148 -9 -67 -21 -176 -27 -241 -9 -106 -9 -124 7 -165 27 -71 54 -106 109
-142 27 -18 77 -59 110 -91 75 -71 171 -118 247 -119 77 0 129 -12 141 -30 8
-13 1 -25 -31 -57 -40 -40 -43 -48 -68 -178 -6 -34 -72 -106 -123 -135 -77
-44 -98 -86 -116 -223 -18 -132 -14 -157 35 -224 20 -29 49 -50 103 -75 41
-20 83 -48 94 -62 64 -92 123 -131 172 -114 75 26 134 112 181 260 11 35 24
70 29 77 19 30 234 61 536 77 61 3 174 10 252 16 l142 11 58 -27 c95 -43 109
-64 73 -105 -11 -13 -31 -59 -45 -103 -23 -74 -23 -82 -9 -116 18 -42 58 -87
96 -107 15 -8 85 -30 155 -48 l127 -34 52 19 c65 25 124 64 197 131 66 62 68
71 38 186 -31 120 -130 261 -212 303 -22 11 -39 26 -39 34 0 8 21 30 47 50 50
38 78 75 107 142 17 38 17 51 6 165 -17 170 -45 217 -154 262 -53 22 -264 22
-329 0 -52 -18 -107 -73 -107 -107 0 -12 -7 -33 -16 -45 -31 -45 -56 -49 -319
-56 -137 -4 -302 -11 -365 -16 -63 -6 -162 -11 -220 -12 -97 -2 -110 1 -170
28 -116 52 -117 53 -139 204 -6 36 -20 102 -32 145 -12 44 -22 107 -23 140 -1
50 4 68 29 108 19 30 39 50 55 53 59 14 140 48 156 65 23 26 59 24 97 -5 52
-39 173 -78 221 -71 105 14 126 25 126 68 0 29 34 76 63 86 25 9 111 -21 115
-40 1 -8 -14 -23 -35 -34 -26 -14 -40 -31 -50 -59 -7 -21 -23 -58 -35 -82
l-21 -43 35 -58 c69 -111 164 -150 378 -155 105 -3 118 -1 152 20 43 27 70 69
92 144 20 70 45 102 103 131 86 42 126 126 140 293 11 132 -35 219 -141 267
-46 21 -58 33 -85 83 -36 66 -81 105 -150 130 -98 34 -127 49 -158 78 -18 16
-33 34 -33 38 0 18 -54 88 -67 88 -15 0 -54 -38 -107 -104 -42 -53 -106 -71
-342 -100 -278 -34 -322 -42 -439 -79 -55 -17 -102 -31 -105 -32 -3 0 -32 -14
-65 -31 -33 -17 -96 -43 -140 -57 -209 -66 -217 -67 -268 -26 -33 25 -34 41
-5 88 13 20 34 70 49 111 l26 75 79 28 c44 16 117 39 164 52 121 33 152 48
211 104 58 54 124 84 271 121 82 21 168 62 168 80 0 5 9 14 21 21 17 9 25 7
42 -9 28 -26 103 -59 187 -82 266 -74 250 -71 297 -50 70 31 110 68 144 133
l32 62 -31 60 c-37 75 -71 109 -143 146 -63 31 -61 27 -80 167 -12 85 -11 103
5 180 29 134 30 146 11 265 -28 177 -65 233 -182 277 -72 27 -81 35 -103 85
-28 66 -66 101 -153 143 -56 26 -94 53 -120 82 -48 55 -95 90 -121 90 -12 0
-42 -14 -68 -30z m133 -692 c60 -65 70 -89 44 -118 -8 -8 -35 -57 -59 -107
-52 -103 -39 -95 -231 -149 -164 -47 -208 -67 -259 -121 -38 -41 -81 -62 -203
-101 -42 -14 -243 -27 -277 -18 -15 4 -33 20 -42 38 -15 28 -15 41 -5 97 7 36
21 86 33 112 16 40 27 51 66 67 49 21 137 47 256 76 90 23 136 46 194 102 62
60 105 82 234 115 58 15 123 37 144 48 21 12 40 21 42 21 2 0 31 -28 63 -62z
m-1295 -765 c27 -9 55 -21 62 -26 24 -19 51 -83 63 -151 l11 -68 -31 -32 c-18
-18 -51 -39 -73 -47 -66 -22 -123 -65 -143 -109 -24 -53 -51 -54 -64 -2 -23
88 -31 164 -31 291 0 168 5 176 96 167 34 -3 83 -14 110 -23z"/>
<path d="M2895 16063 c-360 -13 -567 -58 -623 -135 -18 -25 -67 -48 -192 -93
-120 -43 -153 -64 -186 -121 -29 -49 -50 -69 -84 -79 -72 -22 -121 -78 -151
-175 -24 -78 -33 -94 -87 -158 -91 -107 -100 -204 -108 -1167 -5 -726 -6 -742
-29 -855 -13 -63 -26 -142 -30 -175 -13 -120 -38 -157 -71 -107 l-18 27 -12
-30 c-16 -37 -18 -117 -3 -132 7 -7 19 -8 38 0 23 8 36 6 72 -11 24 -11 78
-30 120 -42 89 -24 107 -20 159 35 19 20 44 45 55 57 11 11 45 31 75 45 147
64 169 88 206 228 14 55 37 123 51 150 24 50 24 51 8 110 -26 98 -31 190 -11
220 16 24 20 25 126 25 l109 0 38 -41 c21 -22 45 -53 53 -69 22 -42 65 -87
101 -105 17 -9 90 -30 162 -46 72 -16 140 -37 150 -47 10 -9 34 -44 52 -77 19
-33 54 -83 77 -112 39 -47 46 -63 67 -165 35 -163 63 -209 158 -257 50 -25 69
-26 114 -6 74 32 88 57 132 239 34 140 47 166 79 166 10 0 57 10 105 22 l85
21 102 -24 c101 -23 101 -23 166 -89 38 -38 84 -73 110 -84 128 -53 168 -77
195 -116 32 -46 100 -100 126 -100 25 0 65 19 126 58 50 33 71 61 59 81 -3 5
-15 74 -26 153 -10 78 -28 175 -39 213 -11 39 -23 111 -26 160 -9 116 -28 185
-70 249 -52 78 -59 129 -51 379 7 214 17 282 56 362 28 59 70 180 83 241 8 38
22 101 30 139 26 118 40 273 34 379 -8 165 -72 307 -158 352 -39 20 -70 72
-103 170 -27 83 -63 132 -117 159 -14 8 -43 36 -62 63 -51 72 -117 102 -249
113 -92 7 -794 9 -973 2z m380 -703 c42 -43 164 -130 182 -130 6 0 35 11 65
25 30 14 103 38 164 54 116 31 179 54 189 71 16 26 43 8 65 -41 33 -78 36
-141 11 -234 -25 -90 -40 -119 -126 -231 -33 -44 -76 -108 -95 -144 -43 -80
-63 -82 -84 -9 -27 90 -148 239 -194 239 -81 0 -168 -109 -192 -239 -17 -96
-41 -136 -54 -93 -3 9 -10 49 -16 88 -10 76 -14 89 -37 144 -14 32 -67 90 -82
90 -3 0 -17 10 -32 23 l-25 22 9 111 10 111 62 54 c34 30 74 71 89 92 15 20
33 37 40 37 6 0 30 -18 51 -40z m-423 -76 c44 -26 85 -56 93 -68 7 -11 16 -57
20 -101 4 -44 13 -90 21 -102 13 -20 11 -24 -26 -50 -22 -15 -66 -47 -98 -71
-53 -40 -152 -92 -175 -92 -29 0 -117 -56 -128 -82 -10 -26 -16 -28 -68 -30
-46 -1 -153 0 -184 2 -14 0 -47 85 -72 187 l-24 97 45 91 c50 102 81 133 204
205 78 45 89 48 284 58 19 1 57 -15 108 -44z m-502 -878 c78 -24 124 -48 149
-78 20 -25 22 -35 17 -81 -7 -51 -8 -53 -39 -55 -17 -2 -34 -6 -37 -11 -3 -4
-36 -11 -73 -13 l-68 -6 -30 61 c-28 54 -30 64 -20 96 9 32 46 101 53 101 2 0
23 -6 48 -14z m1354 -46 c21 -54 20 -81 -6 -135 -24 -50 -40 -55 -91 -29 -45
24 -57 39 -57 73 0 37 19 81 35 81 6 0 21 11 33 25 34 39 67 33 86 -15z m-624
20 c0 -6 30 -10 71 -10 69 0 99 -12 99 -39 0 -6 5 -11 10 -11 6 0 10 -5 10
-10 0 -13 147 -160 160 -160 5 0 10 -4 10 -10 0 -5 7 -10 15 -10 8 0 15 -7 15
-17 0 -9 3 -14 6 -10 4 3 13 -1 21 -9 13 -13 13 -17 -6 -33 -17 -15 -46 -20
-159 -25 -81 -3 -164 -2 -202 4 -36 6 -183 14 -327 18 -234 7 -286 12 -272 26
5 6 217 25 294 28 52 1 54 2 16 5 l-44 4 6 80 c5 83 20 109 68 124 11 4 19 10
19 14 0 5 13 11 29 14 16 4 35 13 43 21 15 17 118 22 118 6z m624 -516 c9 -3
16 -15 16 -26 0 -29 -44 -20 -48 10 -3 23 4 27 32 16z"/>
<path d="M24603 14902 c-65 -58 -94 -79 -138 -101 -41 -20 -45 -20 -153 -5
-119 16 -104 17 -487 -37 -38 -5 -124 -7 -190 -4 -86 5 -150 2 -225 -9 -58 -8
-172 -22 -255 -31 -82 -8 -172 -21 -200 -29 -103 -27 -216 -101 -237 -155 -6
-16 -7 -72 -3 -141 l7 -115 67 -66 c36 -36 81 -84 99 -107 l33 -42 -16 -74
c-8 -42 -15 -87 -15 -101 0 -54 -70 -164 -104 -165 -19 -1 -65 -48 -86 -88
-20 -39 -20 -44 -7 -149 16 -119 26 -146 66 -178 67 -53 154 -155 182 -211 16
-34 45 -76 64 -93 35 -30 39 -31 131 -31 67 0 96 -4 98 -12 3 -7 7 -25 10 -40
7 -31 36 -39 36 -10 0 10 -7 28 -17 41 -17 25 -31 172 -32 338 -1 71 2 85 22
108 20 24 35 28 136 42 l113 15 131 -28 c145 -31 132 -23 247 -150 20 -21 54
-55 76 -74 37 -32 42 -43 68 -145 38 -151 51 -185 86 -223 45 -47 80 -62 200
-82 94 -17 112 -17 152 -5 92 27 136 65 167 141 11 27 24 36 88 59 66 24 86
38 158 109 45 45 90 97 98 116 29 61 57 152 57 182 0 60 -51 128 -129 170 -32
18 -54 58 -86 158 -24 73 -44 102 -129 182 -142 135 -156 138 -721 138 -419 0
-455 1 -520 20 -103 30 -107 38 -39 89 31 23 68 47 81 52 13 5 133 9 266 9
133 0 337 5 452 11 206 11 213 11 300 -12 168 -43 267 -22 375 78 69 64 108
118 134 186 24 63 23 105 -4 158 -29 57 -63 89 -136 128 -49 26 -71 47 -129
126 -38 52 -76 95 -85 95 -8 0 -34 -17 -57 -38z m-347 -1488 c27 -9 56 -23 64
-30 18 -18 6 -31 -65 -68 -60 -31 -80 -32 -123 -6 -57 35 -53 63 17 100 45 24
46 24 107 4z"/>
<path d="M25503 14480 c-28 -4 -69 -16 -89 -26 -33 -16 -42 -28 -62 -84 -27
-77 -23 -89 50 -155 59 -53 167 -98 223 -93 32 2 42 8 53 31 30 63 23 284 -10
324 -10 13 -83 14 -165 3z"/>
<path d="M10330 12126 c-79 -21 -158 -82 -174 -134 -4 -10 -25 -29 -47 -41
-45 -26 -94 -94 -110 -155 -14 -51 -14 -451 0 -503 15 -55 48 -101 101 -140
25 -19 52 -39 61 -46 8 -6 34 -38 58 -70 23 -31 61 -70 83 -85 41 -26 45 -27
171 -24 133 2 155 8 220 56 15 11 41 41 57 67 41 63 64 82 89 74 11 -3 51 -37
88 -74 79 -79 108 -96 188 -109 140 -24 171 -24 213 -3 46 23 85 67 113 125
30 65 67 99 99 92 37 -7 126 -60 174 -103 43 -40 111 -72 204 -98 60 -17 64
-17 105 1 23 10 72 49 108 86 36 38 73 68 83 68 10 0 34 -19 54 -42 62 -70 85
-90 131 -110 43 -20 46 -20 158 -2 101 16 118 21 152 51 21 17 44 47 50 65 7
18 16 40 21 49 5 9 12 34 15 55 4 22 20 99 36 171 16 73 29 153 29 178 0 101
-92 270 -170 310 -14 7 -77 18 -140 25 l-115 13 -52 -26 c-29 -15 -72 -50
-100 -82 -26 -30 -55 -55 -64 -55 -19 0 -41 23 -62 66 -37 73 -125 134 -242
168 -33 10 -82 25 -110 35 -54 20 -61 19 -120 -20 -64 -43 -86 -68 -118 -138
-44 -98 -65 -102 -93 -18 -9 29 -32 85 -51 125 -18 39 -33 75 -33 78 0 3 -18
28 -41 55 -49 58 -56 59 -195 24 -91 -23 -102 -28 -136 -67 -48 -55 -82 -124
-104 -213 -15 -60 -24 -77 -64 -115 -25 -25 -57 -52 -71 -61 -13 -9 -29 -27
-36 -40 -6 -13 -27 -59 -47 -102 -43 -94 -72 -137 -92 -137 -8 0 -33 19 -54
43 -21 23 -68 60 -104 82 -36 22 -66 45 -66 52 0 7 16 24 36 39 36 28 105 121
118 159 11 35 43 64 103 98 45 25 64 43 85 82 40 75 37 95 -25 159 -60 61 -64
62 -222 70 -62 3 -117 0 -145 -8z"/>
<path d="M14684 12117 c-71 -38 -85 -54 -123 -128 -49 -98 -62 -105 -107 -54
-111 125 -132 135 -286 135 -62 0 -161 5 -220 11 -59 6 -119 8 -134 5 -14 -4
-56 -38 -93 -75 -63 -65 -71 -70 -156 -96 -203 -61 -304 -160 -351 -344 -12
-48 -15 -98 -12 -205 3 -133 5 -145 35 -208 18 -39 53 -89 85 -121 46 -48 64
-59 138 -82 101 -33 160 -34 283 -7 110 25 149 53 188 136 51 109 62 174 54
316 -6 110 -5 132 10 161 28 56 65 99 84 99 24 0 153 40 166 51 5 5 21 9 36 9
22 0 31 -8 50 -47 28 -60 31 -166 8 -298 -18 -102 -10 -223 17 -280 18 -38
116 -105 153 -105 16 0 41 16 71 48 50 52 156 116 180 108 116 -38 237 -89
258 -109 42 -39 123 -75 198 -88 82 -14 433 -6 479 11 50 19 111 77 135 127
27 58 58 103 71 103 5 0 22 -26 38 -58 38 -76 111 -156 159 -175 21 -8 91 -19
155 -23 107 -6 121 -5 178 16 42 16 77 39 111 73 56 56 59 56 193 18 39 -11
77 -21 86 -21 9 0 37 16 63 36 52 39 95 115 116 201 9 39 20 60 46 80 19 16
49 41 68 56 64 52 84 101 95 232 12 155 0 185 -97 242 -50 30 -88 28 -237 -12
-49 -13 -133 -31 -185 -40 -122 -21 -256 -53 -297 -71 -49 -22 -241 -8 -308
22 -50 22 -76 30 -275 85 -92 25 -122 28 -248 29 -138 0 -145 -1 -190 -27 -26
-15 -59 -40 -75 -57 l-27 -30 6 -123 c7 -121 7 -123 -20 -163 -33 -51 -56 -51
-91 0 -27 39 -27 42 -23 157 l5 118 -41 109 c-62 165 -127 225 -278 261 -82
19 -95 18 -144 -8z"/>
<path d="M5442 10509 c-51 -20 -95 -57 -140 -118 -13 -17 -30 -31 -37 -31 -28
0 -101 -87 -119 -141 -28 -85 -39 -253 -33 -514 8 -329 26 -392 132 -475 33
-27 67 -60 74 -73 34 -63 175 -107 344 -107 121 0 183 11 297 54 176 65 211
80 226 98 25 26 38 23 65 -19 13 -21 42 -49 64 -64 65 -45 110 -52 263 -46 75
4 179 3 231 -2 113 -10 165 0 228 43 69 47 84 84 73 171 -5 39 -16 197 -24
352 -13 243 -18 288 -35 322 -30 58 -75 97 -137 120 -84 32 -107 46 -162 99
-50 48 -52 49 -128 55 -158 14 -177 11 -233 -33 -27 -22 -54 -48 -59 -57 -15
-28 -34 -176 -41 -320 -7 -149 -5 -145 -96 -187 -86 -39 -136 -99 -170 -204
-19 -60 -36 -71 -74 -50 -14 8 -63 23 -109 33 -88 20 -95 24 -154 105 -19 25
-56 59 -83 77 -97 63 -89 48 -95 174 -7 151 -3 161 75 200 41 20 85 54 125 95
l62 64 108 0 c94 0 111 3 134 21 33 26 60 77 80 154 18 71 8 103 -51 150 -62
49 -151 66 -363 71 -170 4 -189 2 -238 -17z"/>
<path d="M10080 10521 c-83 -26 -190 -112 -190 -153 0 -23 35 -140 56 -187 13
-29 13 -51 3 -150 -17 -173 -33 -264 -46 -268 -7 -3 -16 18 -23 51 -20 99 -77
161 -166 180 -17 4 -51 25 -75 47 -24 22 -62 52 -84 67 -22 15 -54 42 -70 60
-29 32 -36 34 -145 48 -132 18 -151 14 -257 -48 -35 -21 -81 -42 -101 -48 -96
-26 -155 -102 -182 -237 -7 -32 -19 -73 -26 -92 -13 -30 -16 -33 -29 -20 -8 8
-22 50 -31 94 -31 150 -76 202 -212 245 -24 7 -60 30 -80 50 -52 51 -96 80
-122 80 -33 0 -83 -27 -130 -70 -62 -57 -90 -66 -164 -51 -33 7 -74 21 -91 31
-60 38 -92 47 -200 59 -125 13 -146 9 -235 -43 -33 -20 -80 -41 -104 -47 -61
-15 -114 -63 -143 -127 -22 -51 -24 -72 -33 -326 -9 -255 -14 -331 -26 -417
-5 -31 0 -42 28 -74 32 -37 136 -95 170 -95 25 0 98 39 131 69 39 35 52 64 65
141 22 130 23 165 11 267 -14 120 -6 153 36 153 36 0 68 -36 62 -69 -27 -140
-31 -184 -19 -261 6 -43 21 -100 34 -127 21 -43 31 -52 102 -87 92 -45 248
-90 280 -80 33 11 84 53 106 89 28 45 52 230 48 380 -2 129 4 153 47 181 30
19 45 11 69 -40 12 -26 14 -51 10 -112 -8 -97 11 -312 32 -376 21 -63 92 -128
141 -128 44 0 137 44 163 77 11 14 28 48 37 75 10 26 22 47 27 45 14 -5 33
-83 46 -191 20 -155 40 -249 66 -306 32 -69 89 -130 124 -130 34 0 114 62 167
130 24 30 61 75 82 100 21 25 41 55 45 67 14 43 66 74 225 134 50 19 89 56
117 110 28 56 52 74 112 83 72 11 120 41 138 86 9 22 20 40 24 40 5 0 18 -43
30 -95 18 -75 29 -102 56 -134 33 -38 125 -91 159 -91 34 0 142 59 180 99 21
22 43 41 47 41 4 0 19 -18 33 -41 20 -31 43 -48 98 -75 39 -19 81 -34 93 -34
28 0 101 50 125 86 34 51 42 104 48 326 6 211 7 217 30 242 14 14 29 26 34 26
5 0 24 -15 43 -34 l34 -34 0 -151 c0 -174 14 -291 42 -341 11 -19 38 -50 62
-67 l42 -33 115 19 c68 11 121 15 130 10 21 -11 44 -68 58 -142 18 -96 60
-160 137 -210 21 -14 52 -39 68 -56 16 -17 61 -44 100 -60 59 -24 91 -30 193
-35 108 -6 132 -5 200 14 42 12 95 34 117 48 44 27 159 124 188 157 28 33 78
134 78 158 0 12 -12 72 -26 134 -23 99 -31 118 -65 157 -24 27 -64 56 -102 74
-70 34 -110 71 -105 99 2 11 33 33 83 58 106 53 136 95 161 232 34 177 21 276
-43 338 -20 19 -40 35 -44 35 -4 0 -49 20 -101 44 -135 64 -190 75 -324 66
-124 -9 -142 -15 -179 -64 -37 -48 -150 -121 -220 -141 -70 -20 -126 -47 -144
-69 -21 -26 -37 -19 -64 27 -33 56 -89 113 -135 136 -20 11 -47 28 -59 40 -24
23 -184 71 -235 71 -42 0 -130 -32 -177 -64 -20 -13 -61 -32 -91 -41 -98 -31
-127 -53 -162 -122 -18 -34 -36 -63 -39 -63 -3 0 -26 46 -52 103 -44 98 -45
104 -37 162 16 118 12 184 -14 230 -45 76 -114 108 -186 86z m-801 -797 c65
-22 81 -33 81 -52 -1 -24 -138 -168 -149 -156 -5 5 -19 42 -30 81 -18 59 -20
77 -10 95 28 54 37 57 108 32z m2259 -267 c2 -10 -2 -32 -9 -49 l-12 -30 -18
23 c-22 28 -24 50 -7 67 17 17 42 11 46 -11z"/>
<path d="M13252 10515 c-161 -36 -267 -155 -323 -362 -12 -43 -32 -93 -46
-111 -55 -73 -73 -135 -73 -247 0 -113 11 -153 62 -235 16 -25 40 -83 55 -130
36 -119 99 -239 148 -283 75 -66 221 -100 412 -95 164 4 225 23 300 94 27 24
54 42 61 39 7 -3 57 -12 110 -21 53 -9 118 -27 143 -40 101 -50 154 -57 409
-49 208 6 244 10 311 31 42 13 95 38 119 55 l43 31 23 -29 c25 -33 117 -78
179 -88 49 -7 92 17 141 81 27 37 32 54 42 145 7 57 15 156 18 219 8 149 16
181 53 203 16 9 38 17 48 17 34 0 123 51 149 86 15 19 34 34 43 34 33 0 98
-130 87 -174 -3 -14 -34 -46 -67 -73 -101 -79 -139 -122 -139 -157 0 -39 32
-99 81 -153 20 -22 47 -61 59 -85 30 -59 66 -95 124 -125 45 -23 59 -25 155
-22 140 4 176 3 307 -1 104 -4 113 -3 166 23 35 17 65 41 81 65 l26 37 -6 160
c-6 176 11 335 36 335 18 0 74 -194 86 -293 4 -32 13 -74 21 -93 16 -37 66
-74 101 -74 15 0 29 -13 45 -42 26 -49 99 -102 161 -119 39 -11 118 -5 214 15
54 11 112 46 144 87 41 50 52 84 74 224 24 153 54 270 75 292 11 13 38 23 71
27 30 4 59 12 66 18 7 6 13 7 13 4 0 -4 6 -1 14 7 25 24 25 174 1 228 -24 54
-32 63 -81 88 -38 20 -113 34 -241 46 -123 11 -180 -41 -238 -216 -21 -63 -41
-118 -46 -123 -16 -17 -35 13 -58 91 -13 43 -30 100 -38 126 -24 79 -97 147
-156 147 -39 0 -136 -37 -180 -70 -49 -36 -51 -36 -111 -9 -26 11 -75 25 -109
30 -78 13 -160 50 -182 82 -9 14 -34 37 -55 52 -35 24 -45 26 -92 20 -170 -21
-299 -63 -318 -105 -4 -8 -14 -28 -21 -45 -19 -41 -49 -83 -65 -89 -8 -3 -26
13 -44 39 -49 71 -115 92 -298 94 -66 1 -140 -3 -165 -10 -106 -26 -167 -123
-167 -267 0 -115 -19 -352 -29 -370 -12 -22 -16 -5 -37 168 -28 239 -53 294
-154 342 -25 12 -65 40 -90 63 -25 23 -59 50 -75 60 -17 11 -43 34 -60 52 -37
39 -63 49 -175 68 -66 10 -98 11 -127 3 -52 -14 -143 -76 -154 -104 -4 -13
-16 -79 -25 -146 -9 -68 -24 -160 -34 -206 -18 -82 -19 -84 -87 -150 -56 -55
-72 -77 -86 -123 -9 -31 -17 -70 -17 -87 0 -55 -21 -132 -36 -132 -7 0 -20 14
-29 30 -22 43 -76 74 -190 110 -55 17 -131 48 -170 68 -63 33 -73 43 -99 95
-25 51 -30 73 -34 164 -3 63 0 126 7 158 15 68 62 135 94 135 24 0 127 31 182
55 17 7 59 23 95 35 88 31 103 41 151 107 29 38 43 69 47 98 4 41 3 43 -52 88
-95 78 -143 91 -341 94 -119 1 -189 -2 -233 -12z"/>
<path d="M19770 10501 c-87 -59 -105 -122 -75 -281 12 -68 12 -80 -5 -135 -10
-33 -30 -98 -44 -145 -28 -93 -49 -131 -64 -115 -6 6 -20 46 -31 89 -12 43
-34 96 -49 117 -26 37 -105 89 -134 89 -8 0 -41 16 -74 37 -32 20 -81 47 -107
61 l-49 25 -66 -18 c-74 -19 -119 -38 -172 -70 -19 -12 -56 -30 -81 -39 -55
-21 -98 -63 -132 -126 -26 -49 -25 -48 -122 -37 -27 3 -64 6 -82 6 -33 1 -54
17 -106 85 -15 19 -54 54 -86 75 -32 22 -61 46 -64 54 -5 15 -106 49 -194 66
-37 8 -61 7 -85 -1 -45 -15 -135 -75 -142 -95 -4 -9 -11 -75 -16 -147 -10
-129 -27 -267 -37 -292 -2 -7 -23 -16 -46 -20 -23 -4 -44 -9 -47 -10 -3 -1
-15 -5 -28 -9 -34 -11 -49 -50 -57 -145 -7 -91 18 -259 48 -317 44 -84 91
-110 227 -124 126 -13 452 -6 535 11 28 6 66 13 85 16 46 7 127 29 167 45 28
11 34 11 52 -5 23 -21 159 -66 199 -66 35 0 104 50 131 94 30 47 44 159 43
336 -2 165 4 194 45 224 25 18 25 18 52 -8 l26 -26 6 -213 c4 -116 10 -225 14
-242 24 -95 93 -165 161 -165 45 0 149 43 196 81 l27 22 53 -25 c30 -14 82
-34 116 -43 59 -17 65 -17 125 -1 34 10 86 29 116 42 47 22 59 24 80 14 83
-38 151 -52 278 -57 72 -3 142 -3 155 0 31 8 81 54 101 92 25 50 39 178 36
332 l-4 144 40 34 c22 19 45 34 51 35 6 0 21 -12 35 -26 24 -25 24 -30 30
-254 6 -216 8 -231 32 -283 17 -38 39 -65 69 -87 42 -31 45 -31 138 -28 123 4
120 -2 120 228 0 151 3 181 20 218 10 23 23 42 28 42 15 0 56 -93 55 -125 -5
-117 -26 -251 -52 -330 -32 -95 -37 -125 -22 -140 5 -6 24 -39 43 -75 44 -86
130 -192 177 -218 21 -12 82 -31 137 -43 92 -21 108 -22 227 -11 152 14 181
26 259 104 33 34 79 68 110 81 57 26 101 64 126 112 34 62 9 235 -46 325 -18
28 -50 60 -89 85 -80 52 -133 101 -133 122 0 9 44 64 98 122 117 127 129 144
153 230 27 93 24 137 -11 208 -38 75 -75 105 -165 131 -39 11 -95 30 -125 41
-73 26 -194 58 -251 66 -58 8 -91 -7 -158 -74 -34 -34 -66 -54 -102 -66 -118
-39 -162 -73 -205 -157 -13 -27 -28 -48 -32 -48 -4 0 -22 24 -39 54 -41 68
-83 100 -189 141 -54 21 -101 48 -128 73 -76 70 -89 75 -148 64 -95 -18 -172
-43 -208 -66 -57 -37 -211 -106 -237 -106 -36 0 -114 21 -148 40 -37 21 -42
43 -17 75 24 31 57 165 48 199 -13 51 -62 93 -134 115 -37 11 -83 23 -102 26
-19 3 -46 8 -60 11 -18 3 -39 -4 -70 -25z"/>
<path d="M11920 7722 c-71 -27 -111 -51 -166 -101 -28 -25 -74 -65 -101 -88
-28 -24 -66 -65 -83 -92 -37 -56 -51 -65 -139 -82 -37 -7 -75 -22 -91 -36 -29
-24 -90 -139 -90 -169 0 -9 15 -33 33 -54 17 -21 47 -57 66 -80 19 -23 58 -58
87 -76 30 -19 54 -37 54 -41 0 -3 -9 -20 -19 -37 -27 -44 -61 -153 -61 -196 0
-20 9 -78 20 -130 24 -111 49 -150 98 -150 22 0 82 26 92 40 9 11 96 50 114
50 9 0 69 12 132 26 l116 27 58 -28 c33 -16 82 -52 112 -82 29 -29 58 -53 65
-53 15 0 92 52 116 78 43 47 60 199 44 378 l-9 91 32 37 c18 20 57 49 88 66
66 35 118 104 108 143 -11 46 -55 134 -81 165 -42 51 -75 64 -132 53 -86 -17
-161 -20 -172 -8 -5 7 -23 50 -39 97 -51 148 -90 212 -154 253 -33 20 -40 20
-98 -1z"/>
<path d="M15160 7722 c-39 -27 -56 -50 -116 -159 -30 -57 -60 -105 -65 -109
-5 -3 -24 -7 -43 -9 -50 -4 -195 -52 -251 -83 -27 -15 -62 -45 -77 -67 -31
-45 -55 -137 -45 -177 10 -38 82 -105 135 -124 55 -19 102 -65 101 -97 0 -12
-7 -56 -15 -97 -12 -65 -31 -231 -37 -324 -2 -35 11 -40 147 -57 87 -11 88
-11 115 15 29 28 169 96 198 96 27 0 141 -50 198 -87 l50 -32 113 11 c72 7
116 16 119 24 6 17 -22 239 -46 358 -26 124 -19 142 65 177 69 27 118 69 145
120 16 32 18 46 10 81 -29 129 -49 147 -268 244 -17 8 -53 17 -79 21 -37 5
-55 14 -86 46 -21 22 -38 43 -38 48 0 12 -65 120 -87 145 -49 55 -97 67 -143
36z"/>
<path d="M13527 7259 c-29 -24 -54 -63 -97 -154 -31 -67 -63 -125 -69 -129 -6
-4 -61 -2 -122 4 l-111 12 -39 -38 c-71 -69 -120 -245 -86 -310 19 -36 52 -67
97 -89 38 -19 87 -60 101 -87 6 -11 3 -60 -6 -133 -25 -188 3 -282 98 -339 25
-14 52 -26 60 -26 9 0 61 25 118 55 105 57 135 63 199 45 19 -6 85 -19 146
-29 121 -21 176 -40 212 -74 18 -17 27 -19 40 -11 23 15 77 128 97 203 14 56
14 66 0 107 -18 55 -52 106 -88 134 -15 12 -27 31 -27 44 0 19 11 27 63 46 70
25 124 75 171 155 l29 49 -22 92 c-13 51 -30 101 -39 111 -18 20 -110 66 -153
76 -32 8 -225 151 -294 217 -63 61 -124 93 -189 98 -46 3 -55 0 -89 -29z"/>
<path d="M10275 5619 c-33 -11 -78 -28 -101 -38 -77 -36 -182 -176 -200 -266
-9 -47 48 -105 155 -159 105 -52 149 -82 157 -110 3 -12 26 -62 51 -112 l44
-90 -11 -100 c-6 -54 -16 -116 -22 -137 -14 -46 -86 -115 -156 -151 l-51 -26
-98 20 c-139 28 -144 27 -192 -25 -22 -24 -41 -46 -41 -49 0 -2 -9 -52 -21
-111 -16 -84 -18 -112 -10 -134 17 -41 62 -87 106 -109 22 -11 57 -38 78 -60
l39 -40 -4 -123 -3 -124 -46 -96 c-35 -72 -56 -103 -85 -124 -73 -54 -97 -80
-125 -140 -33 -68 -36 -110 -14 -203 20 -84 35 -111 86 -151 53 -43 118 -65
240 -82 106 -14 130 -27 248 -135 65 -59 69 -61 158 -77 50 -9 105 -17 123
-17 38 0 89 29 116 66 67 94 112 124 219 148 122 27 156 43 220 106 37 36 91
75 140 101 92 47 120 70 145 119 28 54 60 86 115 114 72 37 100 64 130 123 34
69 69 110 115 133 80 41 119 114 160 302 19 85 26 101 53 123 98 78 112 112
133 316 10 105 14 228 12 362 -3 198 -4 203 -30 247 -53 90 -104 110 -284 110
-118 0 -142 -3 -221 -29 -48 -15 -128 -41 -178 -56 -49 -15 -96 -33 -103 -38
-7 -6 -59 -13 -115 -17 -56 -4 -109 -10 -118 -14 -24 -11 -41 18 -93 149 -71
181 -86 211 -123 247 -19 18 -48 59 -64 90 -16 31 -43 73 -60 93 -53 59 -195
148 -279 173 -90 27 -117 27 -195 1z m930 -829 l103 0 95 -76 c52 -41 100 -87
106 -102 6 -15 18 -74 26 -131 15 -100 15 -104 -5 -136 -11 -18 -39 -42 -63
-53 -23 -11 -73 -41 -112 -66 l-70 -47 -115 7 c-129 7 -150 16 -180 73 -41 81
-39 105 36 411 27 111 39 134 61 125 8 -3 61 -5 118 -5z m30 -698 c74 -10 80
-28 79 -226 -2 -180 -1 -178 -85 -207 -68 -24 -120 -60 -144 -101 -10 -18 -50
-65 -89 -105 -83 -87 -105 -119 -135 -196 -16 -40 -30 -59 -45 -62 -92 -21
-120 -24 -186 -24 -90 0 -266 31 -286 50 -15 15 -33 126 -34 201 0 40 4 50 31
72 17 14 37 26 45 26 45 0 132 44 179 90 l50 49 115 3 c107 3 115 4 115 23 0
13 -13 27 -37 40 -31 17 -39 28 -49 70 -20 84 -16 124 19 200 53 111 39 105
236 104 94 0 193 -4 221 -7z"/>
<path d="M16670 4771 c-138 -10 -171 -32 -233 -156 -35 -71 -70 -114 -121
-148 -51 -35 -76 -87 -96 -202 -16 -95 -17 -113 -4 -154 20 -69 49 -108 100
-141 26 -16 52 -37 59 -47 7 -10 25 -79 39 -152 29 -148 65 -240 107 -274 15
-12 36 -29 46 -37 26 -20 47 -77 84 -227 35 -145 51 -176 117 -231 63 -52 76
-58 188 -87 83 -22 104 -24 153 -16 31 6 85 15 121 21 58 9 69 14 117 62 74
73 101 116 134 209 18 49 44 99 68 127 39 47 81 121 81 143 0 18 -79 107 -101
114 -24 8 -103 -18 -185 -62 l-62 -32 -53 26 c-73 36 -88 42 -134 51 -35 7
-44 15 -67 57 -27 48 -28 55 -28 208 0 170 7 201 52 225 13 7 33 27 46 45 12
18 43 55 68 82 25 28 62 84 81 125 l34 75 -21 75 c-38 132 -104 212 -222 268
-113 53 -196 65 -368 53z m239 -600 c74 -38 67 -56 -29 -73 -61 -10 -64 -10
-82 12 -24 29 -23 49 3 76 23 25 32 23 108 -15z"/>
<path d="M15385 4332 c-53 -25 -89 -69 -116 -142 -24 -65 -41 -85 -102 -116
-49 -24 -102 -89 -117 -142 -15 -56 -12 -267 5 -342 30 -130 76 -247 118 -297
21 -26 43 -58 48 -71 18 -46 47 -248 53 -360 10 -171 52 -240 179 -288 38 -15
83 -39 101 -53 73 -63 93 -72 203 -86 59 -8 120 -15 135 -15 34 0 86 51 178
174 36 48 79 97 97 108 17 12 39 35 48 51 16 27 16 31 -10 110 -48 146 -55
152 -122 118 -21 -10 -71 -22 -112 -25 -67 -6 -76 -4 -98 15 -13 13 -34 57
-48 103 -14 45 -50 121 -80 171 -92 151 -102 178 -122 319 -17 128 -17 128 4
165 24 41 37 49 150 91 104 39 157 87 166 151 3 24 10 73 16 108 5 36 7 70 3
77 -4 7 -40 41 -80 77 -95 86 -149 104 -327 112 -115 5 -135 4 -170 -13z"/>
<path d="M12575 4106 c-177 -57 -224 -87 -294 -189 -32 -46 -67 -83 -97 -101
-88 -56 -104 -127 -124 -546 -6 -129 -20 -304 -31 -388 -26 -210 -26 -342 2
-392 24 -43 81 -82 153 -106 61 -21 135 -63 150 -87 8 -12 7 -22 -2 -38 -32
-50 52 -71 248 -60 155 8 203 24 169 58 -17 17 -3 45 56 109 31 32 62 70 71
84 9 14 31 36 50 50 18 14 34 32 34 41 0 9 -24 39 -54 67 -55 52 -84 64 -184
77 -41 5 -61 15 -88 40 l-36 34 4 128 c3 117 5 133 31 183 16 30 48 75 72 100
24 25 47 58 51 73 9 40 43 58 126 67 106 12 213 51 267 96 17 14 47 57 66 95
19 38 54 95 77 125 24 31 47 62 52 69 13 18 -36 62 -83 75 -20 5 -55 10 -78
10 -50 0 -63 14 -122 133 -68 137 -94 157 -252 192 -134 30 -144 30 -234 1z
m135 -621 c25 -30 6 -132 -23 -122 -15 5 -46 66 -47 93 0 40 45 59 70 29z"/>
<path d="M14265 4110 c-91 -22 -162 -80 -191 -155 -16 -42 -16 -53 0 -172 17
-136 46 -216 104 -285 25 -29 27 -40 33 -157 6 -113 33 -272 58 -341 17 -48
41 -186 61 -360 23 -194 33 -247 57 -293 9 -18 16 -54 17 -82 l1 -50 45 -12
c50 -13 279 -8 343 8 37 10 49 33 27 55 -6 6 -3 19 8 35 9 15 29 44 43 65 40
61 62 138 56 196 -7 54 -47 151 -77 183 -10 11 -39 67 -65 125 -47 104 -48
107 -57 250 -4 80 -11 291 -14 470 -3 179 -7 334 -9 345 -7 32 -65 86 -121
111 -27 12 -95 32 -150 43 -139 30 -136 29 -169 21z"/>
<path d="M13516 4055 c-114 -48 -141 -94 -150 -253 -5 -98 -3 -119 13 -150 36
-73 50 -177 56 -447 4 -143 10 -298 14 -345 4 -47 4 -139 0 -205 -7 -103 -6
-132 11 -203 11 -45 27 -97 37 -115 9 -17 17 -52 17 -76 1 -40 4 -45 31 -54
17 -6 118 -10 226 -11 240 -1 240 -1 243 94 1 36 8 106 15 155 11 79 11 99 -4
165 -13 57 -19 164 -27 451 l-10 375 25 140 c19 110 23 155 18 215 -4 41 -10
79 -13 85 -4 5 -42 9 -85 8 -109 -2 -117 1 -146 54 -32 60 -70 95 -127 121
-57 26 -72 26 -144 -4z"/>
</g>
</svg>
