<svg xmlns="http://www.w3.org/2000/svg" viewBox="0 0 2016.000000 1878.000000" width="2016.000000" height="1878.000000">
<circle cx="1029.5" cy="1015.0" r="819.1" fill="#2C2E33"/>
<g transform="translate(0.000000,1878.000000) scale(0.100000,-0.100000)"
fill="#29a9e0" stroke="none">
<path d="M9635 16640 c-418 -10 -485 -17 -485 -50 0 -21 -6 -22 -155 -45 -164
-25 -348 -62 -450 -90 -49 -14 -139 -36 -200 -50 -229 -52 -362 -88 -425 -115
-36 -16 -113 -42 -171 -59 -125 -36 -232 -76 -274 -101 -16 -9 -88 -37 -160
-60 -71 -23 -159 -59 -195 -80 -36 -21 -99 -50 -140 -65 -120 -44 -151 -58
-193 -89 -23 -16 -88 -49 -146 -73 -58 -24 -121 -56 -139 -69 -18 -14 -76 -46
-129 -71 -53 -25 -112 -60 -132 -78 -20 -18 -79 -55 -132 -84 -53 -28 -105
-61 -115 -72 -10 -12 -53 -38 -94 -59 -41 -21 -88 -52 -105 -69 -16 -18 -66
-53 -110 -78 -44 -26 -103 -68 -131 -94 -28 -26 -72 -58 -98 -70 -26 -12 -63
-40 -84 -64 -20 -23 -58 -54 -84 -68 -25 -15 -62 -45 -81 -67 -19 -22 -60 -59
-92 -81 -64 -44 -200 -164 -280 -245 -27 -28 -72 -68 -100 -89 -27 -20 -59
-50 -70 -65 -11 -15 -46 -49 -78 -74 -31 -26 -57 -51 -57 -57 0 -5 -35 -45
-77 -89 -98 -99 -201 -212 -271 -299 -30 -36 -69 -81 -88 -99 -18 -18 -45 -54
-60 -80 -15 -26 -47 -64 -71 -86 -24 -21 -57 -64 -73 -95 -16 -32 -44 -70 -64
-84 -19 -15 -49 -53 -66 -85 -17 -32 -61 -97 -99 -145 -38 -47 -74 -101 -80
-119 -6 -18 -27 -49 -46 -68 -19 -19 -54 -76 -79 -127 -25 -51 -60 -109 -79
-130 -45 -51 -63 -83 -87 -147 -12 -30 -33 -70 -48 -89 -31 -38 -81 -137 -107
-211 -10 -26 -30 -63 -46 -81 -32 -36 -64 -105 -98 -207 -12 -37 -36 -86 -53
-109 -43 -59 -64 -111 -97 -236 -20 -74 -39 -124 -64 -160 -36 -54 -62 -127
-97 -277 -11 -50 -34 -113 -50 -140 -34 -60 -63 -160 -90 -310 -11 -61 -38
-162 -60 -225 -25 -75 -46 -164 -59 -251 -12 -74 -30 -193 -40 -264 -20 -130
-41 -183 -56 -137 -9 29 -21 26 -30 -6 -4 -16 -10 -482 -12 -1038 -4 -922 3
-1344 20 -1362 4 -4 14 2 22 13 15 18 15 18 29 1 8 -11 18 -38 21 -60 4 -23
16 -76 26 -117 10 -41 27 -149 39 -240 23 -184 44 -278 70 -324 25 -43 56
-153 90 -316 21 -105 36 -153 63 -201 20 -36 53 -125 76 -203 27 -95 49 -152
71 -182 23 -32 40 -78 64 -174 20 -81 41 -141 55 -158 46 -57 82 -118 92 -157
27 -106 45 -149 79 -188 46 -52 63 -85 86 -166 12 -44 31 -82 60 -117 49 -59
65 -89 88 -161 12 -37 30 -63 57 -87 29 -25 52 -60 84 -132 30 -67 56 -109 79
-129 20 -17 47 -58 65 -96 19 -43 42 -77 65 -95 20 -16 55 -63 78 -104 22 -41
63 -97 89 -125 27 -28 60 -77 73 -107 18 -41 37 -65 69 -87 25 -17 50 -44 57
-63 19 -49 57 -96 90 -113 17 -9 39 -34 51 -58 11 -23 48 -70 82 -105 34 -34
92 -95 128 -135 116 -126 443 -456 464 -467 11 -6 32 -28 47 -49 15 -22 54
-56 85 -77 32 -21 60 -42 62 -47 10 -25 68 -80 109 -103 26 -14 59 -43 74 -64
18 -25 48 -50 86 -69 38 -19 68 -43 86 -69 19 -27 49 -51 93 -74 36 -18 92
-57 125 -86 32 -29 85 -66 118 -82 32 -16 68 -43 79 -59 12 -17 53 -45 97 -67
42 -21 91 -52 108 -69 43 -44 101 -80 168 -105 33 -12 67 -33 80 -49 32 -39
60 -55 159 -91 63 -22 96 -41 118 -65 37 -42 61 -54 169 -90 56 -18 97 -39
127 -65 45 -39 79 -54 203 -91 40 -12 86 -32 102 -45 38 -32 117 -67 215 -94
44 -12 117 -42 162 -66 59 -32 122 -55 220 -80 76 -19 172 -50 213 -69 84 -38
136 -52 328 -90 73 -15 165 -40 203 -56 93 -40 182 -61 432 -103 115 -20 212
-38 217 -41 5 -3 7 -12 4 -20 -10 -24 36 -34 214 -45 217 -13 1754 -13 2029 0
220 11 269 19 259 45 -6 16 27 27 139 45 157 25 325 63 405 92 47 17 156 45
242 64 172 36 241 56 363 103 44 16 125 42 180 56 121 31 139 38 235 85 41 20
120 51 175 69 111 37 141 51 200 92 22 15 85 41 139 59 113 35 125 41 184 86
23 17 85 49 138 69 58 23 112 51 138 74 26 23 82 53 137 75 62 25 108 51 134
75 22 21 69 52 105 69 36 16 88 48 115 71 28 22 89 61 136 86 47 25 95 59 108
75 12 17 47 42 76 56 30 15 85 53 122 86 37 33 92 74 121 90 29 17 67 48 84
69 17 21 50 48 74 59 58 28 91 56 109 90 8 15 39 42 69 59 34 19 66 48 86 76
17 25 49 54 70 65 22 11 52 36 67 57 35 45 60 69 111 108 22 17 46 41 54 54 7
14 36 43 65 65 28 23 67 61 86 86 19 25 51 57 70 70 20 14 46 42 59 64 24 41
45 63 103 110 20 16 45 46 55 67 11 20 38 50 61 66 28 18 54 49 77 91 21 38
45 68 63 77 17 9 45 43 68 84 22 37 56 80 75 94 18 15 55 64 81 109 26 46 65
101 86 123 21 22 50 66 64 98 16 34 41 68 62 84 25 20 48 53 75 113 22 47 56
105 77 130 38 45 71 109 85 164 4 16 28 50 54 75 41 39 52 59 77 139 25 79 38
102 78 144 26 27 47 55 47 61 0 7 13 54 29 105 21 64 40 105 63 130 26 29 39
60 61 142 30 114 61 190 77 190 17 0 37 53 59 158 11 56 25 111 31 122 6 11
15 43 20 72 7 36 18 59 36 73 23 18 25 29 33 140 5 66 14 134 21 151 17 46 9
128 -12 132 -29 5 -40 -36 -49 -181 -8 -133 -10 -142 -35 -168 -15 -16 -36
-29 -48 -31 -29 -4 -63 -60 -76 -126 -18 -96 -53 -194 -73 -211 -43 -35 -58
-58 -73 -111 -49 -166 -57 -186 -99 -230 -33 -36 -49 -67 -75 -145 -25 -74
-42 -109 -72 -141 -22 -24 -57 -83 -82 -140 -26 -59 -58 -113 -79 -134 -19
-19 -51 -69 -71 -111 -20 -42 -60 -103 -90 -137 -36 -41 -62 -82 -77 -122 -16
-44 -33 -70 -60 -92 -23 -18 -51 -57 -71 -97 -18 -36 -60 -95 -93 -131 -33
-36 -73 -91 -89 -122 -16 -32 -33 -58 -37 -58 -19 0 -72 -57 -99 -109 -20 -38
-42 -63 -65 -76 -21 -10 -48 -40 -66 -69 -17 -28 -56 -77 -88 -108 -31 -32
-90 -94 -131 -139 -41 -45 -97 -103 -125 -130 -27 -26 -53 -52 -58 -56 -4 -4
-27 -28 -50 -53 -24 -25 -83 -81 -131 -125 -48 -44 -113 -105 -144 -136 -32
-31 -75 -68 -98 -82 -23 -14 -55 -43 -72 -65 -18 -22 -51 -49 -74 -61 -53 -25
-68 -37 -97 -79 -12 -18 -45 -44 -72 -58 -28 -14 -76 -48 -107 -77 -31 -29
-91 -71 -132 -94 -41 -23 -88 -56 -105 -73 -16 -18 -58 -45 -91 -60 -34 -15
-79 -46 -100 -68 -23 -23 -80 -60 -139 -90 -55 -27 -111 -61 -124 -76 -13 -14
-57 -39 -97 -56 -88 -37 -140 -65 -174 -97 -14 -12 -64 -38 -111 -56 -47 -18
-112 -52 -144 -74 -33 -22 -91 -50 -130 -63 -85 -27 -169 -66 -211 -97 -17
-13 -90 -43 -162 -67 -78 -25 -154 -58 -184 -79 -39 -26 -79 -41 -153 -57
-123 -28 -225 -62 -282 -95 -23 -14 -85 -35 -136 -46 -151 -32 -287 -68 -377
-100 -58 -21 -171 -45 -355 -75 -148 -25 -295 -51 -326 -59 -157 -41 -331 -62
-749 -90 -267 -19 -802 -21 -1035 -6 -82 6 -226 15 -320 21 -202 13 -262 21
-420 60 -113 28 -290 58 -555 95 -88 13 -137 26 -210 57 -55 23 -137 49 -195
60 -212 40 -257 52 -294 78 -47 34 -100 53 -244 85 -91 21 -129 35 -170 62
-75 50 -90 57 -211 88 -83 22 -118 37 -147 61 -22 18 -65 42 -97 54 -160 59
-191 72 -208 91 -25 27 -55 42 -160 80 -60 22 -101 45 -134 74 -27 24 -74 52
-105 64 -80 30 -107 45 -158 89 -24 21 -59 44 -78 51 -79 29 -103 44 -138 83
-24 28 -63 53 -121 80 -61 28 -95 51 -122 83 -24 26 -61 54 -98 71 -36 16 -71
42 -90 66 -17 21 -52 49 -78 62 -48 25 -79 50 -104 84 -7 10 -52 44 -100 76
-49 33 -100 74 -114 93 -14 19 -49 50 -78 68 -28 19 -69 56 -90 81 -22 26 -59
59 -83 74 -24 16 -57 48 -73 72 -16 24 -49 56 -73 71 -26 17 -58 50 -76 78
-17 28 -49 61 -74 77 -25 15 -54 44 -66 64 -11 20 -46 58 -77 85 -31 26 -62
60 -70 74 -7 15 -47 63 -88 108 -41 45 -89 106 -106 137 -18 31 -49 66 -69 80
-26 17 -46 43 -66 85 -19 43 -39 68 -67 86 -29 20 -47 44 -73 99 -18 40 -54
95 -79 122 -26 27 -61 82 -80 124 -24 52 -46 84 -73 106 -31 24 -46 49 -77
126 -27 70 -49 106 -80 138 -34 34 -49 61 -71 126 -19 58 -39 97 -68 130 -42
49 -79 122 -92 182 -10 45 -28 81 -70 136 -23 30 -46 82 -70 160 -24 76 -47
130 -69 158 -24 32 -42 75 -65 162 -40 148 -49 172 -77 206 -33 40 -51 97 -84
264 -24 123 -37 165 -71 231 -39 76 -43 90 -70 281 -16 111 -37 225 -47 254
-11 29 -29 78 -40 108 -29 79 -45 238 -72 715 -41 748 -41 862 6 1435 48 585
64 712 100 781 16 31 57 193 69 269 23 147 58 297 79 334 28 48 55 134 95 302
17 73 39 137 55 162 32 52 58 121 86 229 25 99 34 123 77 186 17 26 48 98 68
159 22 66 48 126 66 147 16 20 45 77 65 126 47 117 61 145 90 176 14 14 45 73
70 130 25 57 58 118 73 134 35 37 65 89 80 136 6 20 26 54 44 75 45 53 90 119
117 174 12 25 39 63 61 85 21 22 48 62 60 90 12 27 43 72 68 100 26 27 65 77
86 110 21 33 61 85 90 115 28 30 61 73 74 95 13 22 46 60 72 85 27 25 59 65
72 90 14 25 42 57 64 72 22 15 57 54 77 85 20 32 50 66 65 74 16 9 47 42 70
73 23 31 60 68 82 83 22 15 54 46 70 70 16 23 51 57 77 74 26 17 61 50 77 73
17 22 52 55 78 72 27 18 62 50 79 73 17 24 51 52 79 66 28 15 62 43 81 69 18
25 51 53 72 63 22 10 60 38 85 63 26 26 82 70 126 100 44 29 99 70 122 91 22
21 65 50 95 64 29 15 71 44 93 65 22 20 70 53 106 73 37 20 93 56 125 81 33
24 91 60 131 80 40 20 88 49 107 66 19 17 83 53 143 81 59 28 117 60 128 70
11 10 77 44 145 75 68 31 138 66 155 78 16 12 80 42 140 65 61 24 137 58 170
76 33 18 107 47 165 65 57 18 143 50 190 72 47 22 162 62 255 90 94 27 195 60
225 74 30 14 156 48 280 75 124 27 259 61 300 75 78 26 312 65 650 108 107 14
254 35 326 46 181 28 409 40 739 40 352 -1 560 -12 784 -44 97 -14 232 -32
301 -41 362 -46 550 -78 651 -111 59 -18 194 -52 300 -74 108 -23 232 -56 279
-75 47 -19 155 -54 240 -79 85 -24 194 -63 241 -85 47 -22 140 -56 205 -77 65
-20 133 -47 149 -59 28 -21 158 -76 247 -104 20 -7 53 -25 73 -41 20 -16 86
-50 148 -76 62 -26 130 -62 151 -80 21 -18 55 -39 75 -45 63 -20 175 -80 206
-109 17 -16 57 -41 90 -55 33 -15 86 -46 118 -70 31 -24 96 -63 142 -86 57
-28 95 -55 116 -82 19 -24 53 -49 86 -63 30 -13 75 -44 101 -67 26 -24 76 -61
111 -83 36 -21 88 -61 115 -88 28 -26 72 -59 98 -72 28 -14 59 -41 77 -67 18
-27 48 -53 78 -68 27 -14 63 -45 82 -70 18 -24 59 -60 90 -80 31 -19 62 -47
68 -62 7 -14 37 -44 67 -66 30 -23 63 -53 73 -67 21 -32 57 -67 109 -109 21
-16 46 -44 57 -62 10 -18 41 -48 67 -67 28 -20 58 -53 70 -76 12 -23 42 -56
70 -76 31 -22 60 -55 77 -87 18 -32 44 -62 71 -80 29 -19 50 -44 62 -71 10
-23 39 -61 64 -83 26 -23 72 -81 102 -130 31 -48 70 -100 88 -115 17 -14 46
-55 64 -91 19 -39 46 -77 67 -94 24 -18 50 -56 75 -109 23 -47 60 -103 89
-134 35 -37 59 -75 77 -123 14 -38 44 -89 65 -114 42 -48 78 -113 99 -177 7
-21 30 -56 52 -77 38 -37 128 -181 128 -206 0 -6 -7 -19 -16 -28 -14 -14 -15
-20 -4 -41 8 -13 23 -27 34 -30 36 -8 157 14 178 33 43 39 41 49 -17 87 -45
31 -56 44 -65 79 -43 172 -53 198 -96 242 -24 25 -45 58 -49 77 -14 65 -56
153 -90 188 -19 19 -50 70 -68 113 -19 44 -51 97 -72 120 -21 22 -54 77 -75
123 -25 54 -55 98 -87 131 -31 31 -53 65 -61 91 -9 29 -31 61 -68 97 -30 30
-54 59 -54 65 0 16 -63 109 -99 149 -18 18 -54 65 -80 105 -27 39 -62 81 -79
93 -17 13 -46 49 -65 80 -20 35 -50 69 -75 86 -26 18 -52 47 -67 77 -15 30
-42 60 -75 84 -28 20 -55 49 -61 64 -14 36 -54 78 -90 92 -18 8 -40 32 -58 65
-21 37 -45 62 -81 84 -28 17 -54 41 -59 54 -11 28 -86 97 -106 97 -8 0 -27 19
-41 43 -30 48 -53 69 -106 98 -21 10 -50 38 -65 60 -16 25 -49 53 -80 71 -30
17 -65 46 -78 66 -13 19 -52 53 -87 74 -35 22 -82 59 -105 83 -24 24 -75 63
-115 87 -40 23 -91 61 -113 85 -23 23 -63 52 -89 64 -27 12 -65 38 -85 60 -20
21 -76 59 -126 85 -49 25 -108 63 -130 84 -22 21 -71 52 -109 70 -39 17 -87
46 -107 63 -20 18 -81 54 -136 81 -54 27 -110 59 -125 71 -15 12 -78 44 -140
70 -62 26 -130 61 -150 77 -37 29 -106 60 -223 99 -33 12 -74 31 -91 44 -38
29 -126 66 -224 95 -41 12 -115 40 -164 62 -49 23 -153 60 -230 84 -78 23
-166 54 -197 67 -31 14 -123 42 -205 62 -82 20 -174 42 -204 49 -30 8 -95 25
-145 39 -98 27 -349 77 -515 102 -155 23 -160 24 -160 45 0 10 -7 21 -16 24
-64 25 -1252 41 -1869 26z"/>
<path d="M8044 13060 c-68 -7 -116 -32 -135 -68 -8 -13 -34 -34 -59 -47 -54
-28 -120 -88 -120 -109 0 -8 -25 -40 -55 -71 -30 -32 -52 -61 -49 -66 3 -5 19
-16 37 -25 28 -15 33 -15 61 0 17 9 39 30 48 46 9 17 29 32 45 36 15 4 63 24
105 45 49 25 92 39 115 39 21 0 52 4 69 9 23 7 46 4 89 -11 32 -10 97 -23 144
-29 105 -11 246 -47 273 -69 11 -9 30 -51 44 -99 22 -76 23 -85 8 -112 -10
-20 -33 -37 -72 -54 -35 -16 -72 -42 -97 -70 -32 -35 -59 -52 -134 -82 -82
-34 -99 -44 -126 -83 -30 -43 -34 -45 -151 -78 -128 -36 -150 -49 -140 -80 9
-27 88 -49 202 -56 115 -7 144 -17 144 -50 0 -33 -19 -42 -126 -61 -49 -8
-104 -20 -121 -26 -38 -12 -73 -52 -73 -84 0 -51 -27 -65 -155 -82 -121 -16
-155 -30 -155 -63 0 -9 8 -24 18 -33 15 -14 27 -15 73 -7 30 5 84 13 120 18
83 12 118 29 139 67 18 32 9 30 200 62 100 16 107 19 146 58 37 37 51 44 140
64 159 36 177 42 211 67 17 13 58 38 90 55 94 52 113 68 137 123 17 38 37 62
73 88 37 27 52 44 57 69 3 19 16 53 27 77 21 42 21 43 3 57 -53 41 -90 26
-101 -38 -8 -49 -30 -73 -83 -87 -29 -8 -46 -20 -60 -43 -25 -43 -50 -67 -75
-72 -11 -2 -46 -9 -78 -15 -52 -10 -59 -15 -77 -49 -17 -33 -27 -40 -82 -56
-82 -24 -165 -24 -201 0 -60 39 -12 89 101 105 92 13 105 20 134 72 18 33 42
54 107 93 46 28 91 61 99 75 30 48 67 82 108 100 23 10 45 23 48 29 4 6 4 45
0 88 -7 78 -7 78 -69 143 -34 36 -71 79 -82 95 -16 23 -46 40 -132 74 -62 24
-128 57 -148 73 -44 35 -47 36 -207 48 -139 11 -160 11 -252 0z"/>
<path d="M10132 12280 c-62 -5 -145 -21 -205 -38 -56 -17 -151 -40 -212 -53
-258 -53 -349 -75 -352 -85 -2 -7 22 -17 64 -24 52 -10 131 -11 348 -4 574 18
791 7 968 -52 67 -22 81 -31 106 -67 16 -23 48 -53 71 -67 71 -42 86 -62 115
-145 40 -117 47 -204 30 -363 -22 -199 -19 -249 19 -274 24 -17 35 -4 81 95
26 56 61 116 78 134 34 37 54 125 59 266 3 83 3 83 -61 207 -73 142 -108 200
-120 200 -4 0 -48 34 -97 76 -94 81 -136 104 -237 130 -34 8 -79 27 -100 41
-36 25 -40 26 -245 29 -114 1 -254 -1 -310 -6z"/>
<path d="M6775 12135 c-37 -36 -31 -85 9 -85 27 0 106 50 106 67 0 17 -40 43
-68 43 -12 0 -34 -11 -47 -25z"/>
<path d="M6643 12035 c-18 -7 -45 -32 -60 -54 -15 -22 -44 -49 -64 -60 -38
-22 -109 -94 -109 -110 0 -6 -24 -26 -53 -45 -33 -22 -65 -55 -87 -90 -19 -31
-43 -58 -53 -62 -24 -8 -62 -61 -77 -108 -7 -22 -32 -59 -56 -83 -50 -50 -74
-93 -99 -178 -21 -74 -40 -112 -72 -147 -53 -56 -83 -271 -49 -352 19 -46 81
-112 133 -143 87 -51 246 -41 372 22 134 67 277 74 391 17 112 -54 176 -72
260 -72 62 0 79 3 84 16 14 36 4 51 -59 93 -36 23 -91 64 -121 91 -33 29 -79
57 -117 71 -34 12 -84 33 -110 45 -34 15 -61 21 -90 17 -128 -14 -256 -37
-318 -58 -82 -28 -98 -24 -158 39 -40 41 -40 42 15 213 24 77 45 123 68 150
18 21 46 72 62 113 20 51 42 88 70 115 22 22 64 78 92 125 36 60 67 97 102
123 28 21 64 56 80 79 17 23 39 48 51 56 43 30 79 93 79 137 0 36 -4 44 -22
49 -33 8 -49 7 -85 -9z"/>
<path d="M7745 12010 c-141 -11 -242 -45 -205 -69 25 -17 159 -24 252 -13 83
9 107 19 108 44 0 14 -44 48 -59 46 -9 -1 -52 -4 -96 -8z"/>
<path d="M14620 11668 c-25 -11 -80 -26 -123 -35 -46 -8 -93 -25 -114 -39 -20
-13 -42 -24 -49 -24 -7 0 -33 -7 -58 -15 -42 -14 -47 -14 -85 5 -55 29 -126
35 -267 21 -65 -7 -247 -17 -404 -22 -157 -5 -300 -12 -319 -16 -22 -4 -49
-21 -75 -49 -49 -51 -89 -69 -182 -84 -37 -6 -74 -16 -81 -22 -14 -12 -18
-108 -4 -108 4 0 35 14 67 30 48 25 79 32 169 41 84 8 124 17 170 38 161 75
209 83 560 86 233 3 312 7 355 19 52 14 56 14 71 -4 18 -21 34 -104 24 -120
-4 -6 -30 -26 -60 -44 -34 -22 -63 -51 -80 -81 -17 -28 -44 -55 -71 -71 -29
-17 -55 -44 -76 -79 -24 -41 -43 -58 -84 -78 -29 -15 -67 -44 -86 -67 -37 -47
-74 -68 -199 -115 -47 -17 -104 -46 -125 -62 -38 -30 -101 -55 -174 -68 -95
-18 -167 -46 -195 -76 -38 -40 -70 -54 -189 -79 -117 -26 -154 -40 -186 -75
-38 -41 -79 -61 -160 -80 -135 -31 -157 -42 -172 -88 -16 -50 -59 -82 -123
-92 -25 -3 -63 -12 -83 -20 -33 -11 -35 -14 -17 -21 24 -11 219 -11 257 -1 15
4 30 16 33 27 4 11 18 26 33 34 31 16 150 49 236 66 43 9 66 20 85 41 51 56
239 75 311 32 17 -9 30 -23 30 -31 0 -17 -50 -38 -130 -52 -87 -16 -115 -32
-133 -77 -13 -32 -32 -49 -115 -101 l-100 -63 -7 -75 c-6 -57 -12 -78 -26 -88
-22 -15 -16 -22 38 -50 30 -15 36 -15 69 -1 31 13 34 17 24 30 -21 25 -4 41
62 59 65 18 127 53 188 106 64 55 139 81 380 131 180 37 254 31 613 -45 86
-18 140 -46 197 -102 62 -61 139 -98 190 -91 47 6 75 -11 83 -52 5 -21 11 -29
21 -25 12 5 12 10 -2 36 -8 18 -18 62 -21 99 -7 75 -21 96 -95 146 -22 15 -62
48 -87 74 -25 26 -62 52 -85 59 -59 19 -116 49 -145 77 -14 13 -59 35 -99 49
-68 23 -84 24 -303 24 -255 0 -405 16 -438 46 -10 9 -19 21 -19 25 0 17 60 39
161 59 193 39 232 51 278 86 25 19 63 39 85 45 58 15 153 68 179 98 12 14 51
51 86 81 36 30 81 73 100 95 20 22 59 63 86 90 28 28 95 99 150 158 55 59 115
114 133 123 18 8 48 28 66 44 18 17 62 44 97 61 90 44 119 73 119 121 0 54
-26 111 -59 131 -36 21 -45 21 -101 -5z"/>
<path d="M17652 11636 c-23 -13 -41 -38 -42 -58 0 -13 12 -18 48 -23 26 -3 65
-10 86 -16 36 -10 41 -9 68 19 29 29 29 29 3 61 -26 30 -31 31 -87 29 -32 -2
-67 -7 -76 -12z"/>
<path d="M7364 11471 c-17 -16 -53 -37 -80 -47 -27 -10 -67 -32 -89 -50 -22
-18 -84 -49 -137 -68 -152 -55 -148 -52 -174 -134 -14 -44 -23 -55 -51 -67
-59 -25 -36 -40 58 -40 72 0 88 3 114 23 33 24 176 66 290 83 51 8 103 8 190
0 66 -6 199 -13 295 -16 350 -12 518 -33 635 -80 82 -33 164 -49 365 -74 228
-28 265 -36 345 -76 80 -39 136 -55 323 -90 105 -20 150 -34 210 -65 55 -29
115 -48 209 -69 132 -30 163 -41 227 -85 20 -13 66 -31 103 -41 145 -37 231
-66 244 -81 24 -29 84 -52 184 -69 55 -9 118 -24 140 -32 22 -9 66 -16 98 -15
53 0 57 -2 57 -23 0 -13 7 -26 16 -29 25 -9 167 -7 184 4 19 12 9 15 -102 31
-84 12 -86 13 -92 42 -3 16 -6 42 -6 57 0 15 -6 33 -14 39 -7 6 -59 22 -116
37 -126 31 -134 34 -190 94 -43 45 -50 48 -158 75 -106 26 -151 47 -180 87
-11 15 -104 48 -217 77 -22 6 -74 31 -116 56 -65 38 -99 50 -227 80 -104 23
-172 45 -219 69 -69 36 -100 44 -341 91 -73 14 -172 40 -220 59 -106 41 -152
50 -357 71 -88 9 -266 30 -395 46 -266 33 -322 35 -400 14 -30 -8 -96 -15
-147 -15 -84 0 -93 2 -107 22 -10 13 -16 44 -16 74 0 58 -7 64 -68 64 -26 -1
-46 -9 -68 -29z"/>
<path d="M17745 11435 c-15 -51 -15 -59 3 -124 27 -92 33 -102 88 -132 57 -30
59 -35 72 -204 12 -154 26 -190 78 -198 47 -8 56 -1 27 23 -18 14 -23 29 -23
65 0 26 -7 75 -16 109 -9 33 -19 107 -23 164 -7 91 -11 105 -33 130 -14 15
-29 43 -33 62 -4 19 -19 51 -34 70 -15 19 -34 47 -44 63 -27 42 -44 34 -62
-28z"/>
<path d="M12703 11264 c-96 -58 -17 -127 86 -75 50 26 65 45 57 76 -6 22 -11
25 -54 25 -32 -1 -60 -9 -89 -26z"/>
<path d="M12541 11098 c-28 -18 -31 -22 -17 -30 9 -5 33 -8 54 -6 32 3 37 6
37 28 0 33 -29 36 -74 8z"/>
<path d="M10510 10940 c-8 -5 -12 -11 -10 -13 5 -5 106 -25 183 -36 58 -9 70
-23 62 -73 -7 -50 13 -62 149 -93 58 -13 113 -28 122 -33 10 -5 26 -29 38 -53
20 -41 26 -46 121 -84 56 -23 122 -56 149 -75 48 -35 48 -35 182 -37 74 -1
172 -7 217 -13 119 -15 206 -12 355 10 180 27 200 39 140 82 -32 22 -43 23
-278 30 -264 7 -316 16 -370 62 -36 30 -73 41 -229 67 -163 28 -186 35 -224
74 -40 42 -139 92 -198 101 -24 4 -60 15 -80 25 -20 10 -46 15 -58 12 -14 -4
-21 -1 -21 9 0 8 -12 21 -27 28 -33 16 -202 24 -223 10z"/>
<path d="M18057 10783 c-6 -6 -1 -97 10 -163 5 -34 5 -35 15 -10 5 14 7 57 3
97 -6 69 -14 90 -28 76z"/>
<path d="M6263 10409 c-220 -10 -294 -27 -378 -83 -19 -13 -67 -37 -106 -51
-48 -19 -84 -41 -112 -70 -23 -23 -62 -53 -87 -68 -25 -14 -62 -43 -83 -65
-36 -37 -39 -44 -44 -115 -7 -93 -3 -96 100 -72 82 20 190 78 257 141 58 53
86 67 190 92 183 45 332 68 410 64 78 -4 407 -70 455 -92 22 -9 67 -40 101
-67 33 -27 91 -62 127 -78 61 -26 68 -31 83 -74 10 -25 24 -54 32 -63 32 -37
129 -8 154 46 10 23 6 31 -47 88 -31 35 -67 79 -80 98 -12 19 -44 55 -71 78
-27 24 -71 63 -97 87 -29 27 -72 53 -109 67 -34 12 -81 37 -104 54 -23 18 -73
42 -111 54 -64 20 -223 41 -288 38 -16 0 -103 -5 -192 -9z"/>
<path d="M5300 8817 c0 -13 -7 -47 -15 -75 -12 -40 -13 -57 -4 -73 6 -12 16
-42 23 -67 17 -67 32 -63 47 14 7 37 20 73 27 81 13 12 13 20 1 56 -22 68 -79
114 -79 64z"/>
<path d="M12555 8715 c-5 -2 -22 -6 -37 -9 -40 -9 -37 -43 5 -61 17 -7 38 -23
45 -34 17 -30 30 -26 49 14 16 34 16 36 -4 63 -19 26 -37 34 -58 27z"/>
<path d="M14652 8698 c-16 -16 -15 -90 2 -113 13 -18 14 -18 25 4 7 12 19 41
27 63 11 33 12 43 2 50 -19 11 -42 10 -56 -4z"/>
<path d="M7391 8676 c-8 -9 -11 -44 -9 -103 3 -76 5 -85 16 -66 6 12 18 50 26
85 7 35 15 70 17 78 5 20 -34 25 -50 6z"/>
<path d="M14451 8442 c-36 -38 -85 -80 -109 -92 -60 -30 -145 -85 -162 -105
-29 -35 -98 -59 -315 -112 -241 -58 -329 -66 -432 -37 -32 9 -116 29 -188 44
-140 30 -247 73 -261 105 -5 11 -29 31 -52 44 -37 20 -50 22 -85 15 -28 -6
-43 -15 -45 -28 -5 -23 48 -79 97 -101 25 -11 41 -27 49 -48 12 -32 68 -77 97
-77 29 0 115 -38 147 -65 45 -38 82 -52 196 -76 128 -26 279 -33 432 -21 134
11 204 31 270 77 21 14 73 39 116 55 61 23 89 40 121 74 22 24 55 52 71 60 33
17 185 183 208 227 27 53 -1 110 -60 125 -26 6 -34 0 -95 -64z"/>
<path d="M7213 8448 c-17 -18 -36 -43 -42 -55 -6 -12 -41 -36 -78 -53 -38 -18
-86 -49 -108 -70 -40 -38 -128 -81 -202 -99 -96 -23 -222 -60 -244 -72 -15 -8
-79 -14 -174 -17 -124 -3 -158 -1 -195 13 -57 21 -228 64 -257 65 -45 0 -131
41 -174 83 -24 23 -63 50 -86 61 -40 18 -44 18 -68 2 -27 -18 -31 -36 -15 -67
12 -22 60 -49 89 -49 26 0 51 -26 51 -54 0 -31 36 -61 95 -79 72 -22 159 -62
175 -82 21 -26 57 -41 160 -66 85 -21 117 -23 310 -22 251 1 324 14 404 76 26
20 61 39 79 43 58 12 128 55 196 118 36 34 83 75 104 90 21 16 45 43 54 60 9
17 33 54 55 82 64 85 48 124 -49 124 -42 0 -53 -4 -80 -32z"/>
<path d="M5448 8439 c-25 -14 -22 -33 7 -66 25 -28 25 -28 45 -4 25 29 25 36
0 61 -23 23 -28 24 -52 9z"/>
<path d="M12696 8424 c-11 -11 -13 -21 -7 -32 13 -23 50 -62 59 -62 17 0 32
26 32 55 0 17 -5 36 -12 43 -17 17 -54 15 -72 -4z"/>
<path d="M5700 7228 c-55 -7 -222 -58 -271 -84 -15 -7 -42 -30 -60 -49 -19
-20 -47 -43 -63 -52 -38 -20 -82 -68 -108 -118 -12 -22 -35 -57 -53 -78 -23
-26 -40 -65 -59 -131 -27 -94 -27 -94 -24 -1508 l3 -1413 33 -80 c17 -44 41
-91 52 -105 27 -33 68 -90 102 -139 15 -22 45 -49 66 -60 22 -11 62 -39 90
-63 42 -36 67 -48 144 -68 93 -25 93 -25 1858 -28 1221 -2 1791 0 1850 8 121
15 202 45 258 92 25 22 70 56 99 76 39 26 66 55 99 108 25 40 52 78 60 85 21
17 59 95 74 148 8 31 12 288 12 936 1 892 1 892 -21 924 -51 71 38 66 -1204
69 -991 2 -1126 1 -1180 -13 -71 -18 -103 -44 -117 -94 -17 -61 -13 -477 5
-546 20 -75 35 -90 110 -110 50 -13 143 -15 578 -15 316 0 555 4 613 11 92 11
94 11 136 -14 88 -51 87 -47 75 -252 -7 -116 -7 -247 -1 -367 5 -103 5 -196 1
-206 -4 -10 -30 -32 -56 -50 -48 -33 -48 -33 -192 -23 -179 13 -2045 14 -2253
1 -137 -8 -153 -7 -202 11 -29 11 -63 28 -75 38 -22 18 -22 18 -20 1062 1 717
-1 1068 -9 1121 -9 64 -8 82 4 105 19 38 62 77 114 102 40 20 49 21 120 11 88
-13 2360 -8 2425 5 37 7 40 5 92 -48 62 -64 72 -92 57 -156 -24 -103 -24 -105
10 -171 27 -52 41 -68 79 -88 46 -23 46 -23 395 -22 192 1 368 5 391 9 63 12
89 34 112 95 18 48 20 78 20 282 1 196 -2 242 -20 320 -16 72 -27 100 -53 130
-18 22 -45 62 -59 90 -14 28 -42 64 -62 80 -20 16 -62 52 -93 80 -31 28 -72
59 -89 68 -56 28 -188 74 -234 81 -59 9 -3489 12 -3559 3z"/>
<path d="M10753 7210 c-21 -14 -48 -45 -61 -70 -22 -45 -22 -45 -20 -1915 3
-1870 3 -1870 26 -1903 48 -67 43 -66 481 -64 372 3 395 4 421 22 15 11 36 32
46 47 18 27 19 76 22 1408 2 984 0 1411 -8 1487 -11 99 -10 110 8 151 22 49
49 71 100 82 18 4 605 8 1305 10 699 1 1283 4 1297 5 29 2 62 -33 92 -99 19
-40 19 -51 9 -135 -6 -50 -10 -174 -8 -276 2 -205 -3 -229 -58 -262 -27 -15
-42 -16 -120 -8 -130 14 -1849 13 -1899 -1 -21 -6 -57 -28 -80 -49 l-41 -39
-6 -228 c-7 -275 3 -349 56 -398 18 -17 50 -36 72 -43 30 -9 333 -12 1229 -12
1314 0 1332 1 1415 57 24 16 64 37 89 47 63 25 224 189 256 262 13 30 36 72
50 94 47 70 54 167 54 718 0 562 -4 600 -69 712 -21 36 -50 87 -65 113 -15 27
-48 63 -74 82 -26 18 -63 53 -83 77 -29 35 -54 51 -125 79 -183 75 -11 69
-2257 72 -2017 2 -2017 2 -2054 -23z"/>
</g><g transform="translate(0.000000,1878.000000) scale(0.100000,-0.100000)"
fill="#e8eef2" stroke="none">
<path d="M10920 13993 c-891 -23 -1115 -41 -1415 -114 -94 -22 -234 -47 -339
-59 -207 -24 -332 -50 -411 -84 -63 -29 -148 -47 -354 -76 -93 -13 -165 -29
-205 -46 -34 -14 -82 -34 -108 -45 -26 -10 -127 -32 -225 -49 -219 -38 -245
-45 -308 -80 -62 -35 -135 -54 -295 -75 -305 -40 -322 -43 -377 -81 -28 -19
-66 -39 -85 -44 -54 -15 -240 -38 -442 -55 -182 -16 -236 -26 -236 -42 1 -5
11 -21 24 -37 27 -32 41 -34 181 -23 50 4 189 12 310 17 257 11 383 30 474 69
76 33 134 45 321 66 162 19 283 46 347 79 54 27 163 50 303 66 139 15 244 37
314 66 121 51 183 65 365 85 206 22 283 37 371 74 97 41 171 53 415 70 259 17
432 36 615 66 246 40 416 50 965 56 369 4 562 2 635 -6 58 -6 169 -18 246 -26
78 -8 186 -22 240 -30 111 -17 368 -39 639 -55 268 -16 327 -26 420 -69 91
-44 131 -54 276 -76 130 -20 206 -41 244 -70 51 -38 87 -52 175 -69 126 -25
213 -53 238 -76 34 -32 118 -67 200 -84 94 -20 131 -36 168 -73 29 -29 65 -43
243 -93 28 -7 56 -25 74 -46 29 -32 58 -44 257 -102 14 -4 32 -22 42 -42 16
-31 27 -37 115 -67 54 -18 107 -33 119 -33 23 0 44 -21 62 -62 7 -17 22 -30
39 -34 15 -3 53 -12 83 -21 102 -27 116 -27 134 -2 9 13 16 29 16 37 0 14 -80
52 -113 52 -38 1 -90 36 -112 76 -20 35 -30 41 -111 68 -49 16 -99 33 -111 37
-12 5 -33 26 -47 47 -22 35 -33 42 -113 66 -151 46 -157 49 -175 88 -16 34
-24 39 -105 63 -145 43 -172 55 -190 85 -20 35 -38 43 -168 80 -112 31 -154
49 -176 76 -21 26 -110 62 -206 84 -77 18 -140 43 -153 59 -23 29 -75 52 -172
75 -164 39 -216 55 -280 87 -66 33 -174 60 -338 83 -112 16 -189 31 -375 74
-115 27 -463 59 -765 72 -337 14 -929 30 -1002 28 -35 -1 -106 -3 -158 -5z"/>
<path d="M10545 13333 c-22 -2 -146 -18 -275 -34 -129 -16 -327 -41 -440 -54
-281 -33 -530 -78 -530 -95 0 -6 169 -41 310 -64 19 -3 134 -12 255 -21 121
-8 231 -17 245 -20 127 -23 462 -99 527 -120 46 -14 95 -37 110 -50 29 -25
170 -74 278 -95 58 -12 121 -37 196 -80 20 -11 97 -34 171 -50 154 -34 207
-51 248 -80 43 -30 97 -47 248 -75 107 -20 154 -35 216 -66 95 -47 152 -62
316 -84 199 -25 240 -35 320 -70 96 -43 160 -51 495 -66 308 -13 677 -7 905
16 172 18 205 24 193 36 -14 14 -160 28 -498 49 -402 25 -548 42 -685 80 -58
16 -166 39 -240 50 -289 44 -337 52 -399 66 -35 8 -85 25 -112 39 -60 30 -159
57 -321 90 -91 18 -146 35 -195 60 -46 24 -107 44 -188 61 -189 39 -231 52
-284 84 -56 35 -105 51 -246 79 -136 28 -158 35 -215 70 -58 36 -90 44 -269
71 -144 22 -194 39 -218 76 -14 22 -13 27 4 56 23 39 70 64 138 73 141 18 259
36 268 42 5 3 1 11 -9 17 -19 10 -246 17 -319 9z"/>
<path d="M4543 12668 c-15 -24 -38 -70 -52 -103 -14 -33 -36 -77 -49 -98 -25
-43 -102 -221 -102 -236 0 -6 -18 -23 -41 -38 -48 -32 -69 -68 -69 -120 0 -96
25 -111 84 -50 22 24 57 55 76 69 19 14 54 44 78 67 24 23 62 51 85 62 23 12
58 36 77 55 25 23 72 48 150 78 63 24 131 53 150 64 64 38 171 66 448 119 46
8 86 21 88 28 3 7 -1 28 -9 47 -22 51 -72 63 -240 54 -73 -3 -159 -9 -193 -12
-81 -8 -292 13 -368 37 -34 10 -67 19 -73 19 -7 0 -25 -19 -40 -42z"/>
<path d="M15812 12618 c-45 -57 -9 -87 116 -99 75 -7 89 -6 99 8 19 24 1 39
-77 62 -38 12 -72 26 -75 31 -9 14 -51 12 -63 -2z"/>
<path d="M16125 12426 c-18 -13 -18 -14 4 -26 23 -12 71 -6 71 9 0 6 -42 31
-54 31 -1 0 -11 -6 -21 -14z"/>
<path d="M4138 11969 c-14 -8 -18 -24 -18 -75 0 -68 13 -79 24 -19 4 19 18 48
31 64 21 25 23 30 9 35 -21 8 -26 7 -46 -5z"/>
<path d="M18259 11936 c-2 -2 -69 -9 -149 -15 -80 -6 -192 -15 -250 -21 -58
-5 -188 -17 -288 -26 -184 -16 -241 -29 -363 -82 -50 -22 -167 -47 -264 -57
-99 -11 -176 -34 -254 -77 -51 -27 -115 -50 -210 -74 -164 -41 -186 -49 -205
-79 -20 -31 -84 -60 -191 -86 -101 -25 -108 -29 -140 -79 -22 -35 -62 -53
-225 -99 -20 -6 -25 -14 -25 -42 0 -28 3 -34 20 -31 11 1 56 6 100 11 139 17
185 30 223 67 41 40 62 47 211 74 87 15 138 31 211 65 74 35 121 49 214 65
143 24 226 45 280 70 74 35 121 48 217 60 52 6 137 19 189 27 52 9 124 19 160
23 36 5 97 15 135 24 168 36 291 51 569 69 47 3 61 7 67 23 9 23 9 130 0 163
-6 23 -22 37 -32 27z"/>
<path d="M15544 11085 c-9 -23 0 -28 36 -20 37 8 35 29 -3 33 -18 2 -29 -2
-33 -13z"/>
<path d="M3175 9802 c-115 -30 -118 -33 -150 -158 -20 -83 -22 -613 -2 -719
23 -117 40 -134 158 -154 73 -12 805 -14 902 -2 81 10 109 40 136 150 21 84
21 84 -11 143 -50 95 -62 95 -160 7 -46 -41 -89 -80 -96 -87 -45 -42 -68 -45
-328 -45 -241 0 -253 1 -287 21 -68 43 -90 123 -92 332 -1 165 -1 165 32 237
28 60 41 77 78 99 43 25 47 25 114 15 88 -14 198 -14 295 0 84 11 111 4 209
-58 68 -44 153 -76 179 -69 13 3 40 20 61 38 38 33 38 33 18 107 -25 91 -39
113 -88 137 -35 17 -71 19 -468 21 -386 2 -437 1 -500 -15z"/>
<path d="M4950 9807 c-92 -10 -110 -25 -146 -119 -14 -38 -43 -92 -65 -120
-38 -51 -46 -71 -88 -214 -11 -38 -32 -86 -45 -105 -45 -62 -55 -86 -76 -180
-24 -112 -36 -145 -67 -182 -13 -16 -23 -35 -23 -42 0 -19 43 -51 96 -71 45
-17 45 -17 82 13 20 16 54 54 75 84 20 30 44 64 53 77 9 12 27 67 40 123 26
109 33 127 75 179 15 20 44 77 64 128 25 61 47 101 67 117 16 14 33 25 36 25
20 0 75 -69 102 -127 51 -109 51 -111 -19 -185 -34 -36 -61 -72 -61 -80 0 -23
52 -65 96 -78 52 -16 205 -137 235 -187 36 -61 70 -93 99 -93 32 0 126 46 133
64 3 8 -5 29 -17 47 -30 45 -40 73 -76 208 -21 79 -40 125 -60 150 -27 35 -70
142 -70 176 0 28 -42 118 -72 158 -16 20 -41 63 -54 95 -37 84 -50 105 -76
124 -28 20 -131 27 -238 15z"/>
<path d="M5999 9811 c-84 -5 -100 -9 -131 -33 -36 -27 -36 -27 -43 -145 -7
-111 -2 -372 13 -670 7 -133 7 -133 43 -169 36 -36 36 -36 85 -11 27 14 60 37
73 51 24 25 24 26 18 183 -4 87 -11 176 -17 198 -5 22 -10 86 -10 142 0 101 0
101 53 180 78 116 71 113 359 117 243 3 243 3 291 -22 50 -27 58 -42 73 -145
8 -58 -5 -75 -78 -107 -48 -21 -60 -21 -208 -15 -157 7 -157 7 -193 -25 -20
-18 -37 -38 -37 -45 0 -20 65 -102 189 -236 63 -68 131 -147 153 -176 30 -41
55 -61 110 -89 68 -34 74 -35 140 -29 57 6 72 11 88 32 33 42 26 57 -60 122
-17 13 -47 49 -67 80 -19 31 -49 71 -65 89 -58 67 -21 114 106 137 108 18 125
36 142 152 10 66 11 113 4 188 -19 195 -28 209 -152 236 -73 16 -127 18 -433
17 -192 -1 -393 -4 -446 -7z"/>
<path d="M7430 9811 c-38 -4 -69 -15 -100 -36 l-45 -31 -1 -184 c-1 -139 -7
-218 -24 -320 -18 -108 -21 -159 -17 -258 6 -140 12 -153 93 -191 60 -29 78
-27 120 15 l36 37 -4 321 c-3 321 -3 321 25 377 25 51 33 59 89 84 61 27 62
27 307 29 246 2 246 2 279 -29 31 -28 33 -35 39 -115 6 -86 6 -86 -33 -119
-38 -34 -38 -34 -193 -27 -152 7 -157 6 -201 -17 -63 -35 -68 -47 -38 -88 14
-19 38 -58 52 -86 15 -29 31 -53 36 -53 18 0 79 -61 104 -105 14 -24 42 -53
62 -66 20 -12 52 -46 70 -75 42 -65 59 -76 149 -99 67 -17 72 -17 105 0 36 18
80 54 80 65 0 3 -36 43 -79 89 -89 93 -146 188 -137 226 9 34 78 72 160 86 89
15 108 34 129 128 25 110 21 210 -11 306 -27 79 -27 79 -97 110 -70 30 -70 30
-485 31 -228 0 -440 -2 -470 -5z"/>
<path d="M8930 9811 c-111 -11 -185 -68 -227 -172 -16 -39 -18 -80 -18 -364 0
-320 0 -320 30 -380 28 -56 35 -63 104 -97 l74 -38 436 0 c424 0 437 1 476 21
60 32 93 67 125 135 30 61 30 61 26 383 -4 322 -4 322 -30 361 -14 22 -26 44
-26 49 0 11 -70 75 -102 92 -17 10 -115 14 -413 15 -214 1 -419 -1 -455 -5z
m715 -201 c47 -44 64 -127 63 -315 0 -165 -11 -255 -38 -304 -24 -46 -59 -51
-359 -51 -276 0 -280 0 -306 23 -42 36 -57 116 -59 317 -1 141 2 187 16 235
20 68 41 103 69 114 11 3 148 6 305 5 281 -2 286 -2 309 -24z"/>
<path d="M10302 9796 c-40 -13 -79 -30 -87 -36 -9 -7 -25 -44 -36 -82 -35
-113 -18 -358 27 -402 8 -9 47 -25 86 -37 67 -20 90 -21 402 -18 357 3 405 -3
447 -47 19 -21 21 -31 17 -99 -9 -138 -42 -150 -413 -146 -275 3 -288 6 -349
70 -28 29 -34 31 -101 31 -87 0 -101 -12 -115 -96 -14 -82 -13 -89 13 -120 40
-46 118 -53 592 -53 231 0 438 4 459 9 22 5 51 21 66 37 27 29 78 170 100 276
10 52 10 61 -9 90 -11 17 -36 62 -56 98 -20 36 -48 78 -63 92 -27 25 -27 25
-147 17 -66 -5 -236 -11 -378 -13 -259 -3 -259 -3 -299 32 -40 36 -40 36 -33
116 7 73 11 82 41 110 32 30 32 30 286 29 314 -1 356 -8 399 -70 16 -24 45
-55 65 -70 31 -24 38 -26 59 -14 13 7 40 30 61 51 38 39 38 39 19 111 -23 94
-28 102 -72 130 -38 23 -38 23 -473 26 -435 2 -435 2 -508 -22z"/>
<path d="M11860 9813 c-108 -12 -159 -26 -180 -48 -24 -26 -42 -99 -60 -239
-11 -88 -6 -123 33 -229 26 -72 109 -84 502 -75 328 7 365 3 420 -48 26 -24
27 -29 22 -94 -3 -38 -11 -78 -16 -89 -6 -11 -35 -30 -63 -44 -52 -23 -57 -24
-301 -21 -268 4 -281 6 -363 67 -17 13 -57 29 -89 36 -54 12 -58 12 -80 -9
-14 -13 -27 -43 -34 -77 -18 -90 -15 -108 23 -141 31 -27 43 -31 128 -37 51
-4 273 -5 493 -3 379 3 402 5 445 24 25 11 51 28 58 36 16 20 42 174 42 254 0
64 -29 193 -53 241 -36 68 -14 65 -428 54 -367 -10 -375 -9 -414 11 -73 37
-77 44 -69 118 9 86 16 103 56 131 32 23 37 24 288 25 245 1 257 0 300 -22 25
-12 61 -39 80 -59 43 -46 126 -88 150 -75 28 15 92 91 87 103 -2 7 -17 49 -33
94 -33 96 -36 97 -164 113 -73 8 -710 11 -780 3z"/>
<path d="M13263 9796 c-40 -12 -80 -29 -89 -37 -8 -9 -25 -49 -36 -90 -19 -68
-21 -98 -19 -369 1 -327 12 -438 45 -476 14 -17 45 -31 96 -44 69 -18 112 -20
526 -20 450 0 450 0 492 31 55 41 55 66 0 114 -43 37 -43 37 -143 31 -55 -3
-226 -6 -380 -8 -356 -2 -360 -1 -376 139 -10 88 -1 111 54 140 29 16 63 17
338 14 307 -3 307 -3 352 23 57 34 62 48 29 79 -53 49 -55 49 -381 46 -306 -3
-306 -3 -350 26 -43 29 -43 29 -37 105 7 78 22 109 67 141 22 16 52 17 404 9
209 -4 385 -4 390 1 6 4 21 26 33 48 23 40 23 40 -7 73 -28 31 -34 33 -118 40
-48 3 -252 6 -453 6 -348 1 -368 0 -437 -22z"/>
<path d="M14705 9811 c-88 -9 -108 -28 -147 -141 -32 -95 -32 -96 -36 -331 -3
-231 2 -303 32 -439 11 -51 21 -70 48 -92 56 -47 76 -47 120 1 l40 42 -8 308
c-7 307 -7 307 21 369 49 110 89 122 402 126 263 3 280 0 307 -59 7 -16 17
-59 20 -95 7 -71 -1 -88 -57 -124 -24 -16 -43 -17 -179 -11 -150 6 -154 6
-198 -18 -63 -35 -69 -48 -38 -89 14 -18 34 -51 46 -73 11 -22 43 -60 71 -83
28 -24 60 -61 71 -82 11 -22 40 -53 64 -69 24 -17 58 -53 75 -80 37 -61 56
-73 146 -96 69 -17 71 -17 110 3 22 11 49 30 59 41 20 22 20 22 -36 79 -113
117 -175 214 -164 258 8 31 77 69 151 84 88 17 94 19 106 42 42 79 52 285 18
389 -24 75 -36 88 -109 120 -55 24 -56 24 -465 25 -225 1 -437 -1 -470 -5z"/>
<path d="M16672 9808 c-146 -20 -162 -70 -162 -519 0 -393 14 -472 88 -510 22
-11 128 -14 540 -17 l513 -3 39 39 c22 22 40 45 40 51 0 7 -17 29 -37 51 l-38
39 -385 -8 c-362 -8 -388 -7 -436 11 -74 27 -91 50 -99 133 -8 85 -1 97 77
129 57 23 61 23 363 18 305 -5 305 -5 345 22 55 37 51 79 -12 112 -27 14 -71
16 -342 13 -311 -3 -311 -3 -363 24 -69 36 -73 46 -56 126 18 76 33 97 88 122
37 16 69 17 420 9 418 -8 405 -10 439 53 18 35 18 36 -4 67 -12 17 -33 35 -46
40 -31 12 -880 10 -972 -2z"/>
<path d="M16062 9793 c-31 -9 -59 -25 -67 -37 -10 -16 -14 -124 -19 -456 -8
-523 -13 -494 103 -523 74 -18 74 -18 99 5 46 43 47 55 42 530 -5 446 -5 446
-29 472 -28 30 -52 31 -129 9z"/>
<path d="M13358 4033 c-28 -4 -78 -54 -78 -77 0 -7 -1 -120 -2 -252 -3 -239
-3 -240 23 -289 24 -47 28 -51 80 -62 38 -8 304 -11 908 -12 853 -1 853 -1
913 26 47 21 63 34 80 66 11 22 20 57 20 76 -1 458 0 448 -24 476 -48 55 -53
55 -1013 53 -484 0 -892 -3 -907 -5z"/>
</g></svg>