<svg xmlns="http://www.w3.org/2000/svg" xmlns:xlink="http://www.w3.org/1999/xlink" width="2000" zoomAndPan="magnify" viewBox="0 0 1500 1499.999933" height="2000" preserveAspectRatio="xMidYMid meet" version="1.0"><defs><g/><clipPath id="9feaea3b6c"><rect x="0" width="1022" y="0" height="940"/></clipPath><clipPath id="ecfc0533b2"><rect x="0" width="986" y="0" height="249"/></clipPath></defs><g transform="matrix(1, 0, 0, 1, 232, 69)"><g clip-path="url(#9feaea3b6c)"><g fill="#c1121f" fill-opacity="1"><g transform="translate(1.118209, 752.270198)"><g><path d="M 281.484375 -116.75 C 287.972656 -92.96875 291.109375 -71.5625 290.890625 -52.53125 C 290.671875 -33.507812 288.289062 -18.804688 283.75 -8.421875 C 279.21875 1.953125 273.0625 6.054688 265.28125 3.890625 C 263.113281 3.023438 259.4375 2.484375 254.25 2.265625 C 249.0625 2.054688 244.304688 0.65625 239.984375 -1.9375 C 235.660156 -4.539062 233.066406 -9.515625 232.203125 -16.859375 C 231.765625 -22.046875 231.546875 -26.367188 231.546875 -29.828125 C 231.546875 -33.296875 231.546875 -38.054688 231.546875 -44.109375 C 231.546875 -50.160156 231.113281 -59.023438 230.25 -70.703125 C 229.382812 -85.398438 224.734375 -97.71875 216.296875 -107.65625 C 207.867188 -117.601562 196.734375 -123.332031 182.890625 -124.84375 C 169.054688 -126.363281 153.28125 -121.285156 135.5625 -109.609375 C 126.90625 -103.554688 119.226562 -95.34375 112.53125 -84.96875 C 105.832031 -74.59375 100.101562 -64.109375 95.34375 -53.515625 C 90.582031 -42.921875 86.691406 -33.726562 83.671875 -25.9375 C 81.078125 -20.320312 78.050781 -15.132812 74.59375 -10.375 C 71.132812 -5.625 65.507812 -3.460938 57.71875 -3.890625 C 52.96875 -3.890625 47.457031 -3.347656 41.1875 -2.265625 C 34.914062 -1.191406 31.992188 -3.460938 32.421875 -9.078125 C 34.160156 -36.316406 37.191406 -63.878906 41.515625 -91.765625 C 45.835938 -119.660156 50.160156 -144.203125 54.484375 -165.390625 C 55.347656 -169.710938 57.398438 -172.953125 60.640625 -175.109375 C 63.890625 -177.273438 67.242188 -178.144531 70.703125 -177.71875 C 80.640625 -175.988281 88.203125 -172.957031 93.390625 -168.625 C 98.585938 -164.300781 100.753906 -153.710938 99.890625 -136.859375 C 99.453125 -134.691406 100.421875 -133.066406 102.796875 -131.984375 C 105.179688 -130.910156 107.238281 -131.238281 108.96875 -132.96875 C 121.070312 -144.207031 136.523438 -153.5 155.328125 -160.84375 C 174.140625 -168.195312 195.4375 -169.5 219.21875 -164.75 C 232.625 -161.71875 244.082031 -157.28125 253.59375 -151.4375 C 263.113281 -145.601562 271.332031 -136.414062 278.25 -123.875 C 279.976562 -121.71875 281.054688 -119.34375 281.484375 -116.75 Z M 281.484375 -116.75 "/></g></g></g><g fill="#c1121f" fill-opacity="1"><g transform="translate(289.74195, 752.270198)"><g><path d="M 255.546875 -109.609375 C 255.546875 -105.285156 254.25 -101.175781 251.65625 -97.28125 C 249.0625 -93.394531 246.46875 -88.640625 243.875 -83.015625 C 243.4375 -81.722656 243.539062 -80.316406 244.1875 -78.796875 C 244.84375 -77.285156 244.738281 -75.882812 243.875 -74.59375 C 238.6875 -64.207031 233.601562 -56.421875 228.625 -51.234375 C 223.65625 -46.046875 218.359375 -40.644531 212.734375 -35.03125 C 207.546875 -30.695312 202.789062 -27.664062 198.46875 -25.9375 C 193.28125 -24.207031 188.09375 -22.257812 182.90625 -20.09375 C 177.71875 -17.9375 172.742188 -15.347656 167.984375 -12.328125 C 165.390625 -10.160156 161.929688 -8.429688 157.609375 -7.140625 C 151.984375 -5.410156 142.789062 -3.785156 130.03125 -2.265625 C 117.28125 -0.753906 102.691406 -3.023438 86.265625 -9.078125 C 84.097656 -10.378906 82.039062 -11.566406 80.09375 -12.640625 C 78.15625 -13.722656 76.101562 -15.128906 73.9375 -16.859375 C 72.644531 -18.160156 71.347656 -19.457031 70.046875 -20.75 C 68.753906 -22.050781 67.023438 -22.914062 64.859375 -23.34375 C 59.234375 -25.9375 54.691406 -29.832031 51.234375 -35.03125 C 49.503906 -37.1875 47.554688 -39.5625 45.390625 -42.15625 C 43.234375 -44.75 41.078125 -46.910156 38.921875 -48.640625 C 37.191406 -50.804688 35.675781 -53.078125 34.375 -55.453125 C 33.070312 -57.828125 31.988281 -60.53125 31.125 -63.5625 C 27.238281 -79.125 26.59375 -95.015625 29.1875 -111.234375 C 31.78125 -127.453125 37.507812 -142.367188 46.375 -155.984375 C 55.238281 -169.609375 66.804688 -180.3125 81.078125 -188.09375 C 94.484375 -195.445312 108.96875 -198.253906 124.53125 -196.515625 C 140.09375 -194.785156 153.929688 -188.953125 166.046875 -179.015625 C 172.097656 -174.691406 175.988281 -168.203125 177.71875 -159.546875 C 178.582031 -156.523438 177.609375 -153.929688 174.796875 -151.765625 C 171.984375 -149.609375 169.066406 -149.394531 166.046875 -151.125 C 162.148438 -153.28125 157.929688 -155.4375 153.390625 -157.59375 C 148.847656 -159.757812 144.847656 -161.0625 141.390625 -161.5 C 140.097656 -161.925781 136.316406 -161.488281 130.046875 -160.1875 C 123.773438 -158.894531 116.851562 -156.300781 109.28125 -152.40625 C 101.71875 -148.519531 95.125 -142.253906 89.5 -133.609375 C 86.476562 -129.710938 82.695312 -124.195312 78.15625 -117.0625 C 73.613281 -109.9375 71.5625 -103.5625 72 -97.9375 C 72.863281 -94.039062 74.050781 -90.039062 75.5625 -85.9375 C 77.070312 -81.832031 78.691406 -78.050781 80.421875 -74.59375 C 85.609375 -63.78125 93.820312 -57.289062 105.0625 -55.125 C 116.3125 -52.96875 127.878906 -52.96875 139.765625 -55.125 C 151.660156 -57.289062 161.285156 -59.671875 168.640625 -62.265625 C 174.691406 -64.429688 179.769531 -67.242188 183.875 -70.703125 C 187.976562 -74.160156 191.546875 -77.1875 194.578125 -79.78125 C 204.085938 -86.695312 209.488281 -95.125 210.78125 -105.0625 C 212.082031 -115.007812 210.789062 -126.039062 206.90625 -138.15625 C 206.039062 -140.75 206.796875 -143.125 209.171875 -145.28125 C 211.546875 -147.445312 214.25 -147.664062 217.28125 -145.9375 C 219.4375 -144.632812 221.59375 -143.441406 223.75 -142.359375 C 225.914062 -141.285156 227.867188 -140.097656 229.609375 -138.796875 C 231.765625 -137.503906 233.921875 -136.207031 236.078125 -134.90625 C 238.242188 -133.613281 240.191406 -131.882812 241.921875 -129.71875 C 245.378906 -126.6875 248.617188 -123.441406 251.640625 -119.984375 C 254.671875 -116.523438 255.972656 -113.066406 255.546875 -109.609375 Z M 255.546875 -109.609375 "/></g></g></g><g fill="#c1121f" fill-opacity="1"><g transform="translate(527.775308, 752.270198)"><g><path d="M 255.546875 -109.609375 C 255.546875 -105.285156 254.25 -101.175781 251.65625 -97.28125 C 249.0625 -93.394531 246.46875 -88.640625 243.875 -83.015625 C 243.4375 -81.722656 243.539062 -80.316406 244.1875 -78.796875 C 244.84375 -77.285156 244.738281 -75.882812 243.875 -74.59375 C 238.6875 -64.207031 233.601562 -56.421875 228.625 -51.234375 C 223.65625 -46.046875 218.359375 -40.644531 212.734375 -35.03125 C 207.546875 -30.695312 202.789062 -27.664062 198.46875 -25.9375 C 193.28125 -24.207031 188.09375 -22.257812 182.90625 -20.09375 C 177.71875 -17.9375 172.742188 -15.347656 167.984375 -12.328125 C 165.390625 -10.160156 161.929688 -8.429688 157.609375 -7.140625 C 151.984375 -5.410156 142.789062 -3.785156 130.03125 -2.265625 C 117.28125 -0.753906 102.691406 -3.023438 86.265625 -9.078125 C 84.097656 -10.378906 82.039062 -11.566406 80.09375 -12.640625 C 78.15625 -13.722656 76.101562 -15.128906 73.9375 -16.859375 C 72.644531 -18.160156 71.347656 -19.457031 70.046875 -20.75 C 68.753906 -22.050781 67.023438 -22.914062 64.859375 -23.34375 C 59.234375 -25.9375 54.691406 -29.832031 51.234375 -35.03125 C 49.503906 -37.1875 47.554688 -39.5625 45.390625 -42.15625 C 43.234375 -44.75 41.078125 -46.910156 38.921875 -48.640625 C 37.191406 -50.804688 35.675781 -53.078125 34.375 -55.453125 C 33.070312 -57.828125 31.988281 -60.53125 31.125 -63.5625 C 27.238281 -79.125 26.59375 -95.015625 29.1875 -111.234375 C 31.78125 -127.453125 37.507812 -142.367188 46.375 -155.984375 C 55.238281 -169.609375 66.804688 -180.3125 81.078125 -188.09375 C 94.484375 -195.445312 108.96875 -198.253906 124.53125 -196.515625 C 140.09375 -194.785156 153.929688 -188.953125 166.046875 -179.015625 C 172.097656 -174.691406 175.988281 -168.203125 177.71875 -159.546875 C 178.582031 -156.523438 177.609375 -153.929688 174.796875 -151.765625 C 171.984375 -149.609375 169.066406 -149.394531 166.046875 -151.125 C 162.148438 -153.28125 157.929688 -155.4375 153.390625 -157.59375 C 148.847656 -159.757812 144.847656 -161.0625 141.390625 -161.5 C 140.097656 -161.925781 136.316406 -161.488281 130.046875 -160.1875 C 123.773438 -158.894531 116.851562 -156.300781 109.28125 -152.40625 C 101.71875 -148.519531 95.125 -142.253906 89.5 -133.609375 C 86.476562 -129.710938 82.695312 -124.195312 78.15625 -117.0625 C 73.613281 -109.9375 71.5625 -103.5625 72 -97.9375 C 72.863281 -94.039062 74.050781 -90.039062 75.5625 -85.9375 C 77.070312 -81.832031 78.691406 -78.050781 80.421875 -74.59375 C 85.609375 -63.78125 93.820312 -57.289062 105.0625 -55.125 C 116.3125 -52.96875 127.878906 -52.96875 139.765625 -55.125 C 151.660156 -57.289062 161.285156 -59.671875 168.640625 -62.265625 C 174.691406 -64.429688 179.769531 -67.242188 183.875 -70.703125 C 187.976562 -74.160156 191.546875 -77.1875 194.578125 -79.78125 C 204.085938 -86.695312 209.488281 -95.125 210.78125 -105.0625 C 212.082031 -115.007812 210.789062 -126.039062 206.90625 -138.15625 C 206.039062 -140.75 206.796875 -143.125 209.171875 -145.28125 C 211.546875 -147.445312 214.25 -147.664062 217.28125 -145.9375 C 219.4375 -144.632812 221.59375 -143.441406 223.75 -142.359375 C 225.914062 -141.285156 227.867188 -140.097656 229.609375 -138.796875 C 231.765625 -137.503906 233.921875 -136.207031 236.078125 -134.90625 C 238.242188 -133.613281 240.191406 -131.882812 241.921875 -129.71875 C 245.378906 -126.6875 248.617188 -123.441406 251.640625 -119.984375 C 254.671875 -116.523438 255.972656 -113.066406 255.546875 -109.609375 Z M 255.546875 -109.609375 "/></g></g></g><g fill="#c1121f" fill-opacity="1"><g transform="translate(765.808723, 752.270198)"><g><path d="M 132.3125 -282.78125 C 131.882812 -281.050781 131.453125 -279.320312 131.015625 -277.59375 C 130.585938 -275.863281 130.375 -274.132812 130.375 -272.40625 C 130.800781 -265.0625 130.472656 -255.550781 129.390625 -243.875 C 128.304688 -232.195312 126.789062 -219.867188 124.84375 -206.890625 C 122.90625 -193.921875 120.851562 -181.921875 118.6875 -170.890625 C 116.53125 -159.867188 114.585938 -151.550781 112.859375 -145.9375 C 111.128906 -139.882812 110.15625 -133.070312 109.9375 -125.5 C 109.71875 -117.9375 108.960938 -110.695312 107.671875 -103.78125 C 105.941406 -94.257812 103.671875 -85.175781 100.859375 -76.53125 C 98.046875 -67.882812 95.773438 -59.671875 94.046875 -51.890625 C 93.609375 -44.972656 93.28125 -38.269531 93.0625 -31.78125 C 92.851562 -25.289062 91.882812 -19.238281 90.15625 -13.625 C 87.125 -3.238281 80.640625 2.382812 70.703125 3.25 C 65.941406 4.113281 61.398438 3.351562 57.078125 0.96875 C 52.753906 -1.40625 49.507812 -4.753906 47.34375 -9.078125 C 46.476562 -10.804688 45.722656 -12.425781 45.078125 -13.9375 C 44.429688 -15.457031 43.675781 -17.082031 42.8125 -18.8125 C 39.78125 -25.726562 38.484375 -33.078125 38.921875 -40.859375 C 41.078125 -55.554688 43.992188 -72.414062 47.671875 -91.4375 C 51.347656 -110.46875 55.238281 -130.144531 59.34375 -150.46875 C 63.457031 -170.789062 67.347656 -190.359375 71.015625 -209.171875 C 74.691406 -227.984375 77.828125 -244.519531 80.421875 -258.78125 C 82.585938 -271.757812 84.316406 -284.515625 85.609375 -297.046875 C 86.910156 -309.585938 90.585938 -319.96875 96.640625 -328.1875 C 99.671875 -332.507812 103.5625 -334.78125 108.3125 -335 C 113.070312 -335.21875 116.960938 -333.597656 119.984375 -330.140625 C 121.285156 -328.410156 122.472656 -326.894531 123.546875 -325.59375 C 124.628906 -324.289062 125.390625 -323.425781 125.828125 -323 C 129.285156 -318.238281 131.554688 -311.535156 132.640625 -302.890625 C 133.722656 -294.242188 133.613281 -287.539062 132.3125 -282.78125 Z M 245.171875 -177.0625 C 245.171875 -174.039062 241.816406 -169.285156 235.109375 -162.796875 C 228.410156 -156.304688 220.519531 -148.304688 211.4375 -138.796875 C 202.363281 -129.285156 194.472656 -118.257812 187.765625 -105.71875 C 181.066406 -93.175781 177.929688 -79.335938 178.359375 -64.203125 C 178.796875 -55.992188 180.523438 -48.101562 183.546875 -40.53125 C 186.578125 -32.96875 188.738281 -25.507812 190.03125 -18.15625 C 190.894531 -13.40625 189.8125 -9.191406 186.78125 -5.515625 C 183.757812 -1.835938 179.875 -0.21875 175.125 -0.65625 C 169.9375 -0.65625 165.070312 -2.054688 160.53125 -4.859375 C 155.988281 -7.671875 151.769531 -10.59375 147.875 -13.625 C 142.257812 -19.238281 138.15625 -25.722656 135.5625 -33.078125 C 132.96875 -45.617188 130.585938 -58.265625 128.421875 -71.015625 C 126.253906 -83.773438 126.253906 -96.53125 128.421875 -109.28125 C 130.585938 -122.039062 136.207031 -134.257812 145.28125 -145.9375 C 148.738281 -150.6875 152.738281 -155.007812 157.28125 -158.90625 C 161.820312 -162.800781 166.253906 -166.910156 170.578125 -171.234375 C 174.035156 -175.117188 177.816406 -179.65625 181.921875 -184.84375 C 186.035156 -190.03125 190.90625 -194.359375 196.53125 -197.828125 C 203.875 -203.878906 212.085938 -204.742188 221.171875 -200.421875 C 227.222656 -196.960938 232.625 -193.828125 237.375 -191.015625 C 242.132812 -188.203125 244.734375 -183.550781 245.171875 -177.0625 Z M 245.171875 -177.0625 "/></g></g></g></g></g><g transform="matrix(1, 0, 0, 1, 254, 785)"><g clip-path="url(#ecfc0533b2)"><g fill="#c1121f" fill-opacity="1"><g transform="translate(0.239328, 177.852058)"><g><path d="M 90.765625 -13.890625 C 88.597656 -10.441406 86.007812 -7.707031 83 -5.6875 C 80 -3.664062 76.820312 -1.914062 73.46875 -0.4375 C 71.5 0.34375 69.332031 0.90625 66.96875 1.25 C 64.601562 1.601562 62.1875 1.753906 59.71875 1.703125 C 57.257812 1.648438 54.894531 1.453125 52.625 1.109375 C 50.363281 0.765625 48.394531 0.347656 46.71875 -0.140625 C 43.957031 -0.929688 41.394531 -2.015625 39.03125 -3.390625 C 36.664062 -4.773438 34.203125 -6.160156 31.640625 -7.546875 C 29.960938 -8.429688 28.359375 -9.609375 26.828125 -11.078125 C 25.304688 -12.554688 23.804688 -14.132812 22.328125 -15.8125 C 21.535156 -16.800781 20.890625 -17.539062 20.390625 -18.03125 C 19.898438 -18.53125 19.265625 -19.367188 18.484375 -20.546875 C 18.085938 -21.335938 17.519531 -21.953125 16.78125 -22.390625 C 16.039062 -22.835938 15.472656 -23.40625 15.078125 -24.09375 C 14.679688 -24.582031 14.410156 -25.242188 14.265625 -26.078125 C 14.117188 -26.921875 13.847656 -27.738281 13.453125 -28.53125 C 12.960938 -29.320312 12.421875 -30.085938 11.828125 -30.828125 C 11.234375 -31.566406 10.789062 -32.28125 10.5 -32.96875 C 10.300781 -33.457031 10.203125 -34.046875 10.203125 -34.734375 C 10.203125 -35.429688 10.101562 -36.023438 9.90625 -36.515625 C 9.707031 -37.304688 9.382812 -38.019531 8.9375 -38.65625 C 8.5 -39.300781 8.179688 -39.867188 7.984375 -40.359375 C 7.585938 -42.328125 7.4375 -44.421875 7.53125 -46.640625 C 7.632812 -48.859375 7.785156 -50.804688 7.984375 -52.484375 C 8.578125 -57.210938 9.734375 -61.691406 11.453125 -65.921875 C 13.179688 -70.160156 14.585938 -74.5 15.671875 -78.9375 C 15.765625 -79.332031 16.054688 -79.503906 16.546875 -79.453125 C 17.046875 -79.410156 17.394531 -79.582031 17.59375 -79.96875 C 18.96875 -82.632812 20.640625 -85.492188 22.609375 -88.546875 C 24.585938 -91.597656 26.757812 -93.960938 29.125 -95.640625 C 30.40625 -96.523438 31.515625 -97.140625 32.453125 -97.484375 C 33.390625 -97.835938 34.691406 -98.359375 36.359375 -99.046875 C 37.640625 -99.535156 38.722656 -99.925781 39.609375 -100.21875 C 40.503906 -100.519531 41.59375 -100.914062 42.875 -101.40625 C 43.65625 -101.707031 44.441406 -101.953125 45.234375 -102.140625 C 46.023438 -102.335938 47.109375 -102.585938 48.484375 -102.890625 C 49.765625 -103.179688 50.820312 -103.597656 51.65625 -104.140625 C 52.5 -104.679688 53.609375 -104.90625 54.984375 -104.8125 C 55.679688 -104.8125 56.25 -105.128906 56.6875 -105.765625 C 57.132812 -106.410156 57.601562 -106.734375 58.09375 -106.734375 C 60.957031 -106.734375 63.691406 -106.734375 66.296875 -106.734375 C 68.910156 -106.734375 71.300781 -106.335938 73.46875 -105.546875 C 73.957031 -105.347656 74.375 -105.023438 74.71875 -104.578125 C 75.070312 -104.140625 75.492188 -103.820312 75.984375 -103.625 C 76.671875 -103.226562 77.457031 -102.957031 78.34375 -102.8125 C 79.226562 -102.664062 80.113281 -102.519531 81 -102.375 C 81.894531 -102.226562 82.734375 -102.003906 83.515625 -101.703125 C 84.304688 -101.410156 84.898438 -100.96875 85.296875 -100.375 C 86.179688 -99.09375 87.4375 -97.6875 89.0625 -96.15625 C 90.6875 -94.632812 92.085938 -93.0625 93.265625 -91.4375 C 94.453125 -89.8125 95.09375 -88.160156 95.1875 -86.484375 C 95.289062 -84.804688 94.210938 -83.175781 91.953125 -81.59375 C 90.867188 -80.8125 89.832031 -80.441406 88.84375 -80.484375 C 87.851562 -80.535156 86.914062 -80.804688 86.03125 -81.296875 C 85.144531 -81.796875 84.304688 -82.4375 83.515625 -83.21875 C 82.734375 -84.007812 82.046875 -84.75 81.453125 -85.4375 C 80.765625 -86.226562 80.25 -86.96875 79.90625 -87.65625 C 79.5625 -88.351562 78.992188 -89.09375 78.203125 -89.875 C 77.898438 -90.269531 77.675781 -90.640625 77.53125 -90.984375 C 77.382812 -91.328125 77.210938 -91.597656 77.015625 -91.796875 C 75.835938 -92.492188 74.285156 -93.0625 72.359375 -93.5 C 70.441406 -93.945312 68.347656 -94.21875 66.078125 -94.3125 C 63.804688 -94.414062 61.515625 -94.367188 59.203125 -94.171875 C 56.890625 -93.972656 54.796875 -93.625 52.921875 -93.125 C 49.472656 -92.238281 46.21875 -91.007812 43.15625 -89.4375 C 40.101562 -87.863281 37.59375 -86.238281 35.625 -84.5625 C 34.25 -83.375 32.820312 -82.015625 31.34375 -80.484375 C 29.863281 -78.960938 28.679688 -77.316406 27.796875 -75.546875 C 27.203125 -74.359375 26.753906 -73.070312 26.453125 -71.6875 C 26.160156 -70.3125 25.769531 -69.035156 25.28125 -67.859375 C 24.976562 -67.160156 24.582031 -66.566406 24.09375 -66.078125 C 23.601562 -65.585938 23.257812 -65 23.0625 -64.3125 C 22.863281 -63.914062 22.835938 -63.46875 22.984375 -62.96875 C 23.128906 -62.476562 23.15625 -62.085938 23.0625 -61.796875 C 22.570312 -59.816406 22.003906 -57.988281 21.359375 -56.3125 C 20.722656 -54.644531 20.304688 -52.828125 20.109375 -50.859375 C 19.910156 -47.703125 20.351562 -44.59375 21.4375 -41.53125 C 22.519531 -38.476562 23.703125 -35.820312 24.984375 -33.5625 C 27.640625 -28.238281 31.429688 -23.601562 36.359375 -19.65625 C 41.285156 -15.71875 46.851562 -13.207031 53.0625 -12.125 C 55.625 -11.625 58.0625 -11.421875 60.375 -11.515625 C 62.695312 -11.617188 65.140625 -12.066406 67.703125 -12.859375 C 68.890625 -13.148438 70 -13.421875 71.03125 -13.671875 C 72.0625 -13.921875 73.09375 -14.191406 74.125 -14.484375 C 75.164062 -14.785156 76.253906 -15.179688 77.390625 -15.671875 C 78.523438 -16.160156 79.78125 -16.847656 81.15625 -17.734375 C 81.945312 -18.328125 82.957031 -18.769531 84.1875 -19.0625 C 85.414062 -19.363281 86.644531 -19.535156 87.875 -19.578125 C 89.113281 -19.628906 90.25 -19.507812 91.28125 -19.21875 C 92.320312 -18.925781 92.988281 -18.429688 93.28125 -17.734375 C 93.476562 -17.242188 93.253906 -16.75 92.609375 -16.25 C 91.972656 -15.757812 91.359375 -14.972656 90.765625 -13.890625 Z M 90.765625 -13.890625 "/></g></g></g><g fill="#c1121f" fill-opacity="1"><g transform="translate(109.191344, 177.852058)"><g><path d="M 73.46875 -69.78125 C 74.851562 -67.800781 76.132812 -65.898438 77.3125 -64.078125 C 78.5 -62.253906 79.734375 -60.160156 81.015625 -57.796875 C 82.097656 -55.535156 82.957031 -53.414062 83.59375 -51.4375 C 84.238281 -49.46875 84.757812 -47.054688 85.15625 -44.203125 C 85.738281 -39.867188 85.164062 -35.234375 83.4375 -30.296875 C 81.71875 -25.367188 78.988281 -20.25 75.25 -14.9375 C 74.257812 -13.945312 73.421875 -13.082031 72.734375 -12.34375 C 72.046875 -11.601562 71.160156 -10.738281 70.078125 -9.75 C 68.796875 -8.664062 67.335938 -7.429688 65.703125 -6.046875 C 64.078125 -4.671875 62.425781 -3.640625 60.75 -2.953125 C 54.539062 -0.191406 48.1875 1.0625 41.6875 0.8125 C 35.1875 0.5625 28.976562 -1.675781 23.0625 -5.90625 C 19.3125 -8.175781 16.398438 -11.28125 14.328125 -15.21875 C 12.265625 -19.164062 10.445312 -23.40625 8.875 -27.9375 C 7.09375 -36.3125 7.015625 -44 8.640625 -51 C 10.273438 -58 13.257812 -63.960938 17.59375 -68.890625 C 17.882812 -70.765625 18.5 -72.265625 19.4375 -73.390625 C 20.375 -74.523438 21.484375 -75.488281 22.765625 -76.28125 C 24.046875 -77.070312 25.375 -77.8125 26.75 -78.5 C 28.132812 -79.1875 29.414062 -80.023438 30.59375 -81.015625 C 34.832031 -81.992188 38.945312 -82.382812 42.9375 -82.1875 C 46.9375 -81.988281 50.78125 -81.347656 54.46875 -80.265625 C 58.164062 -79.179688 61.613281 -77.726562 64.8125 -75.90625 C 68.019531 -74.082031 70.90625 -72.039062 73.46875 -69.78125 Z M 35.1875 -70.8125 C 33.601562 -69.53125 31.972656 -68.394531 30.296875 -67.40625 C 28.628906 -66.425781 27.203125 -65.144531 26.015625 -63.5625 C 23.359375 -59.914062 21.4375 -55.65625 20.25 -50.78125 C 19.070312 -45.90625 18.628906 -41.023438 18.921875 -36.140625 C 19.210938 -31.265625 20.242188 -26.632812 22.015625 -22.25 C 23.796875 -17.863281 26.363281 -14.335938 29.71875 -11.671875 C 31.6875 -10.890625 33.679688 -10.175781 35.703125 -9.53125 C 37.722656 -8.894531 40.0625 -8.476562 42.71875 -8.28125 C 43.601562 -8.769531 44.488281 -9.0625 45.375 -9.15625 C 46.269531 -9.257812 47.257812 -9.265625 48.34375 -9.171875 C 52.082031 -10.453125 55.601562 -12.175781 58.90625 -14.34375 C 62.207031 -16.507812 65.039062 -19.117188 67.40625 -22.171875 C 69.769531 -25.222656 71.640625 -28.71875 73.015625 -32.65625 C 74.398438 -36.601562 75.046875 -41.039062 74.953125 -45.96875 C 73.867188 -54.25 70.8125 -60.953125 65.78125 -66.078125 C 60.757812 -71.203125 54.054688 -73.765625 45.671875 -73.765625 C 43.703125 -73.671875 41.953125 -73.253906 40.421875 -72.515625 C 38.898438 -71.773438 37.15625 -71.207031 35.1875 -70.8125 Z M 35.1875 -70.8125 "/></g></g></g><g fill="#c1121f" fill-opacity="1"><g transform="translate(208.534296, 177.852058)"><g><path d="M 72.578125 -91.0625 C 72.285156 -91.945312 72.210938 -92.832031 72.359375 -93.71875 C 72.503906 -94.601562 72.648438 -95.460938 72.796875 -96.296875 C 72.953125 -97.140625 73.078125 -98.003906 73.171875 -98.890625 C 73.273438 -99.785156 73.175781 -100.773438 72.875 -101.859375 C 72.476562 -103.429688 71.785156 -104.660156 70.796875 -105.546875 C 69.816406 -106.429688 68.660156 -106.972656 67.328125 -107.171875 C 66.003906 -107.367188 64.550781 -107.296875 62.96875 -106.953125 C 61.394531 -106.609375 59.867188 -106.039062 58.390625 -105.25 C 56.117188 -103.96875 53.972656 -102.289062 51.953125 -100.21875 C 49.941406 -98.15625 48.144531 -96.429688 46.5625 -95.046875 C 45.1875 -92.296875 43.859375 -89.539062 42.578125 -86.78125 C 41.296875 -84.019531 40.257812 -81.007812 39.46875 -77.75 C 38.582031 -74.007812 38.015625 -70.09375 37.765625 -66 C 37.523438 -61.914062 37.304688 -57.753906 37.109375 -53.515625 C 37.109375 -52.628906 37.03125 -51.71875 36.875 -50.78125 C 36.726562 -49.84375 37.003906 -48.976562 37.703125 -48.1875 C 43.609375 -48.382812 49.222656 -48.53125 54.546875 -48.625 C 59.867188 -48.726562 64.847656 -48.582031 69.484375 -48.1875 C 70.066406 -47.40625 70.3125 -46.617188 70.21875 -45.828125 C 70.125 -45.035156 69.878906 -44.195312 69.484375 -43.3125 C 68.398438 -43.414062 67.507812 -43.070312 66.8125 -42.28125 C 66.125 -41.488281 65.238281 -40.894531 64.15625 -40.5 C 62.976562 -40.207031 61.625 -39.988281 60.09375 -39.84375 C 58.5625 -39.695312 56.957031 -39.625 55.28125 -39.625 C 53.613281 -39.625 51.914062 -39.597656 50.1875 -39.546875 C 48.457031 -39.492188 46.859375 -39.367188 45.390625 -39.171875 C 44.296875 -38.972656 43.035156 -38.847656 41.609375 -38.796875 C 40.179688 -38.753906 38.78125 -38.484375 37.40625 -37.984375 C 37.300781 -35.421875 37.394531 -32.660156 37.6875 -29.703125 C 37.988281 -26.753906 38.3125 -23.726562 38.65625 -20.625 C 39 -17.519531 39.289062 -14.414062 39.53125 -11.3125 C 39.78125 -8.207031 39.757812 -5.273438 39.46875 -2.515625 C 39.375 -1.921875 39.054688 -1.328125 38.515625 -0.734375 C 37.972656 -0.148438 37.503906 0.390625 37.109375 0.890625 C 36.515625 0.785156 35.847656 0.679688 35.109375 0.578125 C 34.367188 0.484375 33.65625 0.335938 32.96875 0.140625 C 32.28125 -0.046875 31.6875 -0.335938 31.1875 -0.734375 C 30.695312 -1.128906 30.304688 -1.722656 30.015625 -2.515625 C 29.710938 -3.691406 29.6875 -5.117188 29.9375 -6.796875 C 30.1875 -8.472656 30.210938 -10.148438 30.015625 -11.828125 C 29.910156 -13.992188 29.707031 -16.207031 29.40625 -18.46875 C 29.113281 -20.738281 28.84375 -23.003906 28.59375 -25.265625 C 28.351562 -27.535156 28.132812 -29.726562 27.9375 -31.84375 C 27.738281 -33.96875 27.691406 -35.921875 27.796875 -37.703125 C 26.015625 -37.992188 23.941406 -38.140625 21.578125 -38.140625 C 19.210938 -38.140625 17.019531 -38.359375 15 -38.796875 C 12.976562 -39.242188 11.375 -40.082031 10.1875 -41.3125 C 9.007812 -42.550781 8.71875 -44.550781 9.3125 -47.3125 C 10.5 -48.195312 11.753906 -48.710938 13.078125 -48.859375 C 14.410156 -49.003906 15.816406 -48.953125 17.296875 -48.703125 C 18.773438 -48.460938 20.300781 -48.21875 21.875 -47.96875 C 23.457031 -47.71875 25.035156 -47.691406 26.609375 -47.890625 C 26.898438 -52.328125 27.191406 -56.882812 27.484375 -61.5625 C 27.785156 -66.25 28.253906 -70.832031 28.890625 -75.3125 C 29.535156 -79.800781 30.445312 -84.113281 31.625 -88.25 C 32.8125 -92.394531 34.390625 -96.140625 36.359375 -99.484375 C 37.546875 -100.472656 38.507812 -101.628906 39.25 -102.953125 C 39.988281 -104.285156 40.898438 -105.492188 41.984375 -106.578125 C 42.972656 -107.660156 44.109375 -108.546875 45.390625 -109.234375 C 46.671875 -109.929688 47.601562 -110.96875 48.1875 -112.34375 C 51.050781 -113.53125 54.035156 -114.664062 57.140625 -115.75 C 60.242188 -116.832031 63.816406 -117.03125 67.859375 -116.34375 C 70.421875 -115.457031 72.660156 -114.175781 74.578125 -112.5 C 76.503906 -110.820312 78.300781 -108.847656 79.96875 -106.578125 C 79.769531 -105.296875 79.96875 -104.1875 80.5625 -103.25 C 81.15625 -102.320312 81.453125 -101.164062 81.453125 -99.78125 C 81.453125 -98.5 81.226562 -97.21875 80.78125 -95.9375 C 80.34375 -94.65625 79.726562 -93.546875 78.9375 -92.609375 C 78.144531 -91.671875 77.207031 -91.03125 76.125 -90.6875 C 75.039062 -90.34375 73.859375 -90.46875 72.578125 -91.0625 Z M 72.578125 -91.0625 "/></g></g></g><g fill="#c1121f" fill-opacity="1"><g transform="translate(292.354936, 177.852058)"><g><path d="M 72.578125 -91.0625 C 72.285156 -91.945312 72.210938 -92.832031 72.359375 -93.71875 C 72.503906 -94.601562 72.648438 -95.460938 72.796875 -96.296875 C 72.953125 -97.140625 73.078125 -98.003906 73.171875 -98.890625 C 73.273438 -99.785156 73.175781 -100.773438 72.875 -101.859375 C 72.476562 -103.429688 71.785156 -104.660156 70.796875 -105.546875 C 69.816406 -106.429688 68.660156 -106.972656 67.328125 -107.171875 C 66.003906 -107.367188 64.550781 -107.296875 62.96875 -106.953125 C 61.394531 -106.609375 59.867188 -106.039062 58.390625 -105.25 C 56.117188 -103.96875 53.972656 -102.289062 51.953125 -100.21875 C 49.941406 -98.15625 48.144531 -96.429688 46.5625 -95.046875 C 45.1875 -92.296875 43.859375 -89.539062 42.578125 -86.78125 C 41.296875 -84.019531 40.257812 -81.007812 39.46875 -77.75 C 38.582031 -74.007812 38.015625 -70.09375 37.765625 -66 C 37.523438 -61.914062 37.304688 -57.753906 37.109375 -53.515625 C 37.109375 -52.628906 37.03125 -51.71875 36.875 -50.78125 C 36.726562 -49.84375 37.003906 -48.976562 37.703125 -48.1875 C 43.609375 -48.382812 49.222656 -48.53125 54.546875 -48.625 C 59.867188 -48.726562 64.847656 -48.582031 69.484375 -48.1875 C 70.066406 -47.40625 70.3125 -46.617188 70.21875 -45.828125 C 70.125 -45.035156 69.878906 -44.195312 69.484375 -43.3125 C 68.398438 -43.414062 67.507812 -43.070312 66.8125 -42.28125 C 66.125 -41.488281 65.238281 -40.894531 64.15625 -40.5 C 62.976562 -40.207031 61.625 -39.988281 60.09375 -39.84375 C 58.5625 -39.695312 56.957031 -39.625 55.28125 -39.625 C 53.613281 -39.625 51.914062 -39.597656 50.1875 -39.546875 C 48.457031 -39.492188 46.859375 -39.367188 45.390625 -39.171875 C 44.296875 -38.972656 43.035156 -38.847656 41.609375 -38.796875 C 40.179688 -38.753906 38.78125 -38.484375 37.40625 -37.984375 C 37.300781 -35.421875 37.394531 -32.660156 37.6875 -29.703125 C 37.988281 -26.753906 38.3125 -23.726562 38.65625 -20.625 C 39 -17.519531 39.289062 -14.414062 39.53125 -11.3125 C 39.78125 -8.207031 39.757812 -5.273438 39.46875 -2.515625 C 39.375 -1.921875 39.054688 -1.328125 38.515625 -0.734375 C 37.972656 -0.148438 37.503906 0.390625 37.109375 0.890625 C 36.515625 0.785156 35.847656 0.679688 35.109375 0.578125 C 34.367188 0.484375 33.65625 0.335938 32.96875 0.140625 C 32.28125 -0.046875 31.6875 -0.335938 31.1875 -0.734375 C 30.695312 -1.128906 30.304688 -1.722656 30.015625 -2.515625 C 29.710938 -3.691406 29.6875 -5.117188 29.9375 -6.796875 C 30.1875 -8.472656 30.210938 -10.148438 30.015625 -11.828125 C 29.910156 -13.992188 29.707031 -16.207031 29.40625 -18.46875 C 29.113281 -20.738281 28.84375 -23.003906 28.59375 -25.265625 C 28.351562 -27.535156 28.132812 -29.726562 27.9375 -31.84375 C 27.738281 -33.96875 27.691406 -35.921875 27.796875 -37.703125 C 26.015625 -37.992188 23.941406 -38.140625 21.578125 -38.140625 C 19.210938 -38.140625 17.019531 -38.359375 15 -38.796875 C 12.976562 -39.242188 11.375 -40.082031 10.1875 -41.3125 C 9.007812 -42.550781 8.71875 -44.550781 9.3125 -47.3125 C 10.5 -48.195312 11.753906 -48.710938 13.078125 -48.859375 C 14.410156 -49.003906 15.816406 -48.953125 17.296875 -48.703125 C 18.773438 -48.460938 20.300781 -48.21875 21.875 -47.96875 C 23.457031 -47.71875 25.035156 -47.691406 26.609375 -47.890625 C 26.898438 -52.328125 27.191406 -56.882812 27.484375 -61.5625 C 27.785156 -66.25 28.253906 -70.832031 28.890625 -75.3125 C 29.535156 -79.800781 30.445312 -84.113281 31.625 -88.25 C 32.8125 -92.394531 34.390625 -96.140625 36.359375 -99.484375 C 37.546875 -100.472656 38.507812 -101.628906 39.25 -102.953125 C 39.988281 -104.285156 40.898438 -105.492188 41.984375 -106.578125 C 42.972656 -107.660156 44.109375 -108.546875 45.390625 -109.234375 C 46.671875 -109.929688 47.601562 -110.96875 48.1875 -112.34375 C 51.050781 -113.53125 54.035156 -114.664062 57.140625 -115.75 C 60.242188 -116.832031 63.816406 -117.03125 67.859375 -116.34375 C 70.421875 -115.457031 72.660156 -114.175781 74.578125 -112.5 C 76.503906 -110.820312 78.300781 -108.847656 79.96875 -106.578125 C 79.769531 -105.296875 79.96875 -104.1875 80.5625 -103.25 C 81.15625 -102.320312 81.453125 -101.164062 81.453125 -99.78125 C 81.453125 -98.5 81.226562 -97.21875 80.78125 -95.9375 C 80.34375 -94.65625 79.726562 -93.546875 78.9375 -92.609375 C 78.144531 -91.671875 77.207031 -91.03125 76.125 -90.6875 C 75.039062 -90.34375 73.859375 -90.46875 72.578125 -91.0625 Z M 72.578125 -91.0625 "/></g></g></g><g fill="#c1121f" fill-opacity="1"><g transform="translate(376.1756, 177.852058)"><g><path d="M 20.984375 -35.1875 C 20.796875 -30.84375 21.242188 -27.316406 22.328125 -24.609375 C 23.410156 -21.898438 24.789062 -19.21875 26.46875 -16.5625 C 28.039062 -15.570312 29.414062 -14.707031 30.59375 -13.96875 C 31.78125 -13.226562 32.890625 -12.5625 33.921875 -11.96875 C 34.960938 -11.382812 36.046875 -10.894531 37.171875 -10.5 C 38.304688 -10.101562 39.664062 -9.804688 41.25 -9.609375 C 43.019531 -9.316406 45.035156 -9.191406 47.296875 -9.234375 C 49.566406 -9.285156 51.835938 -9.507812 54.109375 -9.90625 C 55.785156 -10.101562 57.726562 -10.519531 59.9375 -11.15625 C 62.15625 -11.800781 64.253906 -12.566406 66.234375 -13.453125 C 67.015625 -13.847656 67.992188 -14.460938 69.171875 -15.296875 C 70.359375 -16.140625 71.492188 -16.804688 72.578125 -17.296875 C 73.660156 -17.785156 74.617188 -17.929688 75.453125 -17.734375 C 76.296875 -17.535156 76.816406 -16.601562 77.015625 -14.9375 C 77.210938 -13.457031 76.941406 -12.078125 76.203125 -10.796875 C 75.460938 -9.515625 74.523438 -8.351562 73.390625 -7.3125 C 72.265625 -6.28125 71.007812 -5.394531 69.625 -4.65625 C 68.25 -3.914062 67.019531 -3.347656 65.9375 -2.953125 C 65.144531 -2.554688 64.15625 -2.285156 62.96875 -2.140625 C 61.789062 -1.992188 60.5625 -1.773438 59.28125 -1.484375 C 53.070312 -0.00390625 46.765625 0.316406 40.359375 -0.515625 C 33.953125 -1.359375 28.382812 -3.253906 23.65625 -6.203125 C 21.78125 -7.484375 20.101562 -9.109375 18.625 -11.078125 C 17.144531 -13.054688 15.914062 -14.984375 14.9375 -16.859375 C 12.757812 -21.085938 11.28125 -25.664062 10.5 -30.59375 C 10.300781 -31.382812 10.25 -32.148438 10.34375 -32.890625 C 10.445312 -33.628906 10.398438 -34.394531 10.203125 -35.1875 C 10.003906 -35.769531 9.632812 -36.476562 9.09375 -37.3125 C 8.550781 -38.15625 8.109375 -38.972656 7.765625 -39.765625 C 7.421875 -40.554688 7.367188 -41.320312 7.609375 -42.0625 C 7.859375 -42.800781 8.722656 -43.414062 10.203125 -43.90625 C 10.890625 -49.71875 12.316406 -54.9375 14.484375 -59.5625 C 16.648438 -64.195312 19.507812 -68.046875 23.0625 -71.109375 C 25.226562 -72.878906 27.539062 -74.675781 30 -76.5 C 32.46875 -78.320312 35.378906 -79.628906 38.734375 -80.421875 C 40.410156 -80.816406 42.304688 -80.960938 44.421875 -80.859375 C 46.535156 -80.765625 48.1875 -80.816406 49.375 -81.015625 C 51.738281 -80.117188 54.03125 -79.203125 56.25 -78.265625 C 58.46875 -77.335938 60.507812 -76.253906 62.375 -75.015625 C 64.25 -73.785156 65.875 -72.285156 67.25 -70.515625 C 68.632812 -68.742188 69.625 -66.523438 70.21875 -63.859375 C 70.019531 -62.484375 69.75 -61.175781 69.40625 -59.9375 C 69.0625 -58.707031 68.789062 -57.40625 68.59375 -56.03125 C 68.488281 -54.644531 68.582031 -53.257812 68.875 -51.875 C 69.175781 -50.5 68.882812 -49.269531 68 -48.1875 C 67.707031 -47.789062 67.191406 -47.445312 66.453125 -47.15625 C 65.710938 -46.863281 64.894531 -46.566406 64 -46.265625 C 63.113281 -45.972656 62.226562 -45.703125 61.34375 -45.453125 C 60.457031 -45.210938 59.671875 -44.992188 58.984375 -44.796875 C 57.109375 -44.296875 55.160156 -43.992188 53.140625 -43.890625 C 51.117188 -43.796875 49.269531 -43.503906 47.59375 -43.015625 C 43.457031 -41.929688 39.171875 -40.550781 34.734375 -38.875 C 30.304688 -37.195312 25.722656 -35.96875 20.984375 -35.1875 Z M 54.84375 -69.03125 C 52.476562 -69.914062 50.429688 -70.53125 48.703125 -70.875 C 46.984375 -71.226562 44.789062 -71.007812 42.125 -70.21875 C 37.394531 -67.75 33.328125 -64.738281 29.921875 -61.1875 C 26.523438 -57.644531 24.140625 -53.019531 22.765625 -47.3125 C 28.972656 -48.488281 35.109375 -49.960938 41.171875 -51.734375 C 47.234375 -53.515625 53.46875 -54.648438 59.875 -55.140625 C 59.375 -57.210938 59.320312 -59.160156 59.71875 -60.984375 C 60.113281 -62.804688 60.066406 -64.648438 59.578125 -66.515625 C 58.785156 -66.910156 57.992188 -67.328125 57.203125 -67.765625 C 56.421875 -68.210938 55.632812 -68.632812 54.84375 -69.03125 Z M 54.84375 -69.03125 "/></g></g></g><g fill="#c1121f" fill-opacity="1"><g transform="translate(469.013999, 177.852058)"><g><path d="M 20.984375 -35.1875 C 20.796875 -30.84375 21.242188 -27.316406 22.328125 -24.609375 C 23.410156 -21.898438 24.789062 -19.21875 26.46875 -16.5625 C 28.039062 -15.570312 29.414062 -14.707031 30.59375 -13.96875 C 31.78125 -13.226562 32.890625 -12.5625 33.921875 -11.96875 C 34.960938 -11.382812 36.046875 -10.894531 37.171875 -10.5 C 38.304688 -10.101562 39.664062 -9.804688 41.25 -9.609375 C 43.019531 -9.316406 45.035156 -9.191406 47.296875 -9.234375 C 49.566406 -9.285156 51.835938 -9.507812 54.109375 -9.90625 C 55.785156 -10.101562 57.726562 -10.519531 59.9375 -11.15625 C 62.15625 -11.800781 64.253906 -12.566406 66.234375 -13.453125 C 67.015625 -13.847656 67.992188 -14.460938 69.171875 -15.296875 C 70.359375 -16.140625 71.492188 -16.804688 72.578125 -17.296875 C 73.660156 -17.785156 74.617188 -17.929688 75.453125 -17.734375 C 76.296875 -17.535156 76.816406 -16.601562 77.015625 -14.9375 C 77.210938 -13.457031 76.941406 -12.078125 76.203125 -10.796875 C 75.460938 -9.515625 74.523438 -8.351562 73.390625 -7.3125 C 72.265625 -6.28125 71.007812 -5.394531 69.625 -4.65625 C 68.25 -3.914062 67.019531 -3.347656 65.9375 -2.953125 C 65.144531 -2.554688 64.15625 -2.285156 62.96875 -2.140625 C 61.789062 -1.992188 60.5625 -1.773438 59.28125 -1.484375 C 53.070312 -0.00390625 46.765625 0.316406 40.359375 -0.515625 C 33.953125 -1.359375 28.382812 -3.253906 23.65625 -6.203125 C 21.78125 -7.484375 20.101562 -9.109375 18.625 -11.078125 C 17.144531 -13.054688 15.914062 -14.984375 14.9375 -16.859375 C 12.757812 -21.085938 11.28125 -25.664062 10.5 -30.59375 C 10.300781 -31.382812 10.25 -32.148438 10.34375 -32.890625 C 10.445312 -33.628906 10.398438 -34.394531 10.203125 -35.1875 C 10.003906 -35.769531 9.632812 -36.476562 9.09375 -37.3125 C 8.550781 -38.15625 8.109375 -38.972656 7.765625 -39.765625 C 7.421875 -40.554688 7.367188 -41.320312 7.609375 -42.0625 C 7.859375 -42.800781 8.722656 -43.414062 10.203125 -43.90625 C 10.890625 -49.71875 12.316406 -54.9375 14.484375 -59.5625 C 16.648438 -64.195312 19.507812 -68.046875 23.0625 -71.109375 C 25.226562 -72.878906 27.539062 -74.675781 30 -76.5 C 32.46875 -78.320312 35.378906 -79.628906 38.734375 -80.421875 C 40.410156 -80.816406 42.304688 -80.960938 44.421875 -80.859375 C 46.535156 -80.765625 48.1875 -80.816406 49.375 -81.015625 C 51.738281 -80.117188 54.03125 -79.203125 56.25 -78.265625 C 58.46875 -77.335938 60.507812 -76.253906 62.375 -75.015625 C 64.25 -73.785156 65.875 -72.285156 67.25 -70.515625 C 68.632812 -68.742188 69.625 -66.523438 70.21875 -63.859375 C 70.019531 -62.484375 69.75 -61.175781 69.40625 -59.9375 C 69.0625 -58.707031 68.789062 -57.40625 68.59375 -56.03125 C 68.488281 -54.644531 68.582031 -53.257812 68.875 -51.875 C 69.175781 -50.5 68.882812 -49.269531 68 -48.1875 C 67.707031 -47.789062 67.191406 -47.445312 66.453125 -47.15625 C 65.710938 -46.863281 64.894531 -46.566406 64 -46.265625 C 63.113281 -45.972656 62.226562 -45.703125 61.34375 -45.453125 C 60.457031 -45.210938 59.671875 -44.992188 58.984375 -44.796875 C 57.109375 -44.296875 55.160156 -43.992188 53.140625 -43.890625 C 51.117188 -43.796875 49.269531 -43.503906 47.59375 -43.015625 C 43.457031 -41.929688 39.171875 -40.550781 34.734375 -38.875 C 30.304688 -37.195312 25.722656 -35.96875 20.984375 -35.1875 Z M 54.84375 -69.03125 C 52.476562 -69.914062 50.429688 -70.53125 48.703125 -70.875 C 46.984375 -71.226562 44.789062 -71.007812 42.125 -70.21875 C 37.394531 -67.75 33.328125 -64.738281 29.921875 -61.1875 C 26.523438 -57.644531 24.140625 -53.019531 22.765625 -47.3125 C 28.972656 -48.488281 35.109375 -49.960938 41.171875 -51.734375 C 47.234375 -53.515625 53.46875 -54.648438 59.875 -55.140625 C 59.375 -57.210938 59.320312 -59.160156 59.71875 -60.984375 C 60.113281 -62.804688 60.066406 -64.648438 59.578125 -66.515625 C 58.785156 -66.910156 57.992188 -67.328125 57.203125 -67.765625 C 56.421875 -68.210938 55.632812 -68.632812 54.84375 -69.03125 Z M 54.84375 -69.03125 "/></g></g></g><g fill="#c1121f" fill-opacity="1"><g transform="translate(561.852376, 177.852058)"><g/></g></g><g fill="#c1121f" fill-opacity="1"><g transform="translate(607.532454, 177.852058)"><g><path d="M 11.828125 -28.96875 C 12.316406 -28.875 12.878906 -28.847656 13.515625 -28.890625 C 14.160156 -28.941406 14.632812 -28.867188 14.9375 -28.671875 C 15.71875 -27.890625 16.550781 -27.050781 17.4375 -26.15625 C 18.332031 -25.269531 18.628906 -24.285156 18.328125 -23.203125 C 17.535156 -20.054688 17.65625 -17.320312 18.6875 -15 C 19.726562 -12.6875 21.359375 -10.816406 23.578125 -9.390625 C 25.796875 -7.960938 28.382812 -7.070312 31.34375 -6.71875 C 34.300781 -6.375 37.253906 -6.597656 40.203125 -7.390625 C 42.671875 -8.078125 44.691406 -9.1875 46.265625 -10.71875 C 47.847656 -12.25 49.425781 -13.40625 51 -14.1875 C 53.164062 -17.25 54.195312 -20.035156 54.09375 -22.546875 C 54 -25.054688 53.238281 -27.34375 51.8125 -29.40625 C 50.382812 -31.476562 48.488281 -33.351562 46.125 -35.03125 C 43.757812 -36.707031 41.492188 -38.1875 39.328125 -39.46875 C 38.242188 -40.0625 37.132812 -40.554688 36 -40.953125 C 34.863281 -41.347656 33.800781 -41.789062 32.8125 -42.28125 C 32.414062 -42.476562 32.09375 -42.769531 31.84375 -43.15625 C 31.601562 -43.550781 31.238281 -43.898438 30.75 -44.203125 C 29.363281 -45.285156 28.003906 -46.171875 26.671875 -46.859375 C 25.347656 -47.546875 24 -48.484375 22.625 -49.671875 C 22.425781 -49.867188 22.203125 -50.164062 21.953125 -50.5625 C 21.703125 -50.957031 21.429688 -51.300781 21.140625 -51.59375 C 19.753906 -53.164062 18.46875 -54.9375 17.28125 -56.90625 C 16.101562 -58.882812 15.515625 -61.300781 15.515625 -64.15625 C 15.515625 -65.632812 15.710938 -66.941406 16.109375 -68.078125 C 16.503906 -69.210938 17.019531 -70.222656 17.65625 -71.109375 C 18.300781 -71.992188 18.992188 -72.851562 19.734375 -73.6875 C 20.472656 -74.53125 21.238281 -75.492188 22.03125 -76.578125 C 25.769531 -79.140625 30.347656 -81.28125 35.765625 -83 C 41.191406 -84.726562 47.007812 -85.148438 53.21875 -84.265625 C 53.90625 -84.160156 54.664062 -84.035156 55.5 -83.890625 C 56.34375 -83.742188 57.109375 -83.570312 57.796875 -83.375 C 58.097656 -83.28125 58.441406 -83.035156 58.828125 -82.640625 C 59.222656 -82.242188 59.71875 -81.945312 60.3125 -81.75 C 63.164062 -80.664062 65.703125 -79.160156 67.921875 -77.234375 C 70.140625 -75.316406 71.5 -72.832031 72 -69.78125 C 71.101562 -68.789062 70.039062 -68.441406 68.8125 -68.734375 C 67.582031 -69.035156 66.273438 -69.628906 64.890625 -70.515625 C 63.515625 -71.398438 62.132812 -72.332031 60.75 -73.3125 C 59.375 -74.300781 58.09375 -74.945312 56.90625 -75.25 C 56.414062 -75.34375 55.875 -75.335938 55.28125 -75.234375 C 54.695312 -75.140625 54.109375 -75.144531 53.515625 -75.25 C 52.722656 -75.34375 52.003906 -75.488281 51.359375 -75.6875 C 50.722656 -75.882812 50.109375 -75.984375 49.515625 -75.984375 C 47.941406 -75.984375 46.363281 -75.757812 44.78125 -75.3125 C 43.207031 -74.875 41.582031 -74.359375 39.90625 -73.765625 C 38.925781 -73.472656 37.867188 -73.203125 36.734375 -72.953125 C 35.597656 -72.703125 34.09375 -71.742188 32.21875 -70.078125 C 30.945312 -68.984375 29.71875 -67.941406 28.53125 -66.953125 C 27.34375 -65.972656 26.503906 -64.644531 26.015625 -62.96875 C 26.316406 -61.6875 26.832031 -60.332031 27.5625 -58.90625 C 28.300781 -57.476562 29.210938 -56.097656 30.296875 -54.765625 C 31.390625 -53.441406 32.695312 -52.257812 34.21875 -51.21875 C 35.75 -50.1875 37.453125 -49.472656 39.328125 -49.078125 C 40.109375 -48.285156 40.96875 -47.59375 41.90625 -47 C 42.84375 -46.414062 43.851562 -45.878906 44.9375 -45.390625 C 48.582031 -43.515625 51.929688 -41.242188 54.984375 -38.578125 C 56.078125 -37.597656 57.238281 -36.441406 58.46875 -35.109375 C 59.695312 -33.773438 60.800781 -32.296875 61.78125 -30.671875 C 62.769531 -29.046875 63.5625 -27.320312 64.15625 -25.5 C 64.75 -23.675781 64.992188 -21.78125 64.890625 -19.8125 C 64.796875 -17.539062 64.226562 -15.421875 63.1875 -13.453125 C 62.15625 -11.484375 60.847656 -9.660156 59.265625 -7.984375 C 57.691406 -6.304688 55.992188 -4.800781 54.171875 -3.46875 C 52.347656 -2.144531 50.601562 -0.988281 48.9375 0 C 46.070312 0.488281 43.132812 1.050781 40.125 1.6875 C 37.125 2.332031 34 2.363281 30.75 1.78125 C 27.789062 1.1875 25.03125 0.203125 22.46875 -1.171875 C 19.90625 -2.554688 17.585938 -3.84375 15.515625 -5.03125 C 14.828125 -6.40625 13.769531 -7.535156 12.34375 -8.421875 C 10.914062 -9.304688 9.804688 -10.539062 9.015625 -12.125 C 7.441406 -14.882812 7 -17.914062 7.6875 -21.21875 C 8.375 -24.519531 9.753906 -27.101562 11.828125 -28.96875 Z M 11.828125 -28.96875 "/></g></g></g><g fill="#c1121f" fill-opacity="1"><g transform="translate(695.196685, 177.852058)"><g><path d="M 32.21875 -130.53125 C 31.132812 -127.28125 30.125 -124.175781 29.1875 -121.21875 C 28.257812 -118.257812 27.398438 -114.8125 26.609375 -110.875 C 26.410156 -110.375 26.257812 -109.898438 26.15625 -109.453125 C 26.0625 -109.015625 25.914062 -108.453125 25.71875 -107.765625 C 24.9375 -104.609375 24.347656 -100.863281 23.953125 -96.53125 C 23.554688 -92.195312 23.113281 -87.8125 22.625 -83.375 C 22.125 -79.332031 21.648438 -75.21875 21.203125 -71.03125 C 20.765625 -66.84375 20.644531 -62.628906 20.84375 -58.390625 C 25.082031 -62.234375 28.753906 -65.410156 31.859375 -67.921875 C 34.960938 -70.441406 37.695312 -72.4375 40.0625 -73.90625 C 42.425781 -75.382812 44.519531 -76.46875 46.34375 -77.15625 C 48.164062 -77.851562 49.914062 -78.347656 51.59375 -78.640625 C 54.351562 -79.035156 57.015625 -78.789062 59.578125 -77.90625 C 62.140625 -77.019531 64.453125 -75.9375 66.515625 -74.65625 C 67.992188 -72.582031 69.226562 -70.191406 70.21875 -67.484375 C 71.207031 -64.773438 71.800781 -61.84375 72 -58.6875 C 72 -57.3125 71.847656 -55.957031 71.546875 -54.625 C 71.253906 -53.289062 71.40625 -51.984375 72 -50.703125 C 71.207031 -45.285156 70.390625 -39.148438 69.546875 -32.296875 C 68.710938 -25.453125 68 -18.628906 67.40625 -11.828125 C 67.3125 -10.742188 67.3125 -9.5625 67.40625 -8.28125 C 67.507812 -7 67.507812 -5.789062 67.40625 -4.65625 C 67.3125 -3.519531 67.066406 -2.507812 66.671875 -1.625 C 66.273438 -0.738281 65.582031 -0.195312 64.59375 0 C 63.21875 0.289062 62.035156 0.046875 61.046875 -0.734375 C 60.066406 -1.523438 59.082031 -2.117188 58.09375 -2.515625 C 57.5 -3.691406 57.148438 -5.046875 57.046875 -6.578125 C 56.953125 -8.109375 56.976562 -9.6875 57.125 -11.3125 C 57.28125 -12.9375 57.476562 -14.609375 57.71875 -16.328125 C 57.96875 -18.054688 58.191406 -19.707031 58.390625 -21.28125 C 58.679688 -25.03125 59.050781 -28.628906 59.5 -32.078125 C 59.945312 -35.523438 60.414062 -39.023438 60.90625 -42.578125 C 61.195312 -44.941406 61.441406 -47.476562 61.640625 -50.1875 C 61.835938 -52.894531 61.988281 -55.53125 62.09375 -58.09375 C 62.09375 -59.769531 61.992188 -61.394531 61.796875 -62.96875 C 61.597656 -64.550781 61.300781 -66.179688 60.90625 -67.859375 C 60.019531 -68.835938 58.738281 -69.375 57.0625 -69.46875 C 55.382812 -69.570312 53.707031 -69.378906 52.03125 -68.890625 C 50.164062 -68.398438 48.367188 -67.632812 46.640625 -66.59375 C 44.910156 -65.5625 43.28125 -64.378906 41.75 -63.046875 C 40.226562 -61.710938 38.773438 -60.40625 37.390625 -59.125 C 36.015625 -57.84375 34.6875 -56.757812 33.40625 -55.875 C 31.726562 -53.613281 30.175781 -51.789062 28.75 -50.40625 C 27.320312 -49.03125 25.722656 -47.359375 23.953125 -45.390625 C 23.453125 -44.691406 22.832031 -43.875 22.09375 -42.9375 C 21.351562 -42.007812 20.9375 -41 20.84375 -39.90625 C 21.4375 -32.914062 22.023438 -27.375 22.609375 -23.28125 C 23.203125 -19.1875 23.71875 -16.003906 24.15625 -13.734375 C 24.601562 -11.472656 24.925781 -9.875 25.125 -8.9375 C 25.320312 -8.007812 25.320312 -7.195312 25.125 -6.5 C 24.832031 -5.519531 24.191406 -4.878906 23.203125 -4.578125 C 22.222656 -4.285156 21.191406 -4.238281 20.109375 -4.4375 C 19.023438 -4.632812 18.015625 -5.023438 17.078125 -5.609375 C 16.140625 -6.203125 15.519531 -6.894531 15.21875 -7.6875 C 14.238281 -10.84375 13.550781 -14.734375 13.15625 -19.359375 C 12.757812 -23.992188 12.21875 -28.675781 11.53125 -33.40625 C 11.425781 -34 11.273438 -34.664062 11.078125 -35.40625 C 10.890625 -36.144531 10.742188 -37.226562 10.640625 -38.65625 C 10.546875 -40.082031 10.5 -41.976562 10.5 -44.34375 C 10.5 -46.707031 10.644531 -49.863281 10.9375 -53.8125 C 10.9375 -56.070312 10.835938 -58.3125 10.640625 -60.53125 C 10.441406 -62.75 10.441406 -64.992188 10.640625 -67.265625 C 11.128906 -71.597656 11.546875 -75.804688 11.890625 -79.890625 C 12.242188 -83.984375 12.765625 -88.445312 13.453125 -93.28125 C 14.046875 -97.125 14.488281 -100.941406 14.78125 -104.734375 C 15.070312 -108.523438 15.765625 -112.195312 16.859375 -115.75 C 17.640625 -118.507812 18.5 -121.34375 19.4375 -124.25 C 20.375 -127.15625 21.53125 -129.789062 22.90625 -132.15625 C 23.40625 -132.457031 23.847656 -132.828125 24.234375 -133.265625 C 24.628906 -133.710938 25.125 -134.035156 25.71875 -134.234375 C 28.382812 -133.242188 30.550781 -132.007812 32.21875 -130.53125 Z M 32.21875 -130.53125 "/></g></g></g><g fill="#c1121f" fill-opacity="1"><g transform="translate(785.817591, 177.852058)"><g><path d="M 73.46875 -69.78125 C 74.851562 -67.800781 76.132812 -65.898438 77.3125 -64.078125 C 78.5 -62.253906 79.734375 -60.160156 81.015625 -57.796875 C 82.097656 -55.535156 82.957031 -53.414062 83.59375 -51.4375 C 84.238281 -49.46875 84.757812 -47.054688 85.15625 -44.203125 C 85.738281 -39.867188 85.164062 -35.234375 83.4375 -30.296875 C 81.71875 -25.367188 78.988281 -20.25 75.25 -14.9375 C 74.257812 -13.945312 73.421875 -13.082031 72.734375 -12.34375 C 72.046875 -11.601562 71.160156 -10.738281 70.078125 -9.75 C 68.796875 -8.664062 67.335938 -7.429688 65.703125 -6.046875 C 64.078125 -4.671875 62.425781 -3.640625 60.75 -2.953125 C 54.539062 -0.191406 48.1875 1.0625 41.6875 0.8125 C 35.1875 0.5625 28.976562 -1.675781 23.0625 -5.90625 C 19.3125 -8.175781 16.398438 -11.28125 14.328125 -15.21875 C 12.265625 -19.164062 10.445312 -23.40625 8.875 -27.9375 C 7.09375 -36.3125 7.015625 -44 8.640625 -51 C 10.273438 -58 13.257812 -63.960938 17.59375 -68.890625 C 17.882812 -70.765625 18.5 -72.265625 19.4375 -73.390625 C 20.375 -74.523438 21.484375 -75.488281 22.765625 -76.28125 C 24.046875 -77.070312 25.375 -77.8125 26.75 -78.5 C 28.132812 -79.1875 29.414062 -80.023438 30.59375 -81.015625 C 34.832031 -81.992188 38.945312 -82.382812 42.9375 -82.1875 C 46.9375 -81.988281 50.78125 -81.347656 54.46875 -80.265625 C 58.164062 -79.179688 61.613281 -77.726562 64.8125 -75.90625 C 68.019531 -74.082031 70.90625 -72.039062 73.46875 -69.78125 Z M 35.1875 -70.8125 C 33.601562 -69.53125 31.972656 -68.394531 30.296875 -67.40625 C 28.628906 -66.425781 27.203125 -65.144531 26.015625 -63.5625 C 23.359375 -59.914062 21.4375 -55.65625 20.25 -50.78125 C 19.070312 -45.90625 18.628906 -41.023438 18.921875 -36.140625 C 19.210938 -31.265625 20.242188 -26.632812 22.015625 -22.25 C 23.796875 -17.863281 26.363281 -14.335938 29.71875 -11.671875 C 31.6875 -10.890625 33.679688 -10.175781 35.703125 -9.53125 C 37.722656 -8.894531 40.0625 -8.476562 42.71875 -8.28125 C 43.601562 -8.769531 44.488281 -9.0625 45.375 -9.15625 C 46.269531 -9.257812 47.257812 -9.265625 48.34375 -9.171875 C 52.082031 -10.453125 55.601562 -12.175781 58.90625 -14.34375 C 62.207031 -16.507812 65.039062 -19.117188 67.40625 -22.171875 C 69.769531 -25.222656 71.640625 -28.71875 73.015625 -32.65625 C 74.398438 -36.601562 75.046875 -41.039062 74.953125 -45.96875 C 73.867188 -54.25 70.8125 -60.953125 65.78125 -66.078125 C 60.757812 -71.203125 54.054688 -73.765625 45.671875 -73.765625 C 43.703125 -73.671875 41.953125 -73.253906 40.421875 -72.515625 C 38.898438 -71.773438 37.15625 -71.207031 35.1875 -70.8125 Z M 35.1875 -70.8125 "/></g></g></g><g fill="#c1121f" fill-opacity="1"><g transform="translate(886.934498, 177.852058)"><g><path d="M 31.046875 -85.4375 C 30.453125 -79.820312 29.8125 -73.835938 29.125 -67.484375 C 28.4375 -61.128906 27.941406 -55.289062 27.640625 -49.96875 C 29.316406 -51.445312 31.015625 -53.097656 32.734375 -54.921875 C 34.460938 -56.742188 36.265625 -58.613281 38.140625 -60.53125 C 40.015625 -62.457031 41.882812 -64.351562 43.75 -66.21875 C 45.625 -68.09375 47.546875 -69.769531 49.515625 -71.25 C 50.410156 -71.84375 51.421875 -72.554688 52.546875 -73.390625 C 53.679688 -74.234375 54.9375 -75 56.3125 -75.6875 C 57.695312 -76.375 59.175781 -76.9375 60.75 -77.375 C 62.332031 -77.820312 64.007812 -77.945312 65.78125 -77.75 C 67.550781 -77.5625 69.222656 -77.019531 70.796875 -76.125 C 72.378906 -75.238281 74.007812 -74.453125 75.6875 -73.765625 C 79.039062 -70.410156 81.0625 -66.585938 81.75 -62.296875 C 82.4375 -58.015625 82.335938 -53.65625 81.453125 -49.21875 C 80.566406 -44.789062 79.160156 -40.457031 77.234375 -36.21875 C 75.316406 -31.976562 73.375 -28.234375 71.40625 -24.984375 C 71.007812 -24.878906 70.710938 -24.703125 70.515625 -24.453125 C 70.316406 -24.210938 70.070312 -23.992188 69.78125 -23.796875 C 69.28125 -22.421875 68.632812 -21.265625 67.84375 -20.328125 C 67.0625 -19.390625 66.175781 -18.378906 65.1875 -17.296875 C 64.101562 -16.109375 63.191406 -15.117188 62.453125 -14.328125 C 61.710938 -13.546875 60.703125 -12.660156 59.421875 -11.671875 C 58.640625 -10.984375 57.851562 -10.394531 57.0625 -9.90625 C 56.269531 -9.414062 55.382812 -8.773438 54.40625 -7.984375 C 52.53125 -6.597656 50.285156 -5.265625 47.671875 -3.984375 C 45.054688 -2.703125 42.46875 -1.671875 39.90625 -0.890625 C 37.34375 -0.0976562 34.507812 0.242188 31.40625 0.140625 C 28.300781 0.046875 25.375 -0.640625 22.625 -1.921875 C 21.726562 0.347656 21.132812 2.765625 20.84375 5.328125 C 20.550781 7.890625 20.304688 10.453125 20.109375 13.015625 C 19.910156 15.273438 19.734375 17.660156 19.578125 20.171875 C 19.429688 22.691406 19.3125 25.132812 19.21875 27.5 C 19.21875 28.582031 19.238281 29.765625 19.28125 31.046875 C 19.332031 32.328125 19.484375 33.609375 19.734375 34.890625 C 19.984375 36.171875 20.328125 37.328125 20.765625 38.359375 C 21.210938 39.390625 21.832031 40.203125 22.625 40.796875 C 22.125 41.585938 21.648438 42.398438 21.203125 43.234375 C 20.765625 44.078125 20.101562 44.597656 19.21875 44.796875 C 18.425781 44.992188 17.734375 45.015625 17.140625 44.859375 C 16.554688 44.710938 15.96875 44.46875 15.375 44.125 C 14.78125 43.78125 14.238281 43.4375 13.75 43.09375 C 13.257812 42.75 12.71875 42.476562 12.125 42.28125 C 11.039062 40.40625 10.25 38.285156 9.75 35.921875 C 9.257812 33.554688 8.988281 31.066406 8.9375 28.453125 C 8.894531 25.847656 8.992188 23.164062 9.234375 20.40625 C 9.484375 17.644531 9.753906 14.984375 10.046875 12.421875 C 10.546875 9.554688 10.84375 6.570312 10.9375 3.46875 C 11.039062 0.363281 11.335938 -2.757812 11.828125 -5.90625 C 11.921875 -7.09375 12.066406 -8.253906 12.265625 -9.390625 C 12.460938 -10.523438 12.609375 -11.878906 12.703125 -13.453125 C 12.804688 -15.023438 12.859375 -16.867188 12.859375 -18.984375 C 12.859375 -21.109375 12.710938 -23.648438 12.421875 -26.609375 C 12.710938 -27.597656 13.054688 -28.507812 13.453125 -29.34375 C 13.847656 -30.175781 14.34375 -30.890625 14.9375 -31.484375 C 15.71875 -36.117188 16.351562 -40.898438 16.84375 -45.828125 C 17.34375 -50.753906 17.789062 -55.609375 18.1875 -60.390625 C 18.582031 -65.171875 19.023438 -69.828125 19.515625 -74.359375 C 20.003906 -78.890625 20.644531 -83.078125 21.4375 -86.921875 C 22.125 -87.609375 22.882812 -87.976562 23.71875 -88.03125 C 24.5625 -88.082031 25.398438 -87.957031 26.234375 -87.65625 C 27.078125 -87.363281 27.914062 -86.992188 28.75 -86.546875 C 29.59375 -86.109375 30.359375 -85.738281 31.046875 -85.4375 Z M 39.328125 -10.203125 C 41.585938 -11.878906 43.925781 -13.332031 46.34375 -14.5625 C 48.757812 -15.789062 50.953125 -17.390625 52.921875 -19.359375 C 54.003906 -20.347656 55.234375 -21.65625 56.609375 -23.28125 C 57.992188 -24.90625 59.128906 -26.3125 60.015625 -27.5 C 60.703125 -28.382812 61.414062 -29.316406 62.15625 -30.296875 C 62.894531 -31.285156 63.515625 -32.273438 64.015625 -33.265625 C 65.390625 -35.828125 66.71875 -38.5625 68 -41.46875 C 69.28125 -44.375 70.117188 -47.503906 70.515625 -50.859375 C 71.890625 -53.421875 72.523438 -56.253906 72.421875 -59.359375 C 72.328125 -62.460938 71.691406 -65.097656 70.515625 -67.265625 C 69.628906 -68.148438 68.664062 -68.640625 67.625 -68.734375 C 66.59375 -68.835938 65.535156 -68.738281 64.453125 -68.4375 C 63.367188 -68.144531 62.304688 -67.726562 61.265625 -67.1875 C 60.234375 -66.644531 59.273438 -66.175781 58.390625 -65.78125 C 58.097656 -65.582031 57.875 -65.3125 57.71875 -64.96875 C 57.570312 -64.625 57.300781 -64.351562 56.90625 -64.15625 C 53.851562 -61.988281 51.019531 -59.597656 48.40625 -56.984375 C 45.800781 -54.367188 43.289062 -51.65625 40.875 -48.84375 C 38.457031 -46.039062 36.113281 -43.160156 33.84375 -40.203125 C 31.582031 -37.253906 29.269531 -34.347656 26.90625 -31.484375 C 26.613281 -30.503906 26.242188 -29.46875 25.796875 -28.375 C 25.347656 -27.289062 24.953125 -26.179688 24.609375 -25.046875 C 24.265625 -23.921875 23.992188 -22.738281 23.796875 -21.5 C 23.597656 -20.269531 23.648438 -19.066406 23.953125 -17.890625 C 24.046875 -17.585938 24.210938 -17.289062 24.453125 -17 C 24.703125 -16.707031 24.828125 -16.363281 24.828125 -15.96875 C 25.023438 -14.882812 24.976562 -13.773438 24.6875 -12.640625 C 24.394531 -11.503906 24.640625 -10.394531 25.421875 -9.3125 C 26.304688 -8.820312 27.34375 -8.550781 28.53125 -8.5 C 29.71875 -8.445312 30.925781 -8.519531 32.15625 -8.71875 C 33.382812 -8.914062 34.613281 -9.160156 35.84375 -9.453125 C 37.082031 -9.753906 38.242188 -10.003906 39.328125 -10.203125 Z M 39.328125 -10.203125 "/></g></g></g></g></g></svg>