<svg xmlns="http://www.w3.org/2000/svg" viewBox="0 0 3840.000000 1524.000000" width="3840.000000" height="1524.000000"><rect x="0" y="0" width="3840.000000" height="1524.000000" rx="22" fill="#0B0B0D"/><g transform="translate(0.000000,1524.000000) scale(0.100000,-0.100000)"
fill="#e9a53e" stroke="none">
<path d="M34816 10805 c-3 -9 -6 -27 -6 -40 0 -14 -8 -29 -19 -34 -10 -6 -24
-25 -30 -43 -39 -106 -53 -142 -87 -228 -20 -52 -43 -115 -50 -140 -15 -55
-38 -114 -97 -250 -25 -58 -63 -150 -85 -205 -21 -55 -65 -155 -96 -222 -31
-67 -56 -124 -56 -127 0 -3 -43 -93 -95 -201 -52 -108 -95 -198 -95 -201 0 -2
-19 -34 -41 -71 -23 -38 -58 -99 -77 -138 -19 -38 -52 -95 -72 -125 -31 -46
-130 -239 -130 -253 0 -8 -170 -327 -228 -427 -110 -191 -246 -409 -419 -671
-45 -69 -90 -142 -98 -162 -8 -21 -20 -37 -25 -37 -14 0 -39 -54 -45 -97 l-5
-38 36 40 c66 73 302 388 464 621 8 11 75 111 147 220 73 109 146 217 162 239
218 297 622 1102 851 1696 28 70 50 131 50 134 0 3 15 44 34 93 18 48 45 125
59 172 93 302 108 368 98 433 -9 55 -34 90 -45 62z m-726 -1959 c0 -8 -4 -17
-9 -20 -5 -3 -18 -25 -30 -48 -45 -88 -71 -125 -71 -100 0 7 -5 12 -10 12 -7
0 -8 -13 -5 -34 5 -26 0 -47 -24 -95 -30 -59 -51 -78 -51 -46 0 19 -14 19 -29
1 -9 -11 -9 -19 0 -34 10 -16 8 -28 -12 -68 -13 -27 -33 -62 -45 -79 -11 -16
-24 -38 -27 -47 -8 -23 -30 -23 -50 0 -16 17 -14 23 23 98 22 43 49 94 60 112
11 18 32 61 46 94 14 34 44 89 67 122 22 34 52 78 66 99 14 21 27 33 29 27 3
-7 -1 -17 -7 -23 -16 -16 -14 -37 3 -37 8 0 25 18 37 40 23 41 39 51 39 26z
m-370 -619 c0 -7 -6 -21 -13 -32 -17 -22 -32 -5 -22 25 7 22 35 28 35 7z m-46
-33 c11 -30 6 -50 -18 -72 -37 -31 -50 -8 -26 46 20 44 34 53 44 26z"/>
<path d="M2510 10612 c0 -27 5 -44 16 -50 15 -8 15 -14 -2 -63 -20 -59 -19
-97 2 -148 8 -18 14 -46 14 -62 0 -15 4 -38 9 -51 5 -13 35 -104 66 -203 32
-99 74 -220 95 -270 21 -49 45 -112 54 -139 20 -57 47 -126 86 -211 15 -33 51
-114 80 -180 29 -66 91 -199 137 -295 47 -96 108 -222 136 -279 27 -58 62
-126 78 -152 15 -27 47 -85 71 -131 45 -88 129 -222 287 -456 53 -78 123 -184
156 -236 33 -51 75 -113 92 -137 18 -24 50 -68 70 -98 53 -76 324 -435 378
-501 51 -63 75 -74 75 -36 0 24 -18 52 -160 256 -30 43 -80 119 -111 167 -105
165 -237 378 -253 408 -9 17 -34 59 -56 94 -64 101 -197 357 -255 486 -14 33
-43 89 -64 125 -130 221 -166 287 -266 485 -61 121 -124 249 -139 285 -16 36
-52 117 -82 180 -29 63 -76 171 -105 240 -29 69 -67 161 -86 205 -19 44 -48
121 -65 170 -17 50 -37 104 -46 120 -15 29 -25 56 -112 295 -23 63 -46 119
-51 125 -5 5 -9 21 -9 35 0 15 -9 35 -20 45 -20 18 -20 17 -20 -23z m822
-1936 c6 -22 20 -52 30 -65 19 -25 24 -71 8 -71 -5 0 -10 -11 -10 -23 0 -27
34 -64 44 -48 4 5 2 12 -4 16 -13 8 -13 45 0 45 6 0 13 -8 17 -17 3 -10 13
-25 20 -33 23 -25 80 -119 93 -153 12 -33 80 -168 123 -247 71 -128 89 -172
78 -183 -14 -14 -39 -1 -55 28 -6 10 -18 27 -27 37 -9 10 -31 46 -50 79 -19
33 -43 73 -55 87 -54 71 -284 500 -284 530 0 6 10 8 21 5 20 -6 21 -3 14 38
-7 39 -6 42 9 30 9 -7 21 -32 28 -55z"/>
<path d="M3310 8601 c0 -12 6 -21 16 -21 9 0 14 7 12 17 -5 25 -28 28 -28 4z"/>
<path d="M34805 9870 c-8 -16 -22 -58 -30 -94 -8 -35 -24 -86 -36 -113 -26
-61 -43 -106 -81 -217 -150 -446 -493 -1193 -760 -1656 -30 -53 -57 -107 -61
-120 -6 -25 -6 -25 15 0 11 14 31 47 45 75 14 27 35 64 47 80 11 17 28 42 36
57 8 15 33 57 55 93 22 36 47 80 56 97 9 17 19 26 22 21 7 -11 -16 -87 -32
-107 -5 -6 -36 -59 -69 -118 -90 -160 -39 -112 67 62 207 342 305 534 486 955
102 237 223 604 245 745 7 41 17 85 23 98 6 12 11 39 13 60 1 20 5 54 9 75 7
33 6 37 -13 37 -14 0 -27 -11 -37 -30z"/>
<path d="M2530 9645 c-20 -24 4 -215 47 -365 34 -122 120 -369 141 -407 7 -12
12 -29 12 -37 0 -8 7 -30 14 -48 8 -18 37 -89 65 -159 27 -69 58 -141 68 -160
11 -18 30 -61 43 -94 13 -33 26 -64 30 -70 4 -5 41 -75 82 -155 92 -176 225
-412 283 -500 23 -36 67 -104 98 -152 31 -49 61 -88 67 -88 6 0 -13 37 -41 83
-123 196 -197 332 -186 344 12 12 53 -38 100 -122 94 -169 141 -251 162 -280
12 -16 32 -51 44 -77 24 -51 51 -81 51 -57 0 8 -10 30 -22 49 -126 205 -250
433 -403 745 -188 382 -256 535 -377 850 -28 72 -54 139 -59 150 -12 29 -38
104 -51 145 -5 19 -13 40 -17 45 -7 9 -34 89 -97 288 -16 48 -31 87 -35 87 -4
0 -12 -7 -19 -15z"/>
<path d="M35205 9488 c-11 -5 -30 -28 -42 -51 -102 -203 -244 -480 -265 -517
-14 -25 -62 -108 -105 -185 -95 -168 -125 -216 -219 -360 -39 -60 -77 -121
-84 -135 -7 -14 -29 -45 -49 -70 -39 -48 -63 -83 -134 -200 -90 -148 -183
-292 -227 -353 -79 -109 -140 -198 -140 -205 0 -4 -20 -34 -45 -67 -42 -56
-64 -122 -53 -155 2 -7 26 17 53 52 28 34 95 118 150 184 247 300 410 510 485
624 27 41 62 93 78 115 15 22 46 69 67 105 21 36 57 92 80 125 23 33 53 80 67
105 14 25 50 86 80 135 71 116 103 174 173 315 71 143 69 138 104 235 16 44
38 96 50 116 23 38 27 80 16 147 -9 49 -13 53 -40 40z m-505 -1111 c0 -21 -22
-37 -51 -37 -30 0 -46 -25 -28 -46 9 -11 7 -22 -5 -48 -9 -19 -16 -37 -16 -40
0 -6 -38 -66 -101 -156 -34 -50 -169 -218 -178 -222 -4 -2 -19 -23 -33 -48
-14 -25 -56 -79 -92 -120 -36 -41 -78 -90 -94 -109 -16 -19 -32 -30 -35 -24
-4 6 7 25 23 43 17 19 30 39 30 45 0 6 12 26 28 45 15 19 36 52 47 72 10 20
36 61 57 90 21 29 52 80 69 113 53 101 243 379 285 417 37 32 94 48 94 25z"/>
<path d="M2126 9257 c-8 -12 -17 -45 -21 -73 -6 -44 -3 -58 23 -105 15 -30 36
-79 46 -109 24 -74 158 -340 268 -530 85 -148 305 -497 345 -550 11 -14 48
-68 83 -120 35 -52 87 -122 115 -155 29 -33 69 -83 91 -111 149 -195 503 -626
524 -639 39 -24 16 56 -35 122 -47 61 -226 318 -282 403 -23 36 -50 76 -60 90
-20 28 -136 213 -198 315 -34 56 -131 195 -190 270 -8 10 -15 23 -15 27 0 4
-17 33 -39 65 -67 101 -107 166 -156 252 -26 47 -64 112 -85 145 -42 69 -254
480 -263 511 -6 20 -69 138 -97 182 -21 32 -38 36 -54 10z m570 -1029 c32 -36
54 -76 54 -96 0 -11 20 -39 44 -63 41 -41 216 -293 216 -311 0 -5 47 -80 105
-168 96 -146 125 -208 93 -198 -12 4 -103 115 -165 202 -15 21 -62 80 -103
130 -99 120 -158 207 -229 344 -8 15 -25 40 -38 55 -28 35 -29 47 -3 47 24 0
27 32 5 50 -8 7 -15 16 -15 21 0 16 16 10 36 -13z"/>
<path d="M2735 8061 c-3 -5 -1 -12 5 -16 12 -7 30 2 30 16 0 12 -27 12 -35 0z"/>
<path d="M35154 8722 c-18 -15 -37 -44 -44 -65 -18 -57 -153 -340 -270 -567
-18 -36 -80 -144 -137 -241 -57 -96 -103 -184 -103 -194 0 -12 10 -2 28 26 15
25 33 54 39 65 7 10 24 39 38 64 32 58 49 80 64 80 15 0 14 -11 -4 -34 -8 -11
-15 -26 -15 -33 0 -7 -22 -45 -49 -85 -58 -88 -85 -138 -73 -138 9 0 125 172
170 250 10 19 45 79 76 133 121 207 293 589 303 672 3 22 12 48 20 57 14 16
11 38 -5 38 -4 0 -21 -13 -38 -28z"/>
<path d="M2130 8644 c0 -20 26 -129 52 -219 42 -145 184 -457 301 -660 22 -38
52 -91 66 -116 25 -43 74 -113 114 -162 20 -24 -25 63 -82 158 -34 57 -64 126
-57 132 3 3 152 -223 222 -337 18 -30 34 -47 34 -37 0 9 -24 57 -54 105 -29
48 -69 116 -88 152 -19 36 -47 85 -63 110 -44 69 -218 414 -260 515 -20 50
-43 104 -50 120 -15 36 -40 88 -77 159 -15 28 -27 61 -27 74 -1 25 -31 31 -31
6z"/>
<path d="M35468 8413 c-14 -16 -36 -48 -48 -73 -12 -25 -30 -54 -40 -65 -10
-11 -73 -103 -141 -205 -123 -185 -270 -391 -361 -506 -26 -34 -48 -68 -48
-75 0 -14 76 63 127 129 31 39 40 40 53 7 10 -27 -5 -58 -65 -131 -20 -25 -23
-33 -12 -37 10 -3 58 50 143 155 134 166 219 288 338 482 10 15 22 24 26 20
27 -28 -128 -417 -228 -575 -43 -67 -183 -301 -198 -330 -8 -14 -25 -36 -40
-50 -14 -13 -32 -36 -40 -51 -13 -24 -13 -28 0 -28 7 0 17 8 20 17 8 19 42 67
123 171 29 37 60 81 68 98 8 17 22 37 32 45 10 9 5 -7 -14 -42 -35 -64 -64
-112 -74 -119 -3 -3 -9 -16 -12 -30 -4 -14 -32 -56 -63 -93 -30 -38 -53 -71
-50 -74 9 -9 35 17 77 77 118 167 169 242 169 246 0 3 13 24 28 47 16 23 42
69 59 102 17 33 44 86 62 118 17 31 31 65 31 75 0 9 12 37 26 62 31 53 62 146
98 291 22 90 26 122 21 200 -5 106 -16 161 -31 166 -5 2 -22 -9 -36 -24z"/>
<path d="M1828 8147 c-20 -60 -23 -109 -9 -153 5 -16 17 -73 26 -126 13 -73
25 -111 51 -154 24 -39 34 -69 34 -97 0 -49 65 -197 158 -357 116 -201 322
-494 330 -470 2 5 -12 29 -31 52 -48 61 -177 257 -177 270 0 6 -7 19 -16 29
-9 10 -14 26 -12 36 2 13 20 -7 60 -67 66 -98 164 -223 155 -199 -3 10 -44 76
-92 148 -109 166 -253 424 -298 533 -43 102 -87 247 -87 282 0 36 17 32 34 -7
30 -72 81 -147 321 -467 112 -149 195 -241 195 -215 0 12 -36 63 -77 107 -24
26 -43 53 -43 61 0 7 -11 24 -25 37 -34 32 -32 37 13 34 32 -2 37 -5 34 -24
-2 -20 0 -21 15 -9 13 12 17 12 21 1 5 -15 100 -132 107 -132 15 0 0 35 -35
79 -22 28 -53 69 -68 90 -15 21 -82 116 -149 210 -68 94 -123 173 -123 177 0
3 -15 24 -32 47 -18 22 -44 60 -58 83 -96 167 -156 248 -185 252 -16 2 -23 -8
-37 -51z"/>
<path d="M33910 7702 c-55 -82 -60 -91 -45 -86 20 8 61 65 69 97 3 15 5 27 4
27 -2 0 -14 -17 -28 -38z"/>
<path d="M33817 7558 c-28 -48 -26 -66 3 -28 16 21 33 70 25 70 -2 0 -14 -19
-28 -42z"/>
<path d="M34506 7525 c-19 -28 -20 -35 -6 -35 5 0 16 14 25 30 19 36 4 40 -19
5z"/>
<path d="M35609 7452 c-56 -63 -135 -162 -201 -253 -35 -47 -82 -107 -105
-135 -140 -164 -186 -223 -198 -251 -8 -20 -21 -33 -32 -33 -20 0 -113 -101
-113 -122 0 -15 122 102 191 185 17 20 35 37 39 37 12 0 19 -53 10 -71 -17
-30 -68 -79 -84 -79 -8 0 -25 -17 -36 -37 -11 -21 -40 -58 -64 -83 -25 -24
-42 -48 -39 -53 12 -20 465 459 513 543 12 21 23 6 12 -17 -6 -10 -31 -68 -57
-129 -51 -122 -147 -278 -261 -422 -68 -86 -84 -112 -68 -112 4 0 23 19 44 43
21 23 41 39 45 35 7 -7 -30 -63 -65 -98 -30 -30 -111 -140 -103 -140 14 0 27
13 109 110 194 229 287 376 446 703 24 49 70 220 78 290 5 43 12 82 15 86 6
10 -21 41 -35 41 -4 0 -23 -17 -41 -38z"/>
<path d="M34890 7411 c-7 -15 -7 -21 0 -21 12 0 25 28 17 36 -3 3 -10 -4 -17
-15z"/>
<path d="M1686 7251 c-20 -31 21 -245 71 -371 42 -107 146 -309 205 -400 100
-154 351 -460 377 -460 12 0 -40 67 -74 95 -14 13 -115 150 -140 190 -22 38
96 -84 183 -189 37 -43 68 -74 70 -68 2 6 -47 70 -108 144 -156 188 -267 351
-344 509 -36 75 -66 144 -66 152 0 24 21 11 50 -28 72 -100 354 -394 366 -382
7 7 -15 33 -89 108 -51 51 -58 82 -21 87 11 2 33 -7 48 -19 21 -16 26 -28 24
-52 -3 -25 1 -30 20 -32 26 -2 43 -16 175 -145 61 -59 97 -88 97 -78 0 10 -24
36 -52 59 -29 23 -57 49 -63 59 -5 10 -49 60 -96 112 -146 159 -376 435 -440
528 -55 80 -86 118 -125 153 -42 37 -58 44 -68 28z"/>
<path d="M33805 7160 c-10 -11 -16 -22 -13 -25 3 -3 13 4 23 15 10 11 16 22
13 25 -3 3 -13 -4 -23 -15z"/>
<path d="M34462 7048 c-9 -11 -42 -46 -72 -77 -30 -31 -79 -85 -109 -121 -30
-36 -85 -96 -121 -135 -93 -98 -140 -156 -134 -166 3 -5 17 -9 30 -9 20 0 78
52 255 227 126 124 229 233 229 241 0 9 -38 -21 -84 -66 -76 -74 -106 -96
-106 -74 0 13 72 115 107 152 30 32 40 50 28 50 -3 0 -13 -10 -23 -22z m-128
-212 c-6 -16 -34 -30 -34 -18 0 10 22 32 32 32 4 0 5 -6 2 -14z m-44 -44 c0
-11 -59 -67 -64 -61 -7 6 43 69 55 69 5 0 9 -4 9 -8z"/>
<path d="M34793 6908 c-20 -26 -26 -41 -15 -34 12 7 36 46 29 46 -3 0 -9 -6
-14 -12z"/>
<path d="M34821 6876 c-14 -14 -22 -28 -20 -30 8 -9 52 31 48 43 -3 8 -13 3
-28 -13z"/>
<path d="M2966 6721 c42 -56 82 -104 89 -109 12 -6 57 -63 79 -100 25 -42 -64
37 -184 162 -50 52 -80 73 -80 56 0 -13 35 -49 259 -265 166 -160 208 -190
162 -114 -12 19 -21 39 -21 45 0 13 -26 45 -120 149 -36 40 -101 114 -145 164
-110 127 -132 134 -39 12z"/>
<path d="M32103 6624 c-15 -20 -42 -53 -58 -73 -17 -20 -52 -65 -80 -101 -99
-131 -301 -357 -466 -520 -50 -49 -79 -88 -79 -104 0 -3 11 -6 25 -6 15 0 25
6 25 14 0 8 13 24 29 36 17 11 33 31 37 43 8 25 91 115 114 122 8 3 22 19 29
37 8 18 44 62 79 98 35 36 71 76 80 90 19 29 149 184 205 244 86 94 -85 -163
-183 -274 -27 -30 -61 -73 -75 -95 -15 -22 -48 -60 -73 -85 -26 -25 -54 -56
-62 -69 -17 -26 -120 -149 -166 -197 -115 -121 -195 -215 -169 -199 35 22 125
106 125 117 0 4 21 30 48 56 26 27 60 64 76 83 15 19 47 54 70 79 93 103 249
293 307 375 19 28 53 75 74 105 87 122 125 185 125 208 0 13 4 20 10 17 15 -9
12 11 -4 24 -12 10 -20 5 -43 -25z"/>
<path d="M34875 6588 c-25 -25 -45 -52 -45 -59 0 -7 23 10 52 39 28 29 48 55
45 59 -4 3 -27 -14 -52 -39z"/>
<path d="M34906 6508 c-14 -18 -21 -35 -15 -37 13 -4 59 38 59 56 0 22 -17 15
-44 -19z"/>
<path d="M35438 6240 c-139 -139 -299 -291 -355 -337 -99 -82 -160 -148 -115
-124 10 5 25 17 32 26 8 9 30 25 51 35 20 11 50 35 66 53 37 45 88 81 102 73
24 -15 9 -47 -41 -86 -129 -99 -158 -125 -143 -128 8 -2 22 4 31 12 8 9 19 16
23 16 3 0 27 19 51 43 25 24 59 51 75 62 36 22 139 113 238 209 57 55 73 66
75 52 2 -10 -5 -31 -17 -47 -12 -15 -21 -30 -21 -33 0 -3 -13 -25 -30 -49 -16
-25 -30 -48 -30 -52 0 -11 -73 -97 -181 -215 -107 -117 -152 -183 -78 -115 24
22 58 52 74 65 30 25 30 25 5 -5 -13 -16 -45 -51 -69 -77 -30 -32 -40 -48 -29
-48 22 0 200 190 291 309 187 245 321 552 262 601 -13 10 -54 -27 -267 -240z"/>
<path d="M5242 6388 c-19 -19 -15 -33 25 -95 86 -136 299 -417 330 -436 7 -4
13 -13 13 -20 0 -7 21 -35 48 -62 26 -28 60 -67 76 -88 44 -60 207 -231 232
-244 12 -7 26 -22 29 -34 8 -24 71 -89 86 -89 16 0 -2 23 -76 102 -38 41 -101
109 -140 152 -38 44 -90 100 -113 125 -59 62 -102 117 -102 130 0 6 -6 11 -14
11 -8 0 -23 16 -35 35 -11 19 -24 35 -28 35 -4 0 -24 23 -43 52 -19 29 -65 90
-102 137 -63 79 -80 111 -59 111 4 0 37 -35 71 -77 65 -79 197 -229 259 -293
19 -19 68 -72 109 -118 62 -70 72 -85 61 -98 -11 -13 -9 -14 12 -9 21 5 32 -2
67 -40 23 -25 42 -50 42 -56 0 -5 6 -9 13 -9 7 0 30 -18 52 -41 21 -23 57 -53
79 -67 23 -14 50 -33 61 -43 11 -10 52 -44 90 -75 148 -122 355 -331 355 -359
0 -6 9 -16 20 -23 11 -7 20 -19 20 -27 0 -8 18 -26 40 -40 22 -14 40 -30 40
-35 0 -6 6 -10 14 -10 7 0 16 -9 19 -20 3 -11 12 -20 20 -20 19 0 33 -38 19
-52 -6 -6 -25 4 -53 26 -24 20 -60 46 -79 60 -19 13 -87 70 -150 126 -177 158
-244 212 -249 199 -2 -7 7 -21 20 -32 13 -10 42 -35 65 -55 22 -20 99 -85 170
-144 71 -59 214 -179 318 -265 104 -87 219 -181 255 -210 36 -28 82 -67 101
-85 20 -18 80 -69 135 -113 54 -44 122 -100 149 -124 79 -67 95 -81 191 -161
131 -110 347 -321 438 -430 85 -103 163 -247 192 -356 63 -241 30 -484 -115
-849 -64 -161 -64 -162 -46 -190 9 -14 21 -25 27 -25 13 0 63 53 95 100 13 19
40 55 58 80 19 25 35 50 35 56 1 6 9 22 20 35 31 40 127 229 160 313 68 176
88 369 55 519 -21 96 -88 233 -164 335 -131 175 -395 411 -741 662 -46 33
-151 109 -232 168 -82 59 -165 118 -186 132 -21 14 -45 32 -54 40 -8 8 -57 47
-107 85 -51 39 -128 98 -171 133 -43 34 -83 62 -89 62 -6 0 -34 24 -63 53 -29
28 -104 98 -167 153 -63 56 -143 129 -178 163 -35 33 -68 61 -73 61 -5 0 -34
25 -64 55 -31 30 -61 55 -66 55 -17 0 -89 52 -89 64 0 21 -65 75 -98 82 -21 4
-36 16 -45 32 -6 15 -31 39 -54 54 -23 16 -45 39 -48 51 -4 12 -46 63 -94 112
-147 152 -322 345 -409 452 -82 100 -107 122 -115 100 -2 -6 -18 10 -35 35
-38 55 -42 76 -6 33 l24 -30 -11 32 c-14 41 -32 56 -47 41z m1688 -1748 c6
-11 23 -26 38 -34 15 -8 45 -33 67 -55 22 -22 45 -40 51 -41 7 0 19 -11 28
-24 17 -26 97 -86 115 -86 14 0 51 -37 51 -50 0 -5 -5 -10 -11 -10 -20 0 -111
66 -173 124 -32 31 -62 56 -67 56 -10 0 -139 124 -139 134 0 15 30 4 40 -14z
m433 -348 c15 -14 27 -31 27 -37 0 -13 36 -45 50 -45 6 0 10 -4 10 -10 0 -16
-10 -12 -49 17 -54 40 -101 87 -101 100 0 17 29 5 63 -25z m226 -67 c13 -14
21 -28 18 -31 -5 -5 -57 42 -57 51 0 12 17 3 39 -20z"/>
<path d="M35038 6353 c-14 -16 -31 -39 -38 -53 -9 -17 3 -10 39 25 28 27 51
51 51 52 0 13 -31 -2 -52 -24z"/>
<path d="M34641 6357 c-13 -6 -31 -23 -40 -36 -15 -23 -15 -24 4 -13 19 10 73
62 64 62 -2 0 -15 -6 -28 -13z"/>
<path d="M32665 6332 c-76 -27 -233 -116 -212 -120 10 -2 32 5 50 15 51 30
116 53 121 44 8 -12 -16 -30 -72 -56 -64 -29 -34 -38 47 -13 36 11 67 16 72
11 14 -14 -21 -114 -62 -178 -39 -61 -51 -86 -44 -93 7 -8 52 44 67 78 6 15
12 20 15 13 3 -7 -9 -38 -26 -70 -61 -111 -25 -91 43 25 85 146 128 247 130
304 1 53 1 53 -39 55 -22 2 -62 -5 -90 -15z"/>
<path d="M2390 6329 c0 -19 57 -75 67 -65 4 3 -10 23 -30 44 -24 24 -37 31
-37 21z"/>
<path d="M34619 6242 c-119 -104 -286 -228 -296 -219 -2 3 53 62 124 132 96
94 120 123 96 113 -29 -12 -403 -364 -403 -379 0 -4 10 -9 22 -13 18 -4 58 22
193 124 143 110 231 181 267 218 16 16 60 72 56 72 -2 0 -29 -22 -59 -48z
m-354 -272 c-10 -11 -23 -20 -29 -20 -6 1 0 10 13 20 30 26 39 26 16 0z"/>
<path d="M1668 6224 c-37 -19 -36 -43 7 -149 86 -215 231 -429 437 -646 76
-80 217 -203 224 -196 4 3 -13 23 -37 44 -61 52 -180 175 -175 180 2 3 16 -3
30 -12 45 -30 29 2 -35 67 -53 55 -229 279 -229 292 0 3 -16 31 -35 63 -61
102 -45 99 66 -10 102 -100 342 -297 384 -315 32 -13 21 -2 -115 117 -44 39
-66 81 -41 81 5 0 38 -24 74 -52 98 -80 354 -279 400 -313 23 -16 104 -77 181
-135 76 -58 154 -116 172 -130 18 -14 34 -28 34 -32 0 -15 -191 101 -360 221
-12 8 -20 9 -20 3 0 -6 15 -21 33 -33 17 -13 38 -29 45 -36 21 -20 200 -136
283 -183 55 -31 81 -40 108 -38 36 3 36 3 -29 55 -207 167 -259 207 -300 231
-25 15 -82 54 -126 88 -45 34 -95 69 -113 78 -17 9 -31 20 -31 24 0 4 -26 27
-57 52 -147 116 -287 243 -506 460 -131 129 -239 236 -240 237 -1 1 -14 -5
-29 -13z m446 -440 c18 -26 18 -26 -13 -10 -31 17 -42 36 -18 36 6 0 20 -12
31 -26z"/>
<path d="M2600 6130 c6 -11 16 -20 22 -20 6 0 3 9 -7 20 -10 11 -20 20 -22 20
-2 0 1 -9 7 -20z"/>
<path d="M32296 6121 c-16 -18 -16 -18 15 -12 18 4 34 12 37 19 6 19 -33 14
-52 -7z"/>
<path d="M4564 6119 c-18 -29 6 -111 70 -239 42 -85 148 -254 166 -265 18 -11
10 12 -15 46 -14 19 -32 50 -40 69 -9 19 -20 43 -25 52 -16 28 -12 33 11 12
12 -10 29 -35 39 -55 10 -19 26 -41 34 -48 30 -25 17 9 -34 94 -82 133 -109
226 -62 212 9 -3 38 -12 65 -20 60 -19 61 -2 1 23 -27 12 -44 25 -41 33 4 13
42 15 71 2 14 -6 18 -5 14 6 -2 7 -40 29 -84 48 -90 39 -157 51 -170 30z"/>
<path d="M2760 6090 c0 -10 70 -79 265 -263 39 -36 72 -61 74 -54 4 12 -314
327 -330 327 -5 0 -9 -5 -9 -10z"/>
<path d="M2716 6023 c10 -18 21 -33 25 -33 4 0 25 -17 46 -39 22 -21 65 -57
94 -80 30 -22 77 -59 104 -80 28 -22 58 -40 68 -40 18 -1 -79 84 -185 160 -27
20 -64 49 -81 65 -18 16 -45 41 -61 54 -29 25 -29 25 -10 -7z"/>
<path d="M31359 5754 c-14 -17 -113 -88 -160 -114 -14 -8 -37 -22 -50 -31 -13
-9 -57 -38 -97 -63 -40 -26 -77 -57 -82 -69 -4 -12 -64 -74 -131 -137 -68 -63
-154 -144 -190 -180 -36 -36 -79 -74 -95 -84 -16 -11 -83 -62 -149 -115 -145
-116 -168 -134 -269 -208 -43 -32 -100 -74 -126 -93 -26 -19 -91 -66 -146
-104 -54 -39 -124 -88 -154 -111 -30 -23 -82 -61 -115 -85 -295 -216 -512
-407 -639 -562 -162 -198 -194 -262 -231 -469 -18 -94 -18 -97 4 -211 34 -187
82 -312 186 -493 81 -140 133 -212 247 -346 67 -80 61 59 -8 194 -24 46 -89
234 -118 339 -70 255 -55 494 43 689 119 236 302 420 971 973 345 285 358 296
451 376 47 41 121 102 163 134 43 33 90 75 106 93 17 18 45 44 64 57 72 48
117 89 133 119 14 28 9 25 -46 -23 -134 -118 -249 -212 -321 -261 -41 -29 -83
-60 -93 -71 -21 -21 -37 -24 -37 -5 0 6 14 20 30 29 17 9 35 28 42 42 6 14 19
28 29 31 10 3 21 15 24 25 4 11 25 31 48 44 30 18 47 38 60 68 20 47 128 157
313 320 116 102 187 158 203 158 5 0 12 8 16 18 3 9 30 32 60 50 30 18 62 47
70 63 17 32 15 38 -6 13z m-905 -893 c3 -5 -5 -16 -18 -25 -14 -8 -50 -40 -81
-71 -31 -30 -66 -55 -77 -55 -17 0 -19 2 -7 16 7 8 35 31 63 50 28 19 62 48
76 64 27 31 36 35 44 21z m-214 -181 c0 -5 -7 -10 -15 -10 -8 0 -15 5 -15 10
0 6 7 10 15 10 8 0 15 -4 15 -10z m-80 -64 c-12 -20 -28 -36 -36 -36 -21 0
-18 7 19 44 40 41 46 38 17 -8z"/>
<path d="M34865 5719 c-33 -23 -74 -56 -91 -75 -18 -19 -37 -34 -44 -34 -14 0
-205 -132 -304 -209 -162 -127 -176 -141 -176 -171 0 -29 0 -29 86 20 109 64
270 166 311 199 17 15 49 39 72 55 49 35 65 64 23 41 -15 -8 -45 -28 -67 -45
-22 -16 -53 -38 -68 -48 -15 -9 -57 -36 -93 -59 -65 -42 -89 -52 -82 -34 3 10
73 66 188 151 114 85 321 250 313 250 -4 0 -35 -19 -68 -41z m-455 -389 c0
-12 -28 -25 -36 -17 -9 9 6 27 22 27 8 0 14 -5 14 -10z"/>
<path d="M3120 5719 c-7 -11 -10 -22 -8 -23 2 -1 21 -16 44 -34 23 -17 44 -29
48 -25 14 15 4 51 -22 76 -34 32 -48 34 -62 6z"/>
<path d="M32895 5705 c-5 -2 -29 -9 -52 -15 -50 -13 -56 -25 -13 -25 42 0 38
-18 -6 -31 -64 -18 -55 -35 15 -28 55 6 61 5 61 -12 0 -10 -14 -39 -30 -64
-33 -50 -41 -82 -15 -60 26 21 16 -4 -16 -43 -50 -60 -23 -58 33 3 52 57 101
128 137 199 25 48 25 46 5 65 -14 15 -90 21 -119 11z"/>
<path d="M34881 5645 c-41 -30 -66 -55 -57 -55 24 0 92 51 125 93 21 26 12 21
-68 -38z"/>
<path d="M31230 5514 c-37 -37 -41 -45 -22 -39 30 9 57 36 64 63 4 12 5 22 4
22 -1 0 -22 -21 -46 -46z"/>
<path d="M35070 5505 c-13 -14 -21 -27 -18 -30 2 -3 15 6 28 20 13 14 21 27
18 30 -2 3 -15 -6 -28 -20z"/>
<path d="M4353 5468 c-22 -13 -22 -13 1 -63 25 -55 53 -98 105 -163 36 -44 51
-52 51 -27 0 8 4 15 10 15 13 0 2 27 -38 87 -43 65 -36 77 34 69 58 -7 95 1
72 15 -7 5 -23 9 -35 9 -12 0 -25 5 -29 11 -5 8 8 9 45 4 72 -10 65 8 -11 30
-84 23 -177 29 -205 13z"/>
<path d="M35473 5416 c-15 -12 -44 -34 -65 -47 -20 -13 -74 -53 -120 -89 -45
-36 -96 -74 -112 -85 -15 -11 -48 -33 -71 -50 -90 -63 -246 -165 -277 -181
-18 -9 -45 -27 -60 -39 -15 -13 -33 -25 -40 -28 -7 -2 -10 -7 -6 -11 3 -4 66
27 139 68 74 42 139 76 146 76 24 0 13 -19 -29 -52 -47 -36 -57 -43 -138 -90
-36 -21 -49 -34 -38 -36 25 -5 54 11 343 188 39 24 101 68 138 98 37 30 70 52
73 49 3 -3 -28 -49 -69 -104 -78 -103 -193 -218 -277 -279 -28 -20 -55 -45
-61 -55 -9 -17 -7 -18 16 -9 26 10 33 2 14 -17 -9 -9 -8 -11 4 -9 56 8 286
231 398 386 70 97 96 149 138 279 22 67 5 80 -46 37z"/>
<path d="M2516 5387 c23 -30 62 -59 67 -50 2 5 -16 23 -40 41 -36 27 -41 29
-27 9z"/>
<path d="M31095 5384 c-18 -16 -22 -22 -9 -15 18 9 53 42 43 41 -2 -1 -17 -12
-34 -26z"/>
<path d="M2254 5351 c11 -11 23 -21 28 -21 14 0 -1 19 -25 31 -22 12 -22 12
-3 -10z"/>
<path d="M32680 5322 c-34 -30 -33 -62 2 -62 21 0 68 42 68 62 0 9 -3 9 -12 0
-19 -19 -30 -14 -18 8 16 29 -4 25 -40 -8z"/>
<path d="M6179 5227 c19 -20 37 -37 39 -37 11 0 -27 45 -49 59 -18 11 -16 6
10 -22z"/>
<path d="M1860 5170 c-15 -15 -19 -28 -14 -48 17 -69 149 -292 173 -292 5 0
21 -19 35 -42 58 -98 340 -344 433 -378 25 -10 24 -8 -12 22 -21 18 -40 31
-40 28 -1 -6 -25 13 -89 73 -50 47 -50 47 -13 27 74 -40 64 -23 -38 65 -95 82
-146 133 -198 197 -40 48 -80 118 -73 126 4 3 61 -33 76 -48 18 -18 125 -93
175 -122 285 -168 292 -171 298 -155 2 7 -18 23 -49 39 -119 60 -182 114 -159
136 6 7 98 -40 206 -104 31 -19 62 -34 69 -34 16 0 -80 64 -203 135 -51 29
-250 171 -300 213 -31 27 -70 55 -85 63 -15 7 -38 24 -52 38 -33 32 -101 81
-112 81 -4 0 -17 -9 -28 -20z"/>
<path d="M4612 5088 c3 -7 13 -15 24 -17 16 -3 17 -1 5 13 -16 19 -34 21 -29
4z"/>
<path d="M31049 5003 c-35 -32 -127 -110 -203 -173 -77 -63 -194 -160 -260
-215 -67 -55 -139 -113 -161 -130 -160 -119 -691 -603 -787 -718 -115 -138
-121 -231 -18 -274 45 -19 213 -41 371 -48 69 -3 172 -10 230 -14 57 -5 114
-5 126 0 21 8 38 27 31 34 -5 5 -174 40 -262 55 -38 6 -98 21 -133 32 -158 52
-164 133 -22 313 48 61 206 219 269 270 74 59 360 340 360 353 0 23 -15 12
-136 -103 -65 -60 -127 -116 -138 -124 -12 -8 -54 -45 -94 -83 -68 -64 -112
-88 -98 -53 4 10 -1 15 -15 15 -19 0 -19 1 -2 28 10 15 23 31 31 35 21 14 83
69 132 118 25 25 59 54 75 64 17 10 59 43 95 74 63 55 91 78 225 186 34 28 80
67 101 88 21 20 42 37 47 37 4 0 32 22 60 48 29 26 90 80 137 119 108 90 139
123 118 123 -9 0 -45 -26 -79 -57z"/>
<path d="M32793 5049 c-47 -14 -41 -23 10 -16 48 7 90 -1 81 -14 -3 -5 -29 -9
-57 -9 -71 0 -43 -17 43 -26 82 -8 94 -17 75 -53 -7 -15 -21 -33 -29 -40 -22
-19 -20 -38 5 -52 20 -10 27 -5 75 46 87 95 84 165 -5 165 -20 0 -65 2 -101 5
-36 2 -80 0 -97 -6z"/>
<path d="M31114 5008 c-16 -18 -50 -51 -74 -73 -25 -22 -56 -53 -70 -68 -14
-15 -72 -71 -130 -125 -57 -53 -131 -123 -164 -154 -33 -32 -63 -58 -68 -58
-4 0 -8 -7 -8 -15 0 -8 3 -15 6 -15 20 0 554 513 554 532 0 16 -17 7 -46 -24z"/>
<path d="M6100 4943 c0 -10 9 -33 21 -52 16 -26 23 -31 29 -20 13 20 67 -34
76 -75 3 -17 11 -34 17 -38 6 -3 90 -84 186 -180 97 -95 248 -241 336 -323 88
-82 178 -168 200 -189 22 -22 60 -58 85 -79 291 -254 450 -444 450 -539 0 -77
-60 -111 -275 -154 -38 -7 -94 -19 -124 -25 -84 -16 -139 -69 -74 -69 38 0
330 18 493 31 220 17 290 50 290 139 0 101 -131 243 -633 685 -75 66 -173 150
-219 187 -46 36 -125 102 -177 145 -52 43 -110 91 -130 106 -20 15 -47 38 -61
50 -14 12 -82 69 -151 127 -69 58 -174 147 -233 198 -75 66 -106 88 -106 75z
m246 -221 c17 -15 71 -61 120 -102 49 -41 105 -91 125 -110 20 -19 57 -51 84
-70 26 -19 84 -67 128 -106 45 -39 90 -75 99 -80 33 -18 211 -170 289 -246 43
-43 83 -78 89 -78 5 0 10 -7 10 -15 0 -8 -9 -15 -19 -15 -12 0 -21 -8 -23 -21
-3 -19 -9 -17 -63 28 -33 27 -81 69 -106 93 -77 74 -230 215 -242 222 -7 4
-47 41 -89 82 -43 42 -82 76 -87 76 -5 0 -25 23 -45 50 -20 28 -50 59 -67 69
-38 23 -259 229 -259 242 0 17 25 8 56 -19z m1004 -862 c0 -6 -9 -10 -19 -10
-30 0 -37 -21 -13 -40 12 -10 19 -20 15 -23 -8 -8 -73 46 -73 61 0 6 9 12 20
12 11 0 23 7 26 15 5 11 11 12 25 4 10 -5 19 -14 19 -19z"/>
<path d="M34475 4776 c-194 -95 -349 -186 -353 -208 -10 -52 148 -1 413 133
99 51 186 96 193 102 44 35 -61 2 -141 -45 -81 -47 -246 -120 -265 -116 -19 4
93 73 193 119 34 15 89 44 121 63 111 67 18 39 -161 -48z"/>
<path d="M4324 4816 c-18 -8 -35 -19 -38 -25 -12 -18 40 -93 113 -163 71 -69
105 -89 75 -43 -18 27 -13 31 17 15 33 -18 21 4 -31 55 -51 50 -64 88 -34 99
9 3 42 6 74 6 39 0 62 5 70 15 11 13 6 15 -36 17 -49 1 -49 1 -5 5 39 4 42 5
25 18 -25 19 -187 19 -230 1z"/>
<path d="M32760 4720 c-8 -5 -25 -7 -38 -3 -37 9 -82 -44 -52 -62 11 -7 130
55 130 67 0 11 -22 10 -40 -2z"/>
<path d="M34828 4660 c-43 -38 -23 -39 22 0 19 16 29 29 23 30 -7 0 -27 -13
-45 -30z"/>
<path d="M2725 4610 c-3 -4 75 -49 172 -99 192 -98 248 -129 241 -137 -11 -10
-117 36 -383 166 -131 63 -175 79 -129 46 42 -32 335 -177 434 -216 58 -22
129 -50 158 -61 29 -12 55 -19 58 -17 2 3 -11 19 -30 36 -19 17 -35 34 -37 39
-8 18 -209 133 -324 185 -146 67 -153 69 -160 58z"/>
<path d="M32651 4457 c-28 -28 -6 -57 42 -57 12 0 39 -5 60 -11 47 -13 48 -34
2 -79 -43 -42 -45 -60 -5 -60 49 0 92 47 105 115 12 58 12 58 -29 75 -51 22
-160 32 -175 17z"/>
<path d="M2501 4446 c2 -2 35 -25 72 -50 45 -31 65 -40 58 -27 -10 18 -108 81
-126 81 -5 0 -6 -2 -4 -4z"/>
<path d="M35120 4321 c-14 -4 -50 -19 -80 -33 -30 -14 -75 -32 -100 -41 -25
-9 -67 -25 -94 -37 -47 -21 -341 -110 -476 -144 -36 -9 -114 -23 -175 -31 -60
-8 -161 -27 -223 -42 -101 -24 -115 -30 -128 -54 -8 -17 -24 -30 -41 -33 -16
-2 24 -2 87 0 125 6 340 39 490 77 52 13 118 27 145 31 73 11 338 87 419 121
50 21 60 19 38 -10 -50 -63 -197 -156 -351 -221 -50 -21 -91 -43 -91 -49 0 -6
26 -10 63 -10 55 0 73 6 157 51 53 28 122 70 154 95 32 24 68 50 80 58 74 50
196 201 196 242 0 15 -30 42 -42 38 -2 -1 -14 -4 -28 -8z m-435 -236 c-71 -33
-373 -97 -444 -93 -54 3 -48 5 119 46 96 23 200 48 230 56 30 7 75 14 100 14
l45 1 -50 -24z m50 -175 c-3 -5 -13 -10 -21 -10 -8 0 -12 5 -9 10 3 6 13 10
21 10 8 0 12 -4 9 -10z"/>
<path d="M4570 4231 c-58 -12 -83 -30 -76 -54 3 -12 6 -32 6 -45 0 -33 89
-122 123 -122 39 0 35 31 -8 64 -72 55 -64 89 24 99 76 9 99 26 37 27 -36 0
-47 3 -39 11 6 6 38 9 77 7 48 -2 66 0 66 10 0 13 -146 16 -210 3z"/>
<path d="M2169 4094 c-21 -26 31 -111 114 -189 123 -114 131 -121 203 -167 87
-57 118 -73 229 -119 103 -42 142 -40 46 4 -68 30 -78 50 -11 23 48 -19 53
-20 44 -5 -3 6 -32 22 -63 36 -154 68 -348 194 -370 241 -6 12 -9 22 -7 22 2
0 48 -18 102 -39 110 -44 314 -99 504 -137 69 -13 152 -30 185 -38 131 -31
175 -38 300 -43 113 -5 132 -4 144 10 11 14 11 17 0 21 -36 12 -134 38 -172
45 -23 5 -96 21 -162 34 -66 14 -154 31 -195 37 -64 10 -162 34 -295 70 -92
26 -354 124 -480 180 -61 27 -101 32 -116 14z m546 -204 c49 -16 97 -30 108
-30 10 0 31 -6 45 -14 15 -8 56 -20 92 -26 36 -7 97 -18 135 -26 39 -8 95 -18
125 -23 73 -12 140 -32 140 -43 0 -13 -36 -10 -140 12 -52 11 -110 20 -127 20
-38 0 -95 13 -208 45 -44 13 -107 29 -140 36 -32 7 -67 21 -76 30 -9 9 -29 19
-45 23 -22 6 -25 9 -13 17 7 5 14 9 15 9 0 0 40 -13 89 -30z"/>
<path d="M4776 3943 c9 -40 22 -50 16 -13 -2 17 -8 33 -14 36 -5 3 -6 -6 -2
-23z"/>
<path d="M32255 3897 c-16 -9 -10 -14 46 -41 36 -18 64 -37 64 -46 0 -8 -23
-26 -52 -39 -70 -32 -68 -45 3 -21 67 23 126 58 122 72 -2 6 -21 16 -43 23
-21 8 -50 22 -64 33 -37 27 -55 31 -76 19z"/>
<path d="M34455 3820 c-3 -5 3 -10 14 -10 11 0 23 5 26 10 3 6 -3 10 -14 10
-11 0 -23 -4 -26 -10z"/>
<path d="M5014 3655 c-80 -27 -109 -74 -59 -97 14 -6 25 -15 25 -19 0 -4 11
-10 24 -13 13 -3 31 -9 40 -12 33 -13 15 27 -19 43 -45 22 -44 38 5 63 63 32
52 58 -16 35z"/>
<path d="M3030 3530 c0 -13 56 -22 110 -18 45 4 45 4 17 16 -33 14 -127 16
-127 2z"/>
<path d="M34345 3460 c-33 -5 -94 -13 -135 -19 -159 -24 -301 -32 -455 -27
-88 3 -238 8 -332 12 -172 6 -173 6 -173 -15 0 -47 125 -69 455 -81 255 -10
350 -7 563 17 127 15 -60 -90 -243 -135 -44 -11 -105 -23 -135 -27 -70 -9 -78
-15 -49 -31 67 -37 277 6 430 88 112 59 243 187 225 217 -8 12 -59 12 -151 1z
m-487 -89 c21 -13 -13 -17 -88 -12 l-65 5 55 7 c30 3 62 6 70 7 8 1 21 -2 28
-7z m107 -1 c4 -6 -6 -10 -22 -10 -22 0 -25 2 -13 10 19 12 27 12 35 0z"/>
<path d="M2886 3237 c-58 -42 106 -184 306 -265 182 -73 408 -102 408 -53 0
13 -22 20 -102 35 -214 39 -362 91 -433 151 -30 26 -30 26 25 20 307 -31 732
-27 916 10 24 5 36 35 23 56 -9 15 -1 15 -349 4 -283 -8 -416 -1 -629 36 -135
23 -142 23 -165 6z m1000 -74 c-25 -25 -516 -45 -586 -23 -50 15 7 20 265 23
143 1 275 3 294 5 19 1 31 -1 27 -5z m-494 -205 c29 -6 58 -16 63 -21 15 -14
-108 0 -147 17 l-33 14 32 1 c17 1 55 -4 85 -11z"/>
<path d="M29840 3089 c-141 -17 -248 -59 -316 -126 -62 -61 -91 -112 -98 -174
-6 -47 -4 -59 14 -82 24 -30 45 -35 54 -11 19 50 158 192 217 221 139 70 306
113 439 113 92 0 126 50 43 63 -52 9 -261 6 -353 -4z"/>
<path d="M32736 2961 c-10 -11 -15 -24 -11 -30 17 -28 105 -64 246 -102 266
-71 334 -87 413 -94 49 -5 76 -11 73 -19 -7 -20 -121 -48 -219 -53 -74 -4 -98
-9 -98 -19 0 -14 16 -18 55 -15 17 2 18 0 5 -9 -17 -13 100 -7 185 9 118 23
235 87 235 130 0 44 -20 52 -158 61 -157 11 -344 48 -502 100 -63 21 -128 41
-145 45 -16 3 -37 8 -46 11 -9 2 -24 -4 -33 -15z m410 -125 c85 -16 134 -33
134 -48 0 -13 -79 2 -144 28 -33 13 -69 24 -80 24 -12 0 -28 5 -36 11 -17 12
-7 11 126 -15z"/>
<path d="M7105 2863 c-25 -6 -45 -22 -45 -35 0 -6 7 -8 15 -4 8 3 15 1 15 -4
0 -6 28 -10 61 -10 139 0 371 -50 474 -103 94 -47 192 -139 210 -197 3 -10 20
-24 38 -31 18 -7 35 -14 38 -16 14 -8 31 60 25 102 -7 57 -23 87 -81 152 -62
71 -179 128 -288 143 -78 10 -424 12 -462 3z"/>
<path d="M32075 2753 c-11 -3 -24 -9 -28 -13 -19 -17 210 -215 384 -331 37
-26 16 -33 -51 -19 -33 7 -63 10 -66 8 -3 -3 11 -23 31 -43 35 -38 35 -38 138
-32 115 6 157 18 157 44 0 20 -13 29 -177 128 -62 37 -147 97 -189 134 -105
91 -157 131 -169 130 -5 -1 -19 -3 -30 -6z m156 -128 c34 -30 86 -69 115 -86
49 -28 89 -67 80 -77 -11 -10 -53 15 -121 71 -40 34 -92 77 -114 95 -40 32
-52 52 -31 52 5 0 37 -25 71 -55z"/>
<path d="M4520 2736 c-30 -8 -95 -28 -145 -46 -119 -42 -273 -75 -420 -89
-213 -21 -203 -18 -210 -52 -9 -39 8 -57 88 -98 129 -65 272 -85 442 -62 195
26 176 39 -62 43 -101 2 -183 6 -183 10 0 3 -19 9 -42 13 -59 10 -111 32 -103
45 3 5 28 10 54 10 140 0 651 141 698 192 17 19 17 20 -2 34 -22 17 -42 17
-115 0z m-30 -55 c0 -22 -307 -111 -380 -110 -35 1 -35 1 5 19 22 11 60 22 85
25 47 7 117 25 210 56 62 21 80 23 80 10z"/>
<path d="M5208 2506 c-42 -33 -101 -82 -130 -107 -72 -63 -143 -111 -233 -159
-98 -52 -115 -63 -115 -73 0 -4 15 -21 32 -38 31 -28 37 -29 125 -29 50 0 103
4 117 10 24 9 63 56 54 65 -2 2 -31 -2 -63 -10 -118 -28 -151 -13 -67 29 27
14 71 42 98 62 27 21 77 59 111 85 90 67 124 99 156 145 32 47 33 60 10 72
-14 7 -35 -4 -95 -52z m32 -23 c0 -13 -159 -154 -224 -200 -33 -24 -67 -43
-75 -43 -20 1 42 57 120 111 31 21 81 61 110 88 52 49 69 59 69 44z"/>
</g><g transform="translate(0.000000,1524.000000) scale(0.100000,-0.100000)"
fill="#ffffff" stroke="none">
<path d="M11835 11414 c-117 -16 -208 -43 -265 -79 -22 -14 -43 -25 -46 -25
-4 0 -42 -25 -85 -57 -139 -99 -249 -266 -295 -443 -81 -316 25 -641 274 -841
87 -70 155 -106 272 -144 77 -26 99 -28 235 -29 139 -1 157 1 240 28 119 38
195 77 276 143 140 112 232 254 275 423 97 384 -67 759 -411 938 -70 37 -102
49 -170 67 -53 14 -247 26 -300 19z m229 -240 c170 -43 317 -159 387 -304 62
-128 64 -136 63 -265 0 -98 -4 -131 -22 -178 -28 -73 -70 -156 -89 -175 -8 -8
-21 -25 -29 -38 -20 -30 -105 -95 -174 -132 -89 -47 -164 -66 -270 -65 -166 0
-287 52 -415 178 -71 70 -86 91 -119 169 -76 179 -71 337 17 512 52 104 171
217 275 261 120 51 265 66 376 37z"/>
<path d="M17680 11414 c-119 -13 -210 -42 -306 -95 -148 -81 -261 -197 -337
-344 -54 -104 -79 -209 -84 -350 -4 -105 -1 -133 21 -220 14 -55 42 -133 62
-173 33 -67 126 -190 165 -219 10 -7 41 -34 71 -59 59 -51 156 -99 268 -134
99 -31 330 -35 425 -7 91 27 163 57 230 96 82 47 223 192 271 277 119 212 143
450 68 679 -80 246 -302 459 -546 524 -75 20 -237 33 -308 25z m200 -238 c217
-46 356 -170 442 -393 30 -78 32 -269 4 -353 -64 -192 -224 -345 -414 -397
-69 -19 -231 -21 -287 -4 -96 30 -209 95 -270 155 -60 59 -135 172 -135 202 0
8 -8 29 -17 47 -15 26 -18 57 -18 168 0 82 5 145 11 160 7 13 28 60 48 104 30
64 52 94 114 155 44 42 102 87 135 104 121 61 259 79 387 52z"/>
<path d="M20860 11414 c-48 -4 -110 -18 -175 -39 -88 -29 -260 -140 -321 -207
-33 -37 -114 -149 -114 -159 0 -5 -13 -30 -29 -56 -49 -83 -74 -198 -74 -353
-1 -119 3 -146 28 -230 15 -52 35 -106 45 -120 10 -14 27 -43 38 -66 51 -101
202 -244 317 -302 33 -16 98 -42 145 -58 78 -26 97 -28 240 -28 144 0 161 2
237 28 178 60 285 132 395 266 137 168 205 407 173 612 -28 177 -84 307 -185
428 -58 69 -163 159 -212 180 -13 6 -38 19 -57 31 -91 55 -291 87 -451 73z
m242 -245 c97 -24 133 -42 216 -104 92 -69 172 -190 212 -319 18 -59 16 -230
-5 -301 -73 -255 -303 -429 -565 -428 -117 0 -190 19 -288 75 -230 132 -344
389 -283 640 29 124 68 195 154 281 153 153 354 209 559 156z"/>
<path d="M26125 11414 c-126 -12 -206 -38 -318 -104 -186 -109 -306 -259 -376
-470 -141 -427 129 -911 574 -1026 53 -14 106 -18 215 -18 165 1 234 16 373
86 74 37 167 109 167 130 0 16 -132 148 -147 148 -8 0 -29 -11 -46 -24 -111
-83 -217 -118 -357 -119 -187 0 -350 82 -466 236 -68 91 -91 144 -110 251 -15
89 -15 105 0 192 23 135 66 217 170 319 121 119 253 175 414 175 114 0 260
-49 348 -116 17 -13 37 -24 45 -24 17 0 149 130 149 147 0 26 -189 151 -265
175 -115 36 -261 53 -370 42z"/>
<path d="M27695 11414 c-58 -6 -148 -26 -159 -36 -6 -4 -18 -8 -28 -8 -10 0
-60 -23 -111 -52 -125 -70 -255 -200 -314 -313 -75 -145 -108 -267 -108 -400
1 -249 111 -477 310 -642 70 -59 147 -99 265 -138 78 -27 97 -29 235 -29 166
0 222 11 352 70 111 50 242 154 307 244 104 142 166 327 166 488 -1 87 -23
229 -39 245 -6 6 -11 19 -11 29 0 47 -111 230 -184 304 -74 74 -223 171 -301
196 -114 36 -267 53 -380 42z m238 -244 c114 -29 190 -73 277 -160 91 -91 132
-170 156 -296 34 -184 -8 -347 -128 -490 -55 -66 -87 -92 -168 -137 -96 -52
-169 -71 -280 -70 -172 1 -294 54 -415 179 -122 126 -168 235 -167 406 0 141
22 212 101 328 141 208 383 301 624 240z"/>
<path d="M6945 11294 c-25 -53 -45 -99 -45 -101 0 -3 -27 -62 -59 -131 -74
-159 -187 -409 -257 -570 -30 -68 -72 -161 -94 -207 -22 -46 -40 -86 -40 -89
0 -6 -48 -112 -111 -243 -27 -57 -49 -109 -49 -117 0 -19 11 -21 130 -21 l105
0 52 105 c28 58 52 113 52 122 1 10 12 25 25 33 21 14 67 16 330 15 355 -1
329 -12 270 117 -57 122 -36 113 -270 113 -125 0 -205 4 -209 10 -6 9 74 201
171 408 24 51 44 95 44 97 0 3 11 28 24 57 14 29 40 88 60 131 47 104 58 101
114 -28 67 -154 215 -482 405 -900 114 -250 126 -275 134 -275 195 -9 233 -7
233 12 0 11 -45 114 -109 250 -22 47 -58 126 -79 175 -41 91 -168 374 -299
663 -42 91 -101 224 -132 295 -86 196 -59 175 -217 175 l-135 0 -44 -96z"/>
<path d="M8194 11376 c-3 -8 -3 -243 -1 -522 4 -567 4 -558 76 -708 191 -394
728 -483 1043 -172 55 54 86 95 115 152 81 161 78 134 78 729 l0 530 -112 3
-113 3 0 -483 c0 -503 -5 -576 -42 -656 -34 -71 -134 -167 -214 -204 -63 -30
-78 -32 -169 -32 -94 -1 -104 2 -175 35 -77 37 -159 110 -202 179 -49 81 -51
102 -55 648 l-5 512 -109 0 c-85 0 -111 -3 -115 -14z"/>
<path d="M9744 11377 c-2 -7 -3 -58 -2 -113 l3 -99 224 -3 c145 -1 229 -6 238
-13 11 -9 13 -134 13 -665 0 -494 3 -655 12 -660 18 -12 191 -13 206 -1 9 7
12 152 12 662 0 530 2 655 13 664 9 7 92 12 233 13 l219 3 0 110 0 110 -583 3
c-477 2 -583 0 -588 -11z"/>
<path d="M15116 11375 c-3 -9 -6 -354 -6 -768 0 -595 2 -757 13 -770 10 -15
27 -17 112 -15 l100 3 5 570 c5 553 6 570 24 570 12 0 28 -15 40 -37 21 -35
89 -142 251 -392 44 -67 113 -175 154 -239 45 -70 81 -117 91 -117 9 0 32 25
51 56 18 30 72 115 119 187 47 73 99 153 115 179 195 306 240 369 262 368 5 0
10 -258 13 -572 l5 -573 105 0 105 0 0 780 0 780 -124 3 c-76 2 -128 -1 -136
-8 -7 -6 -34 -47 -61 -92 -52 -86 -64 -105 -105 -165 -45 -65 -164 -248 -168
-257 -10 -23 -155 -242 -165 -248 -25 -17 -43 -5 -75 50 -19 31 -57 93 -86
137 -28 44 -86 134 -129 200 -42 66 -115 180 -163 253 l-86 132 -127 0 c-105
0 -129 -3 -134 -15z"/>
<path d="M18774 11377 c-2 -7 -3 -58 -2 -113 l3 -99 230 -5 c127 -3 231 -7
232 -8 2 -1 4 -299 5 -661 2 -363 6 -663 11 -667 9 -9 192 -8 207 1 6 4 10
233 10 654 0 502 3 651 13 664 10 15 40 17 237 19 l225 3 0 110 0 110 -583 3
c-477 2 -583 0 -588 -11z"/>
<path d="M24147 11383 c-11 -11 -8 -1551 3 -1558 15 -9 1013 -6 1022 3 5 5 7
53 6 108 l-3 99 -389 3 c-267 1 -393 6 -403 13 -18 15 -19 409 -1 427 9 9 95
12 325 12 249 0 315 3 319 13 4 13 -38 185 -51 207 -4 6 -106 10 -294 10 -210
0 -290 3 -299 12 -18 18 -17 402 1 417 10 7 136 12 403 13 l389 3 0 110 0 110
-511 3 c-281 1 -514 -1 -517 -5z"/>
<path d="M28870 11378 c0 -7 -2 -356 -5 -775 -4 -642 -3 -764 9 -775 11 -12
83 -14 422 -11 225 2 415 5 422 8 8 3 12 35 12 110 l0 105 -302 0 c-173 0
-309 4 -318 10 -13 8 -14 90 -11 653 1 355 0 654 -4 666 -6 20 -13 21 -116 21
-81 0 -109 -3 -109 -12z"/>
<path d="M29997 11383 c-11 -11 -8 -1551 3 -1558 15 -9 1012 -7 1022 3 5 5 7
53 6 108 l-3 99 -397 5 c-218 3 -399 7 -402 10 -3 3 -6 97 -6 209 -1 144 2
206 10 217 10 12 66 14 331 14 251 0 319 3 319 13 0 7 -9 45 -20 85 -11 39
-20 81 -20 92 0 10 -9 24 -19 30 -12 6 -124 10 -295 10 -151 0 -281 3 -290 6
-14 5 -16 33 -16 209 0 157 3 205 13 214 10 7 136 12 403 13 l389 3 0 110 0
110 -511 3 c-281 1 -514 -1 -517 -5z"/>
<path d="M13481 10746 c-8 -9 -11 -51 -9 -122 l3 -109 420 0 420 0 3 109 c2
65 -1 113 -8 121 -16 19 -813 21 -829 1z"/>
<path d="M22527 10753 c-16 -4 -17 -16 -15 -121 l3 -117 420 0 420 0 3 109 c2
68 -1 113 -8 121 -9 11 -89 14 -408 13 -218 0 -405 -2 -415 -5z"/>
<path d="M3466 8382 c-7 -12 3 -42 14 -42 18 0 22 22 7 37 -9 9 -17 11 -21 5z"/>
<path d="M16430 8319 c-277 -36 -467 -89 -686 -194 -263 -126 -519 -324 -698
-544 -82 -100 -201 -284 -252 -389 -54 -112 -126 -298 -143 -367 -7 -27 -16
-66 -21 -85 -92 -372 -60 -875 78 -1210 98 -238 220 -445 352 -600 68 -79 250
-259 278 -274 9 -5 51 -35 92 -66 73 -55 158 -106 310 -188 108 -57 307 -123
530 -175 86 -19 122 -22 370 -21 287 0 313 3 520 57 501 131 952 460 1225 892
59 95 153 279 180 355 9 25 25 70 36 100 57 153 94 355 105 570 7 134 -18 444
-38 467 -8 10 -257 13 -1192 13 -664 0 -1187 -4 -1195 -9 -8 -5 -17 -29 -22
-52 -4 -24 -16 -80 -28 -124 -11 -44 -31 -129 -45 -190 -14 -60 -31 -128 -37
-150 -6 -22 -17 -65 -26 -95 -8 -30 -20 -75 -28 -99 -7 -24 -11 -50 -8 -57 4
-12 147 -14 878 -14 603 0 876 -3 880 -11 15 -23 -82 -230 -154 -327 -215
-294 -470 -459 -816 -529 -102 -20 -353 -23 -450 -4 -84 16 -239 64 -314 97
-197 87 -409 270 -537 461 -213 321 -272 740 -152 1098 81 242 229 448 453
630 89 73 265 164 382 199 311 93 668 67 946 -70 84 -41 221 -131 265 -174 86
-83 123 -110 140 -101 17 9 364 358 477 479 l59 63 -99 96 c-55 53 -116 106
-135 119 -19 13 -73 51 -120 84 -81 58 -366 210 -394 210 -7 0 -33 9 -57 19
-199 88 -655 143 -909 110z"/>
<path d="M23670 8318 c-158 -18 -367 -71 -465 -118 -176 -84 -314 -191 -424
-329 -165 -206 -243 -447 -245 -751 -1 -230 43 -378 167 -564 55 -82 232 -253
322 -312 150 -99 223 -143 276 -167 259 -119 267 -122 589 -223 63 -20 131
-42 150 -49 19 -7 76 -25 125 -40 194 -59 369 -173 419 -274 32 -63 48 -144
36 -176 -6 -15 -10 -38 -10 -51 0 -45 -49 -134 -101 -184 -64 -62 -190 -124
-291 -144 -146 -30 -384 -15 -534 33 -135 43 -309 142 -452 258 -30 24 -59 43
-66 43 -15 0 -530 -514 -534 -533 -7 -32 205 -176 426 -288 255 -130 504 -207
777 -240 135 -17 532 -7 615 15 36 10 90 24 120 33 91 24 295 112 332 142 7 6
51 39 98 73 221 164 371 441 419 776 20 134 8 337 -24 422 -77 205 -104 252
-233 398 -81 90 -217 201 -347 281 -55 34 -107 66 -115 71 -14 10 -133 67
-195 95 -16 7 -59 26 -95 43 -101 45 -213 81 -460 149 -51 14 -210 65 -255 82
-70 26 -164 81 -207 120 -28 25 -56 49 -63 53 -20 12 -60 88 -75 140 -45 166
67 358 252 436 43 17 86 32 96 32 10 0 22 4 28 9 17 17 214 30 304 20 106 -12
140 -21 265 -66 97 -36 191 -85 231 -121 10 -9 48 -42 84 -72 35 -30 72 -63
82 -73 14 -13 23 -15 36 -8 22 11 542 540 542 550 0 11 -106 101 -191 162 -91
66 -173 112 -284 159 -44 19 -84 37 -90 41 -17 12 -183 68 -263 88 -254 64
-543 86 -772 59z"/>
<path d="M34570 8291 c0 -5 -19 -33 -43 -62 -24 -30 -71 -98 -106 -151 -54
-83 -61 -99 -51 -117 14 -27 36 -27 50 0 7 11 18 28 26 37 16 18 38 49 101
142 29 44 37 65 38 107 2 29 -2 53 -6 53 -5 0 -9 -4 -9 -9z"/>
<path d="M8882 8237 c-9 -11 -11 -476 -10 -1988 l3 -1974 390 0 390 0 2 1585
c3 1476 4 1586 20 1598 21 15 616 17 743 2 188 -23 336 -100 457 -239 103
-117 154 -251 156 -406 1 -193 -61 -344 -198 -478 -161 -159 -276 -196 -606
-197 -121 0 -169 -3 -177 -12 -11 -14 -113 -251 -156 -363 -15 -38 -31 -79
-36 -90 -82 -187 -122 -295 -116 -310 5 -14 48 -15 403 -12 261 3 417 8 453
16 261 58 399 113 568 225 328 218 536 527 628 931 26 115 26 425 1 545 -67
309 -182 525 -390 739 -129 131 -256 222 -422 301 -58 27 -113 50 -122 50 -10
0 -27 7 -37 15 -11 8 -31 15 -44 15 -13 0 -32 5 -42 10 -11 6 -57 18 -102 27
-119 23 -1737 33 -1756 10z"/>
<path d="M12037 8243 c-12 -11 -8 -3971 3 -3975 5 -1 617 -2 1360 0 l1350 2 0
383 c0 285 -3 386 -12 395 -9 9 -236 12 -959 12 -573 0 -950 4 -954 9 -3 5 -6
180 -7 389 -2 303 1 383 11 396 12 14 94 16 805 18 l791 3 -2 30 c-1 17 -6 46
-12 65 -5 19 -17 64 -26 100 -9 36 -23 88 -31 115 -8 28 -30 118 -49 200 -33
137 -42 175 -60 243 l-6 22 -697 0 c-383 0 -702 4 -709 8 -8 5 -12 112 -14
396 -3 370 -2 389 16 402 16 12 176 14 959 14 517 0 943 3 948 8 4 4 7 179 6
388 l-3 379 -1351 3 c-743 1 -1354 -1 -1357 -5z"/>
<path d="M20038 8233 c-8 -10 -23 -40 -33 -68 -10 -27 -44 -104 -76 -170 -31
-66 -78 -169 -104 -230 -26 -60 -67 -150 -90 -200 -24 -49 -52 -112 -63 -140
-11 -27 -38 -88 -60 -135 -21 -47 -62 -137 -90 -200 -27 -63 -57 -128 -65
-145 -21 -40 -77 -164 -77 -170 0 -3 -34 -79 -75 -168 -42 -89 -80 -171 -85
-182 -5 -11 -32 -72 -60 -135 -29 -63 -81 -178 -115 -255 -34 -77 -76 -169
-93 -205 -17 -36 -51 -110 -75 -165 -25 -55 -89 -197 -142 -315 -135 -299
-224 -495 -284 -630 -28 -63 -58 -128 -66 -145 -54 -114 -135 -295 -135 -300
0 -3 194 -5 431 -5 l430 0 33 73 c31 67 194 427 238 527 11 25 22 47 25 50 3
3 374 7 826 10 766 5 822 6 819 22 -1 9 -25 66 -53 125 -73 154 -84 181 -113
250 -14 34 -39 88 -55 120 -16 32 -48 102 -72 156 -23 54 -50 102 -59 107 -10
5 -210 8 -459 7 -359 -2 -444 0 -453 11 -13 15 7 68 79 217 24 49 61 130 83
180 21 49 58 133 83 185 24 52 59 129 77 170 18 41 52 116 75 165 23 50 61
133 83 186 23 53 63 141 90 196 27 55 54 115 60 132 12 34 38 39 53 11 12 -22
126 -270 159 -345 5 -11 27 -60 50 -110 23 -49 65 -142 92 -205 27 -63 67
-151 88 -195 40 -84 131 -286 232 -515 32 -74 79 -175 103 -225 24 -49 60
-130 80 -180 21 -49 41 -94 45 -100 7 -9 135 -292 257 -570 24 -55 68 -152 97
-215 30 -63 66 -143 82 -177 l28 -63 428 0 c459 0 446 -1 418 48 -6 9 -24 49
-41 87 -17 39 -75 167 -129 285 -53 118 -141 312 -194 430 -54 118 -129 285
-168 370 -102 227 -108 239 -108 244 0 2 -27 60 -60 130 -33 69 -70 150 -81
178 -11 29 -40 94 -64 143 -23 50 -57 124 -75 165 -18 41 -49 111 -70 155 -21
44 -64 139 -95 210 -31 72 -73 164 -92 205 -20 41 -53 116 -75 165 -22 50 -50
113 -63 140 -23 50 -108 242 -124 280 -5 11 -33 72 -64 135 -30 63 -58 126
-62 140 -5 14 -32 77 -62 140 -30 63 -73 158 -96 210 -22 52 -45 101 -50 108
-7 9 -101 12 -407 12 -366 0 -398 -1 -412 -17z"/>
<path d="M25605 8228 c-3 -13 -4 -907 -3 -1988 l3 -1965 1360 0 1360 0 3 379
c1 271 -1 383 -9 392 -10 12 -170 14 -960 14 -628 0 -950 3 -954 10 -4 6 -6
184 -6 397 1 299 4 389 13 395 7 4 367 8 800 8 467 0 789 4 793 9 5 9 -32 168
-95 406 -18 66 -35 136 -40 155 -27 120 -45 187 -53 198 -7 9 -159 12 -701 12
-380 0 -696 4 -703 8 -9 5 -12 110 -14 401 -2 327 0 395 12 402 8 5 418 9 957
9 518 -1 947 2 952 5 15 10 13 748 -2 763 -9 9 -325 12 -1360 12 l-1348 0 -5
-22z"/>
<path d="M2810 7995 c0 -8 -5 -15 -11 -15 -30 0 37 -125 108 -200 38 -40 66
-50 79 -29 8 13 -21 71 -62 124 -17 22 -37 51 -44 65 -15 30 -50 70 -62 70 -4
0 -8 -7 -8 -15z"/>
<path d="M34340 7905 c0 -9 5 -15 11 -13 6 2 11 8 11 13 0 5 -5 11 -11 13 -6
2 -11 -4 -11 -13z"/>
<path d="M33935 7801 c-59 -95 -52 -125 10 -36 27 40 35 59 27 67 -7 7 -18 -2
-37 -31z"/>
<path d="M3300 7766 c0 -4 7 -23 17 -44 12 -27 17 -32 20 -20 3 10 -5 30 -16
44 -12 15 -21 24 -21 20z"/>
<path d="M3000 7696 c0 -9 7 -16 16 -16 17 0 14 22 -4 28 -7 2 -12 -3 -12 -12z"/>
<path d="M3360 7657 c0 -15 42 -95 60 -114 10 -11 34 -52 53 -89 32 -64 77
-120 77 -97 0 6 -22 43 -49 84 -26 41 -57 92 -69 114 -22 43 -72 114 -72 102z"/>
<path d="M34581 7597 c-40 -53 -50 -77 -32 -77 11 0 85 119 78 126 -2 2 -23
-20 -46 -49z"/>
<path d="M3045 7630 c-7 -11 39 -76 61 -84 26 -10 16 34 -11 46 -14 6 -25 19
-25 30 0 19 -15 24 -25 8z"/>
<path d="M2630 7585 c0 -5 10 -26 22 -45 11 -19 32 -55 46 -79 14 -25 29 -50
34 -55 11 -13 71 -105 104 -161 32 -52 63 -89 70 -82 5 4 -51 98 -100 168 -54
78 -94 140 -111 172 -24 45 -64 96 -65 82z"/>
<path d="M33798 7568 c-24 -36 -39 -68 -33 -68 8 0 58 80 53 86 -3 2 -12 -6
-20 -18z"/>
<path d="M34835 7462 c-84 -79 -335 -378 -335 -399 0 -5 -16 -27 -35 -49 -35
-39 -69 -94 -61 -101 12 -12 305 283 403 405 76 95 83 108 83 148 0 24 -1 44
-2 44 -2 -1 -25 -22 -53 -48z"/>
<path d="M34481 7435 c-24 -36 -42 -68 -38 -71 5 -5 73 93 84 123 10 26 -3 12
-46 -52z"/>
<path d="M34410 7330 c-7 -13 -7 -20 -1 -20 6 0 15 9 21 20 7 13 7 20 1 20 -6
0 -15 -9 -21 -20z"/>
<path d="M2480 7255 c0 -7 -4 -15 -10 -17 -17 -5 27 -79 100 -168 90 -108 310
-330 329 -330 8 0 29 -17 47 -37 18 -21 33 -32 34 -25 0 7 -7 15 -15 18 -8 4
-15 10 -15 15 0 11 -64 103 -96 139 -12 14 -68 82 -123 152 -164 207 -251 295
-251 253z"/>
<path d="M3600 7266 c0 -15 41 -76 51 -76 11 0 0 22 -30 60 -12 14 -21 21 -21
16z"/>
<path d="M35032 7198 c-63 -103 -64 -104 -13 -48 48 52 62 80 42 80 -5 0 -18
-15 -29 -32z"/>
<path d="M2959 7073 c12 -24 31 -39 31 -25 0 5 -10 17 -21 28 -22 19 -22 19
-10 -3z"/>
<path d="M2270 7033 c0 -5 14 -30 31 -54 40 -56 38 -53 45 -46 3 3 -4 21 -17
39 -33 46 -59 74 -59 61z"/>
<path d="M34866 6976 c-40 -44 -75 -102 -54 -90 32 19 110 124 92 124 -3 0
-20 -15 -38 -34z"/>
<path d="M2360 6906 c0 -11 17 -40 38 -65 20 -25 62 -79 92 -118 29 -40 57
-73 61 -73 4 0 10 -9 14 -20 3 -10 32 -47 63 -82 31 -35 68 -78 80 -96 21 -29
62 -61 62 -48 0 6 -147 189 -177 221 -10 11 -27 34 -38 52 -17 26 -71 95 -177
227 -17 20 -17 20 -18 2z"/>
<path d="M34749 6823 c-48 -52 -94 -113 -83 -113 11 0 98 96 117 129 10 17 17
31 15 31 -2 0 -24 -21 -49 -47z"/>
<path d="M35160 6799 c0 -18 2 -19 15 -9 15 12 12 30 -6 30 -5 0 -9 -10 -9
-21z"/>
<path d="M34960 6632 c-23 -19 -21 -42 5 -42 12 0 31 48 22 56 -2 3 -15 -4
-27 -14z"/>
<path d="M3010 6621 c0 -12 51 -53 58 -46 6 6 -38 55 -50 55 -4 0 -8 -4 -8 -9z"/>
<path d="M34565 6600 c-10 -11 -13 -20 -7 -20 6 0 16 9 22 20 6 11 9 20 7 20
-2 0 -12 -9 -22 -20z"/>
<path d="M34904 6574 c-3 -12 -16 -26 -29 -32 -13 -6 -74 -60 -136 -121 -63
-60 -158 -151 -211 -202 -54 -51 -98 -97 -98 -102 0 -10 106 64 146 102 16 15
48 42 72 59 77 55 252 229 252 250 0 8 8 21 18 28 14 10 15 15 4 26 -10 10
-14 9 -18 -8z"/>
<path d="M2293 6457 c2 -7 10 -12 19 -12 28 0 69 -35 63 -54 -4 -12 9 -31 42
-62 27 -25 64 -63 83 -84 20 -22 82 -80 139 -130 57 -49 127 -111 157 -137 57
-50 112 -83 122 -73 7 6 -300 310 -393 387 -33 28 -86 78 -118 110 -40 42 -66
61 -88 63 -21 3 -29 0 -26 -8z"/>
<path d="M31916 6344 c-33 -32 -69 -85 -62 -91 9 -10 46 28 67 70 21 40 19 46
-5 21z"/>
<path d="M2839 6313 c12 -24 31 -39 31 -25 0 5 -10 17 -21 28 -22 19 -22 19
-10 -3z"/>
<path d="M35006 6278 c-14 -18 -23 -34 -20 -37 5 -6 64 50 64 61 0 17 -20 7
-44 -24z"/>
<path d="M2235 6163 c19 -29 81 -93 90 -93 7 0 -32 57 -64 93 -32 35 -49 35
-26 0z"/>
<path d="M34871 6139 c-48 -49 -61 -69 -43 -69 8 0 34 26 91 93 42 47 6 29
-48 -24z"/>
<path d="M31748 6146 c-18 -14 -25 -46 -10 -46 12 0 42 34 42 48 0 15 -11 15
-32 -2z"/>
<path d="M2350 6035 c0 -8 219 -238 242 -254 46 -32 24 3 -49 76 -43 44 -100
103 -126 131 -43 46 -67 63 -67 47z"/>
<path d="M4750 6030 c0 -6 8 -13 18 -16 9 -3 24 -10 32 -15 17 -10 73 -36 107
-49 13 -5 25 -5 28 0 6 10 -72 55 -130 76 -48 17 -55 17 -55 4z"/>
<path d="M5520 6003 c0 -14 51 -93 60 -93 21 0 8 42 -20 70 -31 30 -40 36 -40
23z"/>
<path d="M34718 5983 c-30 -36 -30 -45 1 -22 30 22 40 39 23 39 -5 0 -16 -8
-24 -17z"/>
<path d="M31600 5965 c0 -8 5 -15 10 -15 6 0 10 7 10 15 0 8 -4 15 -10 15 -5
0 -10 -7 -10 -15z"/>
<path d="M35190 5940 c0 -6 -11 -15 -24 -19 -22 -9 -44 -51 -25 -51 15 0 79
62 73 71 -7 12 -24 11 -24 -1z"/>
<path d="M32554 5902 c-79 -95 -126 -190 -57 -116 28 30 97 143 91 149 -2 2
-17 -13 -34 -33z"/>
<path d="M5610 5886 c0 -18 17 -29 30 -21 8 5 7 11 -1 21 -15 18 -29 18 -29 0z"/>
<path d="M2954 5861 c21 -23 26 -26 26 -11 0 5 -10 15 -22 21 -23 12 -23 12
-4 -10z"/>
<path d="M3009 5809 c13 -11 26 -17 29 -14 8 8 -20 35 -37 35 -12 -1 -11 -5 8
-21z"/>
<path d="M35015 5810 c-6 -9 -227 -189 -271 -220 -12 -8 -39 -27 -60 -42 -66
-46 -109 -86 -101 -94 4 -4 20 4 35 17 15 14 81 61 147 104 109 72 141 96 243
186 19 16 37 29 42 29 4 0 10 7 14 15 4 11 -1 15 -19 15 -13 0 -27 -4 -30 -10z"/>
<path d="M5695 5800 c-8 -13 4 -32 16 -25 5 3 6 -1 3 -9 -3 -9 8 -24 33 -40
50 -35 53 -17 7 39 -40 47 -49 52 -59 35z"/>
<path d="M4801 5657 c31 -57 129 -174 129 -152 0 4 -17 28 -38 54 -21 25 -47
60 -57 78 -22 38 -53 57 -34 20z"/>
<path d="M31299 5639 c-20 -10 -39 -25 -42 -34 -4 -8 -15 -15 -26 -15 -11 0
-23 -5 -26 -10 -4 -6 -21 -16 -38 -24 -18 -7 -64 -42 -103 -77 -39 -35 -98
-89 -132 -119 -54 -48 -60 -58 -55 -83 5 -24 -1 -36 -43 -78 -26 -27 -54 -49
-60 -49 -7 0 -22 -13 -34 -30 -34 -48 -6 -35 79 38 43 37 101 84 128 105 116
93 404 379 392 391 -2 2 -20 -4 -40 -15z"/>
<path d="M32800 5650 c-12 -8 -11 -10 7 -10 12 0 25 5 28 10 8 13 -15 13 -35
0z"/>
<path d="M2309 5578 c17 -18 31 -36 31 -40 0 -3 19 -17 43 -31 23 -14 73 -50
110 -81 60 -49 217 -162 265 -191 9 -6 37 -24 61 -40 80 -55 101 -67 101 -58
0 4 -17 19 -36 33 -20 14 -68 50 -107 81 -40 31 -97 73 -127 94 -58 40 -80 57
-170 131 -58 48 -183 134 -194 134 -4 0 7 -15 23 -32z"/>
<path d="M35026 5496 c-20 -20 -36 -38 -36 -41 0 -10 35 13 59 39 38 40 18 41
-23 2z"/>
<path d="M5990 5461 c0 -5 7 -15 17 -22 9 -8 33 -35 53 -60 42 -54 236 -239
335 -322 39 -31 79 -65 90 -75 42 -38 114 -92 122 -92 4 0 -11 18 -34 40 -24
21 -43 43 -43 48 0 5 -7 15 -16 23 -10 8 -13 21 -9 37 5 21 -6 36 -75 103 -93
91 -256 219 -279 219 -15 0 -114 70 -129 91 -14 20 -32 26 -32 10z"/>
<path d="M2190 5394 c0 -6 44 -50 80 -79 14 -11 3 4 -25 33 -49 52 -55 57 -55
46z"/>
<path d="M2412 5188 c2 -6 15 -18 28 -27 22 -15 23 -15 12 6 -12 22 -46 41
-40 21z"/>
<path d="M4550 5184 c0 -6 16 -25 35 -44 19 -19 35 -29 35 -24 0 6 -16 25 -35
44 -19 19 -35 29 -35 24z"/>
<path d="M30663 5055 c-36 -15 -64 -55 -39 -55 16 0 83 57 75 64 -2 2 -18 -2
-36 -9z"/>
<path d="M34919 4974 c-12 -14 -11 -16 5 -13 11 2 21 10 24 17 5 17 -13 15
-29 -4z"/>
<path d="M34820 4918 c-25 -11 -47 -24 -50 -27 -3 -4 -16 -12 -30 -19 -61 -32
-80 -44 -80 -52 0 -13 42 4 120 48 36 20 73 40 83 44 17 7 25 29 10 27 -5 0
-28 -10 -53 -21z"/>
<path d="M6620 4865 c0 -13 38 -41 45 -33 1 2 -1 13 -6 26 -9 24 -39 30 -39 7z"/>
<path d="M30931 4859 c-12 -12 -20 -23 -18 -26 7 -6 46 19 51 34 8 19 -7 16
-33 -8z"/>
<path d="M32830 4785 c-7 -8 -8 -15 -2 -15 5 0 15 7 22 15 7 8 8 15 2 15 -5 0
-15 -7 -22 -15z"/>
<path d="M2390 4770 c0 -19 105 -89 184 -122 28 -12 56 -28 61 -34 10 -12 115
-64 128 -64 4 0 7 5 7 10 0 6 -5 10 -12 10 -6 0 -19 6 -27 14 -9 8 -32 22 -51
33 -19 10 -60 35 -90 54 -75 49 -200 111 -200 99z"/>
<path d="M30775 4725 c-73 -65 -105 -98 -98 -105 3 -3 8 1 10 8 3 6 10 12 16
12 14 0 137 111 137 123 0 15 -16 6 -65 -38z"/>
<path d="M34497 4743 c-4 -3 -7 -10 -7 -14 0 -9 39 1 46 12 6 10 -29 12 -39 2z"/>
<path d="M6350 4695 c0 -8 81 -79 94 -84 6 -2 -9 17 -34 43 -41 41 -60 54 -60
41z"/>
<path d="M30618 4586 c-19 -14 -25 -46 -9 -46 6 0 17 10 25 22 26 37 18 50
-16 24z"/>
<path d="M6476 4575 c4 -8 13 -15 21 -15 13 0 13 3 3 15 -7 8 -16 15 -21 15
-5 0 -6 -7 -3 -15z"/>
<path d="M34705 4559 c-16 -10 -25 -19 -20 -19 6 0 24 9 40 20 17 11 26 20 20
19 -5 0 -23 -9 -40 -20z"/>
<path d="M4534 4544 c15 -14 31 -22 35 -19 7 8 -36 45 -53 45 -6 0 2 -12 18
-26z"/>
<path d="M2366 4515 c4 -8 12 -15 20 -15 19 0 18 16 -2 24 -22 9 -24 8 -18 -9z"/>
<path d="M2526 4406 c6 -16 54 -40 54 -26 0 5 -13 16 -30 25 -24 12 -28 13
-24 1z"/>
<path d="M30310 4340 c-16 -22 -19 -35 -12 -42 15 -15 63 22 59 46 -3 31 -23
29 -47 -4z"/>
<path d="M6820 4245 c7 -8 16 -15 21 -15 5 0 9 7 9 15 0 9 -9 15 -21 15 -18 0
-19 -2 -9 -15z"/>
<path d="M6943 4176 c12 -25 25 -42 28 -40 4 2 28 -9 52 -26 25 -16 49 -30 55
-30 5 0 16 -10 25 -22 8 -13 19 -19 23 -15 5 5 0 15 -11 23 -27 19 -87 70
-136 117 -23 20 -45 37 -49 37 -5 0 1 -20 13 -44z"/>
<path d="M2925 3809 c-5 -7 29 -19 58 -19 10 0 16 4 13 9 -7 11 -65 20 -71 10z"/>
<path d="M3035 3780 c3 -5 23 -10 43 -9 30 0 33 2 17 9 -28 12 -67 12 -60 0z"/>
<path d="M3408 3143 c34 -2 90 -2 125 0 34 2 6 3 -63 3 -69 0 -97 -1 -62 -3z"/>
<path d="M32340 2522 c0 -12 23 -32 37 -32 22 0 15 16 -12 28 -14 6 -25 8 -25
4z"/>
</g></svg>