<svg xmlns="http://www.w3.org/2000/svg" xmlns:xlink="http://www.w3.org/1999/xlink" width="2000" zoomAndPan="magnify" viewBox="0 0 1500 1499.999933" height="2000" preserveAspectRatio="xMidYMid meet" version="1.0"><defs><g/><clipPath id="28a85deada"><rect x="0" width="375" y="0" height="159"/></clipPath></defs><path fill="#16b5c6" d="M 456.402344 458.742188 C 433.945312 461.347656 397.652344 469.566406 381.714844 475.878906 C 375.398438 478.386719 367.277344 481.492188 363.667969 482.796875 C 360.058594 484 354.242188 486.703125 350.632812 488.609375 C 347.023438 490.613281 342.113281 493.21875 339.605469 494.320312 C 337.097656 495.523438 333.289062 497.726562 331.082031 499.230469 C 327.472656 501.636719 318.753906 507.148438 314.441406 509.753906 C 302.910156 516.769531 278.25 539.019531 263.511719 555.753906 C 253.886719 566.679688 239.148438 587.324219 234.035156 597.042969 C 225.3125 613.480469 216.191406 633.023438 215.289062 637.03125 C 214.6875 639.636719 213.582031 643.042969 212.78125 644.648438 C 211.980469 646.152344 210.574219 650.5625 209.671875 654.269531 C 208.871094 657.976562 207.265625 663.789062 206.265625 667.097656 C 204.359375 672.910156 201.050781 700.167969 199.746094 719.710938 C 198.746094 734.945312 202.855469 775.53125 206.765625 788.359375 C 208.070312 792.769531 209.472656 797.980469 209.875 799.886719 C 210.175781 801.789062 211.578125 806 212.882812 809.105469 C 214.183594 812.3125 215.289062 815.71875 215.289062 816.722656 C 215.289062 818.726562 229.523438 849.394531 231.628906 851.898438 C 232.429688 852.800781 233.632812 855.105469 234.335938 857.007812 C 235.136719 858.914062 237.445312 862.921875 239.648438 866.03125 C 241.753906 869.035156 244.664062 873.34375 246.167969 875.550781 C 253.988281 887.277344 267.121094 902.808594 280.054688 915.636719 C 294.992188 930.570312 309.128906 941.59375 328.976562 953.71875 C 333.488281 956.425781 338.503906 959.632812 340.105469 960.835938 C 344.117188 963.542969 365.671875 973.964844 373.191406 976.769531 C 399.359375 986.589844 406.976562 989.097656 411.890625 989.597656 C 415 990 420.511719 991.203125 424.121094 992.304688 C 427.628906 993.40625 436.453125 995.210938 443.472656 996.3125 C 450.589844 997.414062 460.214844 999.019531 464.925781 999.820312 C 474.652344 1001.523438 505.128906 1001.824219 511.546875 1000.320312 C 513.75 999.71875 522.574219 998.21875 531.09375 996.8125 C 539.617188 995.308594 551.949219 992.90625 558.363281 991.300781 C 564.78125 989.597656 570.796875 988.296875 571.699219 988.296875 C 573.402344 988.296875 589.445312 982.382812 596.261719 979.074219 C 598.769531 977.972656 602.777344 976.46875 605.285156 975.667969 C 607.792969 974.964844 612.703125 972.863281 616.3125 970.855469 C 619.921875 968.953125 625.234375 966.148438 628.242188 964.742188 C 631.25 963.242188 634.960938 961.136719 636.464844 959.933594 C 637.96875 958.730469 641.578125 956.324219 644.382812 954.722656 C 654.511719 948.910156 667.945312 938.585938 681.277344 926.160156 C 695.214844 913.332031 717.570312 888.777344 717.570312 886.375 C 717.570312 884.667969 713.058594 880.359375 709.148438 878.355469 C 707.546875 877.453125 702.933594 873.945312 698.824219 870.4375 C 691.105469 863.722656 687.695312 862.523438 685.089844 865.730469 C 684.285156 866.730469 681.378906 870.238281 678.671875 873.546875 C 675.964844 876.851562 672.65625 881.363281 671.253906 883.566406 C 666.140625 891.484375 634.160156 922.550781 627.339844 926.160156 C 625.9375 926.863281 622.027344 929.667969 618.519531 932.375 C 615.007812 935.179688 610.699219 937.984375 608.996094 938.6875 C 607.191406 939.488281 604.28125 941.191406 602.378906 942.597656 C 600.472656 944 598.367188 945.203125 597.765625 945.203125 C 597.0625 945.203125 594.558594 946.503906 592.152344 948.207031 C 589.746094 949.8125 587.039062 951.214844 586.136719 951.214844 C 585.234375 951.214844 582.023438 952.515625 578.917969 954.222656 C 575.808594 955.824219 572.601562 957.226562 571.898438 957.226562 C 571.097656 957.226562 568.089844 958.53125 565.082031 960.132812 C 562.074219 961.738281 557.664062 963.339844 555.15625 963.742188 C 552.648438 964.144531 547.234375 965.546875 543.125 966.847656 C 539.015625 968.152344 528.890625 970.457031 520.566406 971.960938 C 506.632812 974.566406 503.625 974.765625 479.964844 974.765625 C 459.410156 974.765625 452.894531 974.464844 446.878906 973.0625 C 442.769531 972.058594 435.75 970.855469 431.339844 970.15625 C 426.929688 969.554688 421.113281 968.152344 418.304688 967.148438 C 415.601562 966.148438 410.585938 964.742188 407.378906 964.144531 C 404.070312 963.542969 399.359375 962.039062 396.851562 960.835938 C 394.34375 959.53125 391.136719 958.128906 389.734375 957.730469 C 388.328125 957.328125 384.519531 955.722656 381.210938 954.121094 C 377.902344 952.617188 373.59375 950.714844 371.6875 949.8125 C 369.78125 948.910156 365.472656 946.703125 362.164062 944.800781 C 358.855469 942.898438 354.542969 940.492188 352.636719 939.589844 C 350.734375 938.6875 347.726562 936.785156 346.023438 935.28125 C 344.21875 933.875 340.507812 931.070312 337.699219 929.167969 C 329.378906 923.554688 319.753906 915.4375 310.230469 906.214844 C 300.503906 896.695312 285.46875 879.859375 283.5625 876.351562 C 282.960938 875.050781 280.253906 871.242188 277.648438 867.632812 C 275.039062 864.125 271.332031 858.414062 269.425781 854.90625 C 267.519531 851.496094 264.414062 846.386719 262.707031 843.582031 C 260.902344 840.773438 259.398438 837.867188 259.398438 836.964844 C 259.398438 836.164062 258.097656 832.757812 256.492188 829.449219 C 252.082031 820.328125 247.671875 808.804688 246.867188 804.394531 C 246.46875 802.191406 245.0625 797.882812 243.859375 794.875 C 242.558594 791.867188 241.054688 785.253906 240.351562 780.34375 C 239.75 775.332031 238.546875 768.617188 237.644531 765.308594 C 235.738281 757.894531 234.636719 714.097656 236.140625 705.679688 C 236.742188 702.675781 237.84375 695.457031 238.847656 689.644531 C 240.753906 677.820312 242.457031 670.203125 244.761719 663.589844 C 245.566406 661.082031 247.167969 656.375 248.273438 653.066406 C 251.78125 642.140625 254.085938 636.128906 256.792969 631.117188 C 258.195312 628.414062 259.398438 625.507812 259.398438 624.804688 C 259.398438 623.402344 263.710938 615.683594 269.023438 607.46875 C 270.328125 605.5625 271.730469 602.855469 272.234375 601.453125 C 272.835938 600.050781 275.242188 596.441406 277.648438 593.4375 C 280.054688 590.429688 282.859375 586.519531 283.964844 584.917969 C 291.882812 572.390625 317.046875 546.835938 332.1875 536.011719 C 334.292969 534.40625 339.503906 530.699219 343.617188 527.59375 C 347.726562 524.585938 352.738281 521.378906 354.644531 520.578125 C 356.546875 519.777344 359.054688 518.273438 360.15625 517.269531 C 361.261719 516.367188 363.667969 515.066406 365.472656 514.464844 C 367.277344 513.863281 369.984375 512.460938 371.488281 511.457031 C 372.992188 510.355469 375.296875 509.152344 376.699219 508.753906 C 378.105469 508.351562 382.113281 506.847656 385.722656 505.246094 C 399.558594 499.433594 408.582031 496.226562 416 494.722656 C 420.3125 493.820312 425.523438 492.515625 427.628906 491.816406 C 429.835938 491.011719 439.5625 489.410156 449.183594 488.207031 C 463.523438 486.402344 470.238281 486.101562 484.675781 486.503906 C 505.429688 487.003906 527.183594 489.511719 535.105469 492.316406 C 538.113281 493.417969 543.328125 494.722656 546.734375 495.222656 C 550.144531 495.824219 555.859375 497.527344 559.46875 499.230469 C 563.175781 500.835938 566.785156 502.238281 567.488281 502.238281 C 568.289062 502.238281 571.097656 503.339844 573.804688 504.742188 C 576.511719 506.144531 580.519531 507.75 582.726562 508.351562 C 584.933594 508.953125 587.941406 510.457031 589.445312 511.757812 C 590.949219 513.0625 593.554688 514.363281 595.257812 514.765625 C 596.863281 515.167969 598.46875 515.867188 598.867188 516.367188 C 599.167969 516.871094 601.777344 518.472656 604.582031 519.875 C 610.5 522.882812 611.800781 523.785156 627.339844 535.308594 C 642.882812 546.835938 664.136719 567.179688 670.25 576.398438 C 675.265625 583.914062 687.996094 598.746094 690.300781 599.550781 C 692.40625 600.351562 695.316406 599.949219 703.535156 597.847656 C 709.351562 596.441406 717.871094 594.941406 722.484375 594.539062 C 732.910156 593.835938 734.414062 592.332031 730.203125 587.222656 C 728.699219 585.417969 725.492188 580.910156 723.1875 577.300781 C 720.878906 573.59375 717.871094 569.183594 716.46875 567.480469 C 712.558594 562.167969 687.394531 534.910156 685.589844 533.90625 C 684.6875 533.40625 680.578125 530 676.265625 526.390625 C 672.054688 522.78125 666.941406 518.671875 664.9375 517.269531 C 662.933594 515.867188 659.824219 513.5625 658.121094 512.160156 C 656.316406 510.757812 653.808594 508.953125 652.40625 508.25 C 651 507.550781 646.691406 504.84375 642.78125 502.238281 C 638.871094 499.53125 633.457031 496.324219 630.75 495.023438 C 628.042969 493.71875 622.730469 490.914062 618.820312 488.808594 C 615.007812 486.703125 609.09375 484 605.785156 482.695312 C 602.476562 481.394531 593.957031 478.085938 586.9375 475.28125 C 579.820312 472.472656 573.101562 470.167969 572 470.167969 C 570.796875 470.167969 565.082031 468.867188 559.265625 467.261719 C 553.453125 465.660156 540.71875 463.152344 531.09375 461.648438 C 515.855469 459.246094 510.042969 458.84375 486.980469 458.644531 C 472.34375 458.441406 458.609375 458.542969 456.402344 458.742188 Z M 456.402344 458.742188 " fill-opacity="1" fill-rule="nonzero"/><path fill="#e2001a" d="M 950.566406 594.4375 C 944.25 595.140625 937.332031 598.347656 933.824219 602.253906 C 932.824219 603.257812 931.621094 606.867188 931.117188 610.074219 C 930.015625 616.585938 930.015625 712.59375 931.019531 800.085938 C 931.621094 853.300781 931.71875 854.90625 933.726562 857.609375 C 938.535156 864.125 939.941406 864.527344 956.183594 864.527344 C 972.824219 864.527344 974.628906 863.925781 978.738281 856.910156 C 980.746094 853.503906 980.746094 851.699219 980.746094 730.734375 C 980.746094 615.382812 980.644531 607.566406 978.941406 602.15625 C 977.4375 597.144531 976.632812 596.042969 973.726562 594.839844 C 970.117188 593.335938 961.195312 593.234375 950.566406 594.4375 Z M 950.566406 594.4375 " fill-opacity="1" fill-rule="nonzero"/><path fill="#e2001a" d="M 835.375 596.742188 C 826.351562 599.75 823.84375 603.859375 823.84375 615.785156 C 823.84375 624.503906 826.449219 630.015625 831.863281 632.820312 C 834.972656 634.324219 837.78125 634.527344 854.019531 634.324219 C 871.164062 634.023438 872.96875 633.824219 874.972656 632.019531 C 881.289062 626.308594 883.09375 613.078125 878.785156 604.460938 C 874.972656 597.144531 872.066406 596.042969 854.421875 595.742188 C 844.09375 595.539062 838.082031 595.941406 835.375 596.742188 Z M 835.375 596.742188 " fill-opacity="1" fill-rule="nonzero"/><path fill="#e2001a" d="M 348.027344 613.078125 C 346.824219 613.378906 345.019531 614.480469 344.015625 615.683594 C 342.210938 617.589844 342.113281 621.398438 342.113281 705.078125 C 342.210938 803.292969 342.3125 805.898438 349.03125 821.433594 C 353.339844 831.253906 357.351562 836.566406 368.578125 847.1875 C 375.195312 853.503906 379.609375 856.710938 386.625 860.316406 C 391.738281 862.921875 396.449219 865.027344 397.050781 865.027344 C 397.753906 865.027344 400.960938 866.230469 404.269531 867.632812 C 407.578125 868.9375 415 870.941406 420.8125 872.042969 C 426.628906 873.144531 434.546875 874.75 438.359375 875.550781 C 443.269531 876.652344 453.296875 877.355469 471.441406 877.753906 C 498.613281 878.355469 516.457031 877.253906 525.679688 874.546875 C 528.386719 873.746094 534.90625 872.542969 540.117188 871.742188 C 545.332031 870.941406 551.648438 869.4375 554.152344 868.234375 C 556.660156 867.132812 560.070312 865.828125 561.671875 865.429688 C 563.378906 865.027344 566.484375 863.722656 568.691406 862.523438 C 570.898438 861.21875 573.804688 859.914062 575.109375 859.515625 C 581.523438 857.609375 598.96875 841.875 604.882812 832.855469 C 607.191406 829.148438 610.597656 822.636719 612.300781 818.324219 L 615.511719 810.410156 L 616.414062 780.84375 C 617.617188 734.441406 617.515625 619.09375 616.210938 616.085938 C 615.609375 614.78125 614.105469 613.378906 612.902344 613.078125 C 609.695312 612.175781 531.296875 612.476562 525.78125 613.378906 C 522.273438 613.980469 519.964844 615.082031 517.761719 617.386719 L 514.550781 620.496094 L 514.050781 699.96875 L 513.550781 779.339844 L 510.242188 786.355469 C 505.929688 795.277344 503.023438 798.480469 495.503906 801.988281 C 490.191406 804.59375 488.386719 804.894531 479.863281 804.894531 C 471.140625 804.894531 469.636719 804.59375 464.222656 801.890625 C 457.707031 798.582031 454.097656 794.675781 450.589844 787.058594 C 448.484375 782.449219 448.382812 781.34375 447.382812 701.972656 L 446.378906 621.496094 L 442.066406 617.289062 L 437.855469 612.980469 L 393.945312 612.777344 C 369.882812 612.777344 349.128906 612.878906 348.027344 613.078125 Z M 348.027344 613.078125 " fill-opacity="1" fill-rule="nonzero"/><path fill="#e2001a" d="M 702.03125 619.394531 C 695.816406 620.195312 691.203125 622.800781 687.09375 627.8125 L 683.984375 631.71875 L 683.984375 718.507812 L 684.085938 805.398438 L 686.992188 816.320312 C 692.808594 838.46875 706.644531 854.101562 726.796875 861.21875 C 735.820312 864.425781 736.621094 864.527344 751.359375 864.527344 C 765.09375 864.425781 767 864.226562 771.410156 862.121094 C 778.226562 859.015625 780.03125 855.605469 780.53125 845.082031 C 781.132812 834.160156 779.53125 827.144531 775.621094 823.335938 C 772.8125 820.628906 772.210938 820.53125 759.277344 819.828125 C 751.859375 819.429688 745.140625 818.726562 744.339844 818.324219 C 741.535156 816.722656 736.621094 809.003906 735.617188 804.695312 C 735.117188 802.191406 734.617188 782.347656 734.617188 758.59375 C 734.617188 721.914062 734.816406 716.703125 736.21875 715.300781 C 737.523438 714 740.53125 713.699219 753.0625 713.699219 C 767.097656 713.699219 768.703125 713.496094 772.8125 711.394531 C 779.027344 708.1875 780.832031 702.773438 780.433594 689.144531 C 780.230469 678.320312 778.929688 674.613281 774.71875 671.40625 C 772.613281 669.902344 769.605469 669.5 754.765625 669.101562 C 744.839844 668.800781 736.722656 668.097656 736.019531 667.496094 C 735.117188 666.695312 734.714844 661.585938 734.617188 647.855469 C 734.515625 627.109375 733.8125 623.800781 728.199219 620.394531 C 725.691406 618.890625 723.285156 618.492188 716.066406 618.589844 C 711.15625 618.691406 704.839844 619.09375 702.03125 619.394531 Z M 702.03125 619.394531 " fill-opacity="1" fill-rule="nonzero"/><path fill="#e2001a" d="M 1089.925781 668.699219 C 1078.59375 669.300781 1074.285156 670.003906 1067.867188 672.109375 C 1056.136719 676.117188 1055.035156 676.917969 1043.90625 688.042969 C 1034.78125 697.261719 1033.582031 698.867188 1030.972656 705.679688 C 1029.46875 709.789062 1027.765625 715 1027.265625 717.207031 C 1026.664062 719.710938 1026.460938 740.554688 1026.5625 769.320312 L 1026.964844 817.421875 L 1029.671875 823.9375 C 1034.382812 834.761719 1034.582031 835.164062 1042.804688 843.28125 C 1051.726562 852.199219 1060.949219 858.613281 1066.363281 859.617188 C 1068.367188 860.015625 1072.078125 861.117188 1074.683594 862.121094 C 1084.109375 865.828125 1122.609375 865.429688 1139.148438 861.519531 C 1152.082031 858.511719 1153.285156 858.113281 1157.496094 854.402344 C 1163.613281 849.191406 1164.714844 846.488281 1164.714844 836.765625 C 1164.613281 825.242188 1162.710938 821.230469 1155.390625 817.421875 L 1149.878906 814.515625 L 1144.164062 816.320312 C 1136.042969 818.828125 1120.703125 820.128906 1102.957031 819.730469 C 1089.421875 819.429688 1087.316406 819.226562 1084.910156 817.324219 C 1080.5 814.117188 1078.59375 810.808594 1077.390625 804.59375 C 1075.488281 795.277344 1074.785156 795.476562 1105.863281 794.773438 C 1129.125 794.273438 1132.832031 793.871094 1138.449219 791.96875 C 1141.957031 790.867188 1145.566406 789.863281 1146.46875 789.863281 C 1147.371094 789.863281 1151.179688 788.261719 1155.089844 786.253906 C 1179.652344 773.730469 1196.195312 738.050781 1187.375 716.90625 C 1186.070312 713.796875 1184.667969 709.6875 1184.265625 707.886719 C 1183.863281 706.082031 1182.5625 703.375 1181.359375 701.871094 C 1180.15625 700.367188 1177.949219 697.0625 1176.445312 694.457031 C 1171.03125 685.136719 1158.398438 675.914062 1144.5625 671.304688 C 1140.453125 669.902344 1113.382812 667.398438 1106.765625 667.699219 C 1105.261719 667.796875 1097.746094 668.199219 1089.925781 668.699219 Z M 1127.519531 714.300781 C 1129.925781 715.300781 1132.53125 717.40625 1134.335938 719.910156 C 1136.742188 723.519531 1137.144531 725.023438 1137.144531 731.234375 C 1137.144531 737.449219 1136.84375 738.851562 1134.4375 741.960938 C 1129.023438 748.976562 1125.816406 749.777344 1101.652344 749.777344 C 1080.398438 749.777344 1080.398438 749.777344 1077.992188 747.269531 C 1075.085938 744.464844 1075.1875 745.265625 1076.890625 731.835938 C 1078.496094 719.609375 1080.097656 716.90625 1087.117188 714.5 C 1093.933594 712.09375 1121.707031 711.996094 1127.519531 714.300781 Z M 1127.519531 714.300781 " fill-opacity="1" fill-rule="nonzero"/><path fill="#e2001a" d="M 834.972656 670.402344 C 832.867188 671.40625 830.660156 673.710938 829.457031 676.117188 C 827.351562 680.125 827.351562 681.128906 827.351562 766.914062 L 827.351562 853.703125 L 830.160156 857.710938 C 834.570312 864.023438 836.277344 864.527344 853.117188 864.425781 L 867.957031 864.425781 L 871.964844 860.515625 C 874.273438 858.3125 876.476562 854.90625 876.980469 852.902344 C 877.679688 850.496094 877.882812 818.226562 877.78125 764.007812 L 877.480469 678.921875 L 874.671875 674.914062 C 873.167969 672.707031 870.765625 670.402344 869.359375 669.703125 C 867.855469 669.101562 861.140625 668.601562 852.617188 668.601562 C 841.085938 668.601562 837.78125 668.902344 834.972656 670.402344 Z M 834.972656 670.402344 " fill-opacity="1" fill-rule="nonzero"/><g transform="matrix(1, 0, 0, 1, 787, 869)"><g clip-path="url(#28a85deada)"><g fill="#e2001a" fill-opacity="1"><g transform="translate(0.763582, 127.198654)"><g><path d="M 74.5 -67.1875 C 79.019531 -64.488281 81.28125 -61.617188 81.28125 -58.578125 C 81.28125 -56.835938 80.410156 -54.445312 78.671875 -51.40625 L 51.671875 -5.09375 C 50.796875 -3.613281 49.398438 -2.285156 47.484375 -1.109375 C 45.578125 0.0664062 43.6875 0.65625 41.8125 0.65625 C 39.945312 0.65625 38.164062 0.195312 36.46875 -0.71875 C 34.769531 -1.632812 33.570312 -2.566406 32.875 -3.515625 L 31.703125 -4.953125 L 4.5625 -51.40625 C 2.820312 -54.269531 1.953125 -56.617188 1.953125 -58.453125 C 1.953125 -61.578125 4.210938 -64.488281 8.734375 -67.1875 C 12.046875 -69.101562 14.65625 -70.0625 16.5625 -70.0625 C 18.476562 -70.0625 19.976562 -69.472656 21.0625 -68.296875 C 22.15625 -67.128906 23.3125 -65.367188 24.53125 -63.015625 L 41.625 -30.140625 L 58.71875 -63.015625 C 59.664062 -64.671875 60.378906 -65.867188 60.859375 -66.609375 C 61.335938 -67.347656 62.097656 -68.085938 63.140625 -68.828125 C 64.191406 -69.566406 65.585938 -69.9375 67.328125 -69.9375 C 69.066406 -69.9375 71.457031 -69.019531 74.5 -67.1875 Z M 74.5 -67.1875 "/></g></g></g><g fill="#e2001a" fill-opacity="1"><g transform="translate(80.09292, 127.198654)"><g><path d="M 71.5 -42.59375 C 71.5 -37.25 70.171875 -33.289062 67.515625 -30.71875 C 64.859375 -28.15625 61.925781 -26.875 58.71875 -26.875 L 27.796875 -26.875 C 27.796875 -24.4375 29.226562 -22.390625 32.09375 -20.734375 C 34.96875 -19.085938 37.835938 -18.265625 40.703125 -18.265625 C 45.753906 -18.265625 49.710938 -18.785156 52.578125 -19.828125 L 54.015625 -20.359375 C 56.097656 -21.304688 57.835938 -21.78125 59.234375 -21.78125 C 62.015625 -21.78125 64.40625 -19.828125 66.40625 -15.921875 C 67.539062 -13.566406 68.109375 -11.566406 68.109375 -9.921875 C 68.109375 -2.171875 58.84375 1.703125 40.3125 1.703125 C 33.875 1.703125 28.15625 0.589844 23.15625 -1.625 C 18.15625 -3.84375 14.265625 -6.78125 11.484375 -10.4375 C 6.003906 -17.476562 3.265625 -25.347656 3.265625 -34.046875 C 3.265625 -45.003906 6.804688 -53.765625 13.890625 -60.328125 C 20.984375 -66.898438 29.835938 -70.1875 40.453125 -70.1875 C 52.535156 -70.1875 61.40625 -65.925781 67.0625 -57.40625 C 70.019531 -52.882812 71.5 -47.945312 71.5 -42.59375 Z M 43.96875 -38.75 C 47.269531 -38.75 48.921875 -40.140625 48.921875 -42.921875 C 48.921875 -44.921875 48.160156 -46.53125 46.640625 -47.75 C 45.117188 -48.96875 42.941406 -49.578125 40.109375 -49.578125 C 37.285156 -49.578125 34.484375 -48.421875 31.703125 -46.109375 C 28.921875 -43.804688 27.53125 -41.351562 27.53125 -38.75 Z M 43.96875 -38.75 "/></g></g></g><g fill="#e2001a" fill-opacity="1"><g transform="translate(154.855606, 127.198654)"><g><path d="M 43.453125 -68.75 C 52.148438 -68.75 59.390625 -65.421875 65.171875 -58.765625 C 70.953125 -52.117188 73.84375 -44.007812 73.84375 -34.4375 L 73.84375 -11.484375 C 73.84375 -9.484375 73.773438 -7.984375 73.640625 -6.984375 C 73.515625 -5.984375 73.148438 -4.875 72.546875 -3.65625 C 71.328125 -1.300781 67.929688 -0.125 62.359375 -0.125 C 56.179688 -0.125 52.617188 -1.734375 51.671875 -4.953125 C 51.148438 -6.429688 50.890625 -8.648438 50.890625 -11.609375 L 50.890625 -34.578125 C 50.890625 -38.140625 49.863281 -40.921875 47.8125 -42.921875 C 45.769531 -44.921875 43.03125 -45.921875 39.59375 -45.921875 C 36.15625 -45.921875 33.367188 -44.875 31.234375 -42.78125 C 29.109375 -40.695312 28.046875 -37.960938 28.046875 -34.578125 L 28.046875 -11.484375 C 28.046875 -9.484375 27.976562 -7.984375 27.84375 -6.984375 C 27.71875 -5.984375 27.304688 -4.875 26.609375 -3.65625 C 25.484375 -1.300781 22.132812 -0.125 16.5625 -0.125 C 11.082031 -0.125 7.738281 -1.300781 6.53125 -3.65625 C 5.914062 -4.957031 5.539062 -6.109375 5.40625 -7.109375 C 5.28125 -8.109375 5.21875 -9.609375 5.21875 -11.609375 L 5.21875 -57.796875 C 5.21875 -59.710938 5.28125 -61.171875 5.40625 -62.171875 C 5.539062 -63.171875 5.957031 -64.28125 6.65625 -65.5 C 7.875 -67.664062 11.222656 -68.75 16.703125 -68.75 C 22.003906 -68.75 25.265625 -67.75 26.484375 -65.75 C 27.359375 -64.269531 27.796875 -62.488281 27.796875 -60.40625 C 28.140625 -61.019531 28.921875 -61.890625 30.140625 -63.015625 C 31.359375 -64.148438 32.53125 -65.0625 33.65625 -65.75 C 36.613281 -67.75 39.878906 -68.75 43.453125 -68.75 Z M 43.453125 -68.75 "/></g></g></g><g fill="#e2001a" fill-opacity="1"><g transform="translate(233.923976, 127.198654)"><g><path d="M 26.75 -34.375 C 26.75 -30.675781 27.960938 -27.804688 30.390625 -25.765625 C 32.828125 -23.722656 35.414062 -22.703125 38.15625 -22.703125 C 40.894531 -22.703125 43.460938 -23.503906 45.859375 -25.109375 C 48.253906 -26.722656 50.191406 -27.53125 51.671875 -27.53125 C 54.273438 -27.53125 57.445312 -25.222656 61.1875 -20.609375 C 63.1875 -18.085938 64.1875 -15.828125 64.1875 -13.828125 C 64.1875 -10.523438 61.796875 -7.4375 57.015625 -4.5625 C 52.054688 -1.082031 45.96875 0.65625 38.75 0.65625 C 30.65625 0.65625 22.867188 -2.257812 15.390625 -8.09375 C 11.828125 -10.875 8.914062 -14.585938 6.65625 -19.234375 C 4.394531 -23.890625 3.265625 -29.023438 3.265625 -34.640625 C 3.265625 -40.253906 4.394531 -45.34375 6.65625 -49.90625 C 8.914062 -54.46875 11.828125 -58.140625 15.390625 -60.921875 C 22.609375 -66.671875 30.304688 -69.546875 38.484375 -69.546875 C 41.796875 -69.546875 45.015625 -69.085938 48.140625 -68.171875 C 51.273438 -67.253906 53.582031 -66.363281 55.0625 -65.5 L 57.140625 -64.1875 C 58.710938 -63.144531 59.929688 -62.320312 60.796875 -61.71875 C 63.054688 -59.976562 64.1875 -58 64.1875 -55.78125 C 64.1875 -53.5625 63.273438 -51.0625 61.453125 -48.28125 C 58.316406 -43.488281 55.316406 -41.09375 52.453125 -41.09375 C 50.796875 -41.09375 48.445312 -42.050781 45.40625 -43.96875 C 43.84375 -45.445312 41.601562 -46.1875 38.6875 -46.1875 C 35.769531 -46.1875 33.050781 -45.140625 30.53125 -43.046875 C 28.007812 -40.960938 26.75 -38.070312 26.75 -34.375 Z M 26.75 -34.375 "/></g></g></g><g fill="#e2001a" fill-opacity="1"><g transform="translate(299.422894, 127.198654)"><g><path d="M 71.5 -42.59375 C 71.5 -37.25 70.171875 -33.289062 67.515625 -30.71875 C 64.859375 -28.15625 61.925781 -26.875 58.71875 -26.875 L 27.796875 -26.875 C 27.796875 -24.4375 29.226562 -22.390625 32.09375 -20.734375 C 34.96875 -19.085938 37.835938 -18.265625 40.703125 -18.265625 C 45.753906 -18.265625 49.710938 -18.785156 52.578125 -19.828125 L 54.015625 -20.359375 C 56.097656 -21.304688 57.835938 -21.78125 59.234375 -21.78125 C 62.015625 -21.78125 64.40625 -19.828125 66.40625 -15.921875 C 67.539062 -13.566406 68.109375 -11.566406 68.109375 -9.921875 C 68.109375 -2.171875 58.84375 1.703125 40.3125 1.703125 C 33.875 1.703125 28.15625 0.589844 23.15625 -1.625 C 18.15625 -3.84375 14.265625 -6.78125 11.484375 -10.4375 C 6.003906 -17.476562 3.265625 -25.347656 3.265625 -34.046875 C 3.265625 -45.003906 6.804688 -53.765625 13.890625 -60.328125 C 20.984375 -66.898438 29.835938 -70.1875 40.453125 -70.1875 C 52.535156 -70.1875 61.40625 -65.925781 67.0625 -57.40625 C 70.019531 -52.882812 71.5 -47.945312 71.5 -42.59375 Z M 43.96875 -38.75 C 47.269531 -38.75 48.921875 -40.140625 48.921875 -42.921875 C 48.921875 -44.921875 48.160156 -46.53125 46.640625 -47.75 C 45.117188 -48.96875 42.941406 -49.578125 40.109375 -49.578125 C 37.285156 -49.578125 34.484375 -48.421875 31.703125 -46.109375 C 28.921875 -43.804688 27.53125 -41.351562 27.53125 -38.75 Z M 43.96875 -38.75 "/></g></g></g></g></g></svg>