<svg xmlns="http://www.w3.org/2000/svg" viewBox="0 0 1170.000000 800.000000" width="1170.000000" height="800.000000"><g transform="translate(0.000000,800.000000) scale(0.100000,-0.100000)"
fill="#16b5c6" stroke="none">
<path d="M3215 6704 c-224 -26 -586 -108 -745 -171 -63 -25 -144 -56 -180 -69
-36 -12 -94 -39 -130 -58 -36 -20 -85 -46 -110 -57 -25 -12 -63 -34 -85 -49
-36 -24 -123 -79 -166 -105 -115 -70 -361 -292 -508 -459 -96 -109 -243 -315
-294 -412 -87 -164 -178 -359 -187 -399 -6 -26 -17 -60 -25 -76 -8 -15 -22
-59 -31 -96 -8 -37 -24 -95 -34 -128 -19 -58 -52 -330 -65 -525 -10 -152 31
-557 70 -685 13 -44 27 -96 31 -115 3 -19 17 -61 30 -92 13 -32 24 -66 24 -76
0 -20 142 -326 163 -351 8 -9 20 -32 27 -51 8 -19 31 -59 53 -90 21 -30 50
-73 65 -95 78 -117 209 -272 338 -400 149 -149 290 -259 488 -380 45 -27 95
-59 111 -71 40 -27 255 -131 330 -159 261 -98 337 -123 386 -128 31 -4 86 -16
122 -27 35 -11 123 -29 193 -40 71 -11 167 -27 214 -35 97 -17 401 -20 465 -5
22 6 110 21 195 35 85 15 208 39 272 55 64 17 124 30 133 30 17 0 177 59 245
92 25 11 65 26 90 34 25 7 74 28 110 48 36 19 89 47 119 61 30 15 67 36 82 48
15 12 51 36 79 52 101 58 235 161 368 285 139 128 362 373 362 397 0 17 -45
60 -84 80 -16 9 -62 44 -103 79 -77 67 -111 79 -137 47 -8 -10 -37 -45 -64
-78 -27 -33 -60 -78 -74 -100 -51 -79 -370 -389 -438 -425 -14 -7 -53 -35 -88
-62 -35 -28 -78 -56 -95 -63 -18 -8 -47 -25 -66 -39 -19 -14 -40 -26 -46 -26
-7 0 -32 -13 -56 -30 -24 -16 -51 -30 -60 -30 -9 0 -41 -13 -72 -30 -31 -16
-63 -30 -70 -30 -8 0 -38 -13 -68 -29 -30 -16 -74 -32 -99 -36 -25 -4 -79 -18
-120 -31 -41 -13 -142 -36 -225 -51 -139 -26 -169 -28 -405 -28 -205 0 -270 3
-330 17 -41 10 -111 22 -155 29 -44 6 -102 20 -130 30 -27 10 -77 24 -109 30
-33 6 -80 21 -105 33 -25 13 -57 27 -71 31 -14 4 -52 20 -85 36 -33 15 -76 34
-95 43 -19 9 -62 31 -95 50 -33 19 -76 43 -95 52 -19 9 -49 28 -66 43 -18 14
-55 42 -83 61 -83 56 -179 137 -274 229 -97 95 -247 263 -266 298 -6 13 -33
51 -59 87 -26 35 -63 92 -82 127 -19 34 -50 85 -67 113 -18 28 -33 57 -33 66
0 8 -13 42 -29 75 -44 91 -88 206 -96 250 -4 22 -18 65 -30 95 -13 30 -28 96
-35 145 -6 50 -18 117 -27 150 -19 74 -30 511 -15 595 6 30 17 102 27 160 19
118 36 194 59 260 8 25 24 72 35 105 35 109 58 169 85 219 14 27 26 56 26 63
0 14 43 91 96 173 13 19 27 46 32 60 6 14 30 50 54 80 24 30 52 69 63 85 79
125 330 380 481 488 21 16 73 53 114 84 41 30 91 62 110 70 19 8 44 23 55 33
11 9 35 22 53 28 18 6 45 20 60 30 15 11 38 23 52 27 14 4 54 19 90 35 138 58
228 90 302 105 43 9 95 22 116 29 22 8 119 24 215 36 143 18 210 21 354 17
207 -5 424 -30 503 -58 30 -11 82 -24 116 -29 34 -6 91 -23 127 -40 37 -16 73
-30 80 -30 8 0 36 -11 63 -25 27 -14 67 -30 89 -36 22 -6 52 -21 67 -34 15
-13 41 -26 58 -30 16 -4 32 -11 36 -16 3 -5 29 -21 57 -35 59 -30 72 -39 227
-154 155 -115 367 -318 428 -410 50 -75 177 -223 200 -231 21 -8 50 -4 132 17
58 14 143 29 189 33 104 7 119 22 77 73 -15 18 -47 63 -70 99 -23 37 -53 81
-67 98 -39 53 -290 325 -308 335 -9 5 -50 39 -93 75 -42 36 -93 77 -113 91
-20 14 -51 37 -68 51 -18 14 -43 32 -57 39 -14 7 -57 34 -96 60 -39 27 -93 59
-120 72 -27 13 -80 41 -119 62 -38 21 -97 48 -130 61 -33 13 -118 46 -188 74
-71 28 -138 51 -149 51 -12 0 -69 13 -127 29 -58 16 -185 41 -281 56 -152 24
-210 28 -440 30 -146 2 -283 1 -305 -1z"/>
</g><g transform="translate(0.000000,800.000000) scale(0.100000,-0.100000)"
fill="#e2001a" stroke="none">
<path d="M8144 5350 c-63 -7 -132 -39 -167 -78 -10 -10 -22 -46 -27 -78 -11
-65 -11 -1023 -1 -1896 6 -531 7 -547 27 -574 48 -65 62 -69 224 -69 166 0
184 6 225 76 20 34 20 52 20 1259 0 1151 -1 1229 -18 1283 -15 50 -23 61 -52
73 -36 15 -125 16 -231 4z"/>
<path d="M6995 5327 c-90 -30 -115 -71 -115 -190 0 -87 26 -142 80 -170 31
-15 59 -17 221 -15 171 3 189 5 209 23 63 57 81 189 38 275 -38 73 -67 84
-243 87 -103 2 -163 -2 -190 -10z"/>
<path d="M2134 5164 c-12 -3 -30 -14 -40 -26 -18 -19 -19 -57 -19 -892 1 -980
2 -1006 69 -1161 43 -98 83 -151 195 -257 66 -63 110 -95 180 -131 51 -26 98
-47 104 -47 7 0 39 -12 72 -26 33 -13 107 -33 165 -44 58 -11 137 -27 175 -35
49 -11 149 -18 330 -22 271 -6 449 5 541 32 27 8 92 20 144 28 52 8 115 23
140 35 25 11 59 24 75 28 17 4 48 17 70 29 22 13 51 26 64 30 64 19 238 176
297 266 23 37 57 102 74 145 l32 79 9 295 c12 463 11 1614 -2 1644 -6 13 -21
27 -33 30 -32 9 -814 6 -869 -3 -35 -6 -58 -17 -80 -40 l-32 -31 -5 -793 -5
-792 -33 -70 c-43 -89 -72 -121 -147 -156 -53 -26 -71 -29 -156 -29 -87 0
-102 3 -156 30 -65 33 -101 72 -136 148 -21 46 -22 57 -32 849 l-10 803 -43
42 -42 43 -438 2 c-240 0 -447 -1 -458 -3z"/>
<path d="M5665 5101 c-62 -8 -108 -34 -149 -84 l-31 -39 0 -866 1 -867 29
-109 c58 -221 196 -377 397 -448 90 -32 98 -33 245 -33 137 1 156 3 200 24 68
31 86 65 91 170 6 109 -10 179 -49 217 -28 27 -34 28 -163 35 -74 4 -141 11
-149 15 -28 16 -77 93 -87 136 -5 25 -10 223 -10 460 0 366 2 418 16 432 13
13 43 16 168 16 140 0 156 2 197 23 62 32 80 86 76 222 -2 108 -15 145 -57
177 -21 15 -51 19 -199 23 -99 3 -180 10 -187 16 -9 8 -13 59 -14 196 -1 207
-8 240 -64 274 -25 15 -49 19 -121 18 -49 -1 -112 -5 -140 -8z"/>
<path d="M9534 4609 c-113 -6 -156 -13 -220 -34 -117 -40 -128 -48 -239 -159
-91 -92 -103 -108 -129 -176 -15 -41 -32 -93 -37 -115 -6 -25 -8 -233 -7 -520
l4 -480 27 -65 c47 -108 49 -112 131 -193 89 -89 181 -153 235 -163 20 -4 57
-15 83 -25 94 -37 478 -33 643 6 129 30 141 34 183 71 61 52 72 79 72 176 -1
115 -20 155 -93 193 l-55 29 -57 -18 c-81 -25 -234 -38 -411 -34 -135 3 -156
5 -180 24 -44 32 -63 65 -75 127 -19 93 -26 91 284 98 232 5 269 9 325 28 35
11 71 21 80 21 9 0 47 16 86 36 245 125 410 481 322 692 -13 31 -27 72 -31 90
-4 18 -17 45 -29 60 -12 15 -34 48 -49 74 -54 93 -180 185 -318 231 -41 14
-311 39 -377 36 -15 -1 -90 -5 -168 -10z m375 -455 c24 -10 50 -31 68 -56 24
-36 28 -51 28 -113 0 -62 -3 -76 -27 -107 -54 -70 -86 -78 -327 -78 -212 0
-212 0 -236 25 -29 28 -28 20 -11 154 16 122 32 149 102 173 68 24 345 25 403
2z"/>
<path d="M6991 4592 c-21 -10 -43 -33 -55 -57 -21 -40 -21 -50 -21 -906 l0
-866 28 -40 c44 -63 61 -68 229 -67 l148 0 40 39 c23 22 45 56 50 76 7 24 9
346 8 887 l-3 849 -28 40 c-15 22 -39 45 -53 52 -15 6 -82 11 -167 11 -115 0
-148 -3 -176 -18z"/>
</g></svg>